<?xml version="1.0" encoding="UTF-8" standalone="no"?>
<!DOCTYPE svg PUBLIC "-//W3C//DTD SVG 1.1//EN" "http://www.w3.org/Graphics/SVG/1.1/DTD/svg11.dtd">
<svg width="100%" height="100%" viewBox="0 0 53 52" version="1.1" xmlns="http://www.w3.org/2000/svg" xmlns:xlink="http://www.w3.org/1999/xlink" xml:space="preserve" xmlns:serif="http://www.serif.com/" style="fill-rule:evenodd;clip-rule:evenodd;stroke-linejoin:round;stroke-miterlimit:2;">
    <g transform="matrix(1,0,0,1,-57,-250)">
        <g transform="matrix(1,0,0,1,57.5082,-0.676825)">
            <rect id="luxury" x="0" y="250.677" width="52" height="52" style="fill:none;"/>
            <g id="luxury1" serif:id="luxury">
                <g transform="matrix(1,0,0,1,-57.5082,0.676825)">
                    <path d="M69.675,290L69.675,290.918C69.675,292.896 68.071,294.5 66.093,294.5L66.09,294.5C64.112,294.5 62.508,292.896 62.508,290.918L62.508,290L69.675,290ZM102.958,290L102.958,290.876C102.958,292.854 101.354,294.458 99.376,294.458L99.374,294.458C97.396,294.458 95.792,292.854 95.792,290.876L95.792,290L102.958,290ZM100.042,287.042L62.542,287.042L62.542,281.12C62.542,278.713 63.498,276.403 65.201,274.701C65.231,274.671 65.261,274.641 65.292,274.611L65.292,264.695C65.292,262.93 65.993,261.238 67.24,259.99C68.488,258.743 70.18,258.042 71.945,258.042L93.555,258.042C95.32,258.042 97.012,258.743 98.26,259.99C99.507,261.238 100.208,262.93 100.208,264.695L100.208,274.611C100.239,274.641 100.269,274.671 100.299,274.701C102.002,276.403 102.958,278.713 102.958,281.12L102.958,287.042L100.042,287.042ZM69.292,272.345C70.045,272.145 70.827,272.042 71.62,272.042L93.88,272.042C94.673,272.042 95.455,272.145 96.208,272.345L96.208,270.669C96.208,269.442 95.721,268.265 94.853,267.397C93.985,266.529 92.808,266.042 91.581,266.042L85.919,266.042C84.74,266.042 83.607,266.492 82.75,267.297C81.893,266.492 80.76,266.042 79.581,266.042L73.919,266.042C72.692,266.042 71.515,266.529 70.647,267.397C69.779,268.265 69.292,269.442 69.292,270.669L69.292,272.345Z" style="fill:rgb(8,161,226);"/>
                </g>
            </g>
        </g>
    </g>
</svg>
