<?xml version="1.0" encoding="UTF-8" standalone="no"?>
<!DOCTYPE svg PUBLIC "-//W3C//DTD SVG 1.1//EN" "http://www.w3.org/Graphics/SVG/1.1/DTD/svg11.dtd">
<svg width="100%" height="100%" viewBox="0 0 53 53" version="1.1" xmlns="http://www.w3.org/2000/svg" xmlns:xlink="http://www.w3.org/1999/xlink" xml:space="preserve" xmlns:serif="http://www.serif.com/" style="fill-rule:evenodd;clip-rule:evenodd;stroke-linejoin:round;stroke-miterlimit:2;">
    <g transform="matrix(1,0,0,1,-112,-119)">
        <g transform="matrix(1,0,0,1,112.397,119.946)">
            <rect id="approx-date" x="0" y="0" width="52" height="52" style="fill:none;"/>
            <g id="approx-date1" serif:id="approx-date">
                <g id="Layer_2" transform="matrix(1,0,0,1,8.16181,2.25303)">
                    <g transform="matrix(2.625,0,0,2.625,-8.42494,-2.50303)">
                        <path d="M6,13.25C5.589,13.25 5.25,13.589 5.25,14L5.25,14.01C5.25,14.424 5.586,14.76 6,14.76L6.01,14.76C6.421,14.76 6.76,14.421 6.76,14.01L6.76,14C6.76,13.589 6.421,13.25 6.01,13.25L6,13.25ZM7.25,12C7.25,11.589 7.589,11.25 8,11.25L8.01,11.25C8.421,11.25 8.76,11.589 8.76,12L8.76,12.01C8.76,12.421 8.421,12.76 8.01,12.76L8,12.76C7.589,12.76 7.25,12.421 7.25,12.01L7.25,12ZM8,13.25C7.589,13.25 7.25,13.589 7.25,14L7.25,14.01C7.25,14.424 7.586,14.76 8,14.76L8.01,14.76C8.421,14.76 8.76,14.421 8.76,14.01L8.76,14C8.76,13.589 8.421,13.25 8.01,13.25L8,13.25ZM9.25,10C9.25,9.589 9.589,9.25 10,9.25L10.01,9.25C10.421,9.25 10.76,9.589 10.76,10L10.76,10.01C10.76,10.421 10.421,10.76 10.01,10.76L10,10.76C9.589,10.76 9.25,10.421 9.25,10.01L9.25,10ZM10,11.25C9.589,11.25 9.25,11.589 9.25,12L9.25,12.01C9.25,12.424 9.586,12.76 10,12.76L10.01,12.76C10.421,12.76 10.76,12.421 10.76,12.01L10.76,12C10.76,11.589 10.421,11.25 10.01,11.25L10,11.25ZM9.25,14C9.25,13.589 9.589,13.25 10,13.25L10.01,13.25C10.421,13.25 10.76,13.589 10.76,14L10.76,14.01C10.76,14.421 10.421,14.76 10.01,14.76L10,14.76C9.589,14.76 9.25,14.421 9.25,14.01L9.25,14ZM12,9.25C11.589,9.25 11.25,9.589 11.25,10L11.25,10.01C11.25,10.424 11.586,10.76 12,10.76L12.01,10.76C12.421,10.76 12.76,10.421 12.76,10.01L12.76,10C12.76,9.589 12.421,9.25 12.01,9.25L12,9.25ZM11.25,12C11.25,11.589 11.589,11.25 12,11.25L12.01,11.25C12.421,11.25 12.76,11.589 12.76,12L12.76,12.01C12.76,12.421 12.421,12.76 12.01,12.76L12,12.76C11.589,12.76 11.25,12.421 11.25,12.01L11.25,12ZM12,13.25C11.589,13.25 11.25,13.589 11.25,14L11.25,14.01C11.25,14.424 11.586,14.76 12,14.76L12.01,14.76C12.421,14.76 12.76,14.421 12.76,14.01L12.76,14C12.76,13.589 12.421,13.25 12.01,13.25L12,13.25ZM13.25,10C13.25,9.589 13.589,9.25 14,9.25L14.01,9.25C14.421,9.25 14.76,9.589 14.76,10L14.76,10.01C14.76,10.421 14.421,10.76 14.01,10.76L14,10.76C13.589,10.76 13.25,10.421 13.25,10.01L13.25,10ZM14,11.25C13.589,11.25 13.25,11.589 13.25,12L13.25,12.01C13.25,12.424 13.586,12.76 14,12.76L14.01,12.76C14.421,12.76 14.76,12.421 14.76,12.01L14.76,12C14.76,11.589 14.421,11.25 14.01,11.25L14,11.25Z" style="fill:rgb(8,161,226);fill-rule:nonzero;"/>
                    </g>
                    <g transform="matrix(1,0,0,1,-120.559,-122.199)">
                        <path d="M125.915,151.196C125.915,150.116 126.804,149.227 127.884,149.227L127.91,149.227C128.99,149.227 129.879,150.116 129.879,151.196L129.879,151.222C129.879,152.302 128.99,153.191 127.91,153.191L127.884,153.191C126.804,153.191 125.915,152.302 125.915,151.222L125.915,151.196Z" style="fill:rgb(8,161,226);"/>
                    </g>
                    <g transform="matrix(2.625,0,0,2.625,-8.41181,-2.50303)">
                        <path d="M5.75,2C6.161,2 6.5,2.339 6.5,2.75L6.5,4L13.5,4L13.5,2.75C13.5,2.339 13.839,2 14.25,2C14.661,2 15,2.339 15,2.75L15,4L15.25,4C16.759,4 18,5.241 18,6.75L18,15.25C18,16.759 16.759,18 15.25,18L4.75,18C3.241,18 2,16.759 2,15.25L2,6.75C2,5.241 3.241,4 4.75,4L5,4L5,2.75C5,2.339 5.339,2 5.75,2ZM4.75,7.5C4.06,7.5 3.5,8.06 3.5,8.75L3.5,15.25C3.5,15.94 4.06,16.5 4.75,16.5L15.25,16.5C15.94,16.5 16.5,15.94 16.5,15.25L16.5,8.75C16.5,8.06 15.94,7.5 15.25,7.5L4.75,7.5Z" style="fill:rgb(8,161,226);"/>
                    </g>
                </g>
            </g>
        </g>
    </g>
</svg>
