<?xml version="1.0" encoding="UTF-8" standalone="no"?>
<!DOCTYPE svg PUBLIC "-//W3C//DTD SVG 1.1//EN" "http://www.w3.org/Graphics/SVG/1.1/DTD/svg11.dtd">
<svg width="100%" height="100%" viewBox="0 0 52 52" version="1.1" xmlns="http://www.w3.org/2000/svg" xmlns:xlink="http://www.w3.org/1999/xlink" xml:space="preserve" xmlns:serif="http://www.serif.com/" style="fill-rule:evenodd;clip-rule:evenodd;stroke-linejoin:round;stroke-miterlimit:2;">
    <g transform="matrix(1,0,0,1,0,-250)">
        <g transform="matrix(1,0,0,1,0,-0.676825)">
            <rect id="basic" x="0" y="250.677" width="52" height="52" style="fill:none;"/>
            <g id="basic1" serif:id="basic">
                <g transform="matrix(1,0,0,1,0,0.676825)">
                    <path d="M41.454,274.611C41.485,274.641 41.515,274.671 41.545,274.701C43.248,276.403 44.204,278.713 44.204,281.12L44.204,287L7.796,287L7.796,281.12C7.796,278.713 8.752,276.403 10.455,274.701C10.485,274.671 10.515,274.641 10.546,274.611L10.546,264.695C10.546,262.93 11.247,261.238 12.494,259.99C13.742,258.743 15.434,258.042 17.199,258.042L34.801,258.042C36.566,258.042 38.258,258.743 39.506,259.99C40.753,261.238 41.454,262.93 41.454,264.695L41.454,274.611ZM17.542,272.042L34.458,272.042L34.458,270.669C34.458,269.417 33.899,268.206 32.866,267.321C31.92,266.51 30.641,266.042 29.303,266.042L22.697,266.042C21.359,266.042 20.08,266.51 19.134,267.321C18.101,268.206 17.542,269.417 17.542,270.669L17.542,272.042ZM16.167,290L16.167,290.918C16.167,292.896 14.563,294.5 12.584,294.5L12.582,294.5C10.604,294.5 9,292.896 9,290.918L9,290L16.167,290ZM43,290L43,290.918C43,292.896 41.396,294.5 39.418,294.5L39.416,294.5C37.437,294.5 35.833,292.896 35.833,290.918L35.833,290L43,290Z" style="fill:rgb(8,161,226);"/>
                </g>
            </g>
        </g>
    </g>
</svg>
