<?xml version="1.0" encoding="UTF-8" standalone="no"?>
<!DOCTYPE svg PUBLIC "-//W3C//DTD SVG 1.1//EN" "http://www.w3.org/Graphics/SVG/1.1/DTD/svg11.dtd">
<svg width="100%" height="100%" viewBox="0 0 52 53" version="1.1" xmlns="http://www.w3.org/2000/svg" xmlns:xlink="http://www.w3.org/1999/xlink" xml:space="preserve" xmlns:serif="http://www.serif.com/" style="fill-rule:evenodd;clip-rule:evenodd;stroke-linejoin:round;stroke-miterlimit:2;">
    <g transform="matrix(1,0,0,1,0,-312)">
        <g transform="matrix(1,0,0,1,0,61.564)">
            <rect id="budget" x="0" y="250.677" width="52" height="52" style="fill:none;"/>
            <g id="budget1" serif:id="budget">
                <g transform="matrix(2.33333,0,0,2.33333,2.66667,252.415)">
                    <path d="M1,4C1,3.451 1.451,3 2,3L18,3C18.549,3 19,3.451 19,4L19,12C19,12.549 18.549,13 18,13L2,13C1.451,13 1,12.549 1,12L1,4ZM13,8C13,9.646 11.646,11 10,11C8.354,11 7,9.646 7,8C7,6.354 8.354,5 10,5C11.646,5 13,6.354 13,8ZM4,9C4.549,9 5,8.549 5,8C5,7.451 4.549,7 4,7C3.451,7 3,7.451 3,8C3,8.549 3.451,9 4,9ZM17,8C17,8.549 16.549,9 16,9C15.451,9 15,8.549 15,8C15,7.451 15.451,7 16,7C16.549,7 17,7.451 17,8ZM1.75,14.5C1.339,14.5 1,14.839 1,15.25C1,15.661 1.339,16 1.75,16C6.167,16 10.443,16.603 14.499,17.73C15.61,18.039 16.75,17.218 16.75,16.034L16.75,15.25C16.75,14.839 16.411,14.5 16,14.5C15.589,14.5 6.194,14.496 1.75,14.5Z" style="fill:rgb(8,161,226);"/>
                </g>
            </g>
        </g>
    </g>
</svg>
