<?xml version="1.0" encoding="UTF-8" standalone="no"?>
<!DOCTYPE svg PUBLIC "-//W3C//DTD SVG 1.1//EN" "http://www.w3.org/Graphics/SVG/1.1/DTD/svg11.dtd">
<svg width="100%" height="100%" viewBox="0 0 53 52" version="1.1" xmlns="http://www.w3.org/2000/svg" xmlns:xlink="http://www.w3.org/1999/xlink" xml:space="preserve" xmlns:serif="http://www.serif.com/" style="fill-rule:evenodd;clip-rule:evenodd;stroke-linejoin:round;stroke-miterlimit:2;">
    <g transform="matrix(1,0,0,1,-115,-250)">
        <g transform="matrix(1,0,0,1,115.016,-0.676825)">
            <rect id="camping" x="0" y="250.677" width="52" height="52" style="fill:none;"/>
            <g id="camping1" serif:id="camping">
                <g transform="matrix(1,0,0,1,-172.793,0.357488)">
                    <path d="M191.789,294.03C191.428,294.632 190.777,295 190.075,295C188.386,295 185.132,295 182.597,295C181.876,295 181.211,294.612 180.856,293.985C180.502,293.358 180.512,292.588 180.883,291.97C185.351,284.534 196.497,265.984 196.497,265.984C196.497,265.984 194.839,263.225 193.714,261.354C193.154,260.422 193.456,259.213 194.387,258.653C194.388,258.653 194.388,258.653 194.389,258.652C195.32,258.092 196.529,258.394 197.089,259.326C197.862,260.611 198.793,262.162 198.793,262.162C198.793,262.162 199.725,260.611 200.498,259.326C201.057,258.394 202.266,258.092 203.198,258.652C203.198,258.653 203.199,258.653 203.199,258.653C204.131,259.213 204.432,260.422 203.873,261.354C202.748,263.225 201.09,265.984 201.09,265.984C201.09,265.984 212.236,284.534 216.704,291.97C217.075,292.588 217.085,293.358 216.73,293.985C216.375,294.612 215.71,295 214.99,295L207.512,295C206.81,295 206.159,294.632 205.798,294.03C204.68,292.17 202.196,288.036 200.508,285.226C200.146,284.624 199.495,284.256 198.793,284.256C198.091,284.256 197.441,284.624 197.079,285.226C195.391,288.036 192.907,292.17 191.789,294.03ZM195.018,276.09L195.072,276L195.021,276C195.001,276 194.985,276.015 194.982,276.035C194.979,276.054 194.991,276.073 195.01,276.078C195.015,276.085 195.018,276.09 195.018,276.09ZM202.623,276L202.572,276C202.552,276 202.535,276.015 202.533,276.035C202.53,276.054 202.542,276.073 202.561,276.078C202.566,276.085 202.569,276.09 202.569,276.09L202.623,276Z" style="fill:rgb(8,161,226);"/>
                </g>
            </g>
        </g>
    </g>
</svg>
