<svg xmlns="http://www.w3.org/2000/svg" width="50.096" height="50.096" viewBox="0 0 50.096 50.096"><g transform="translate(0 21.708)"><path d="M31.727,218.1v-7.6a2.508,2.508,0,0,0-2.5-2.5H5.845a2.508,2.508,0,0,0-2.5,2.5v7.6A4.183,4.183,0,0,0,0,222.194v13.359a.835.835,0,0,0,.835.835h3.34a.835.835,0,0,0,.835-.835v-2.5H30.058v2.5a.835.835,0,0,0,.835.835h3.34a.835.835,0,0,0,.835-.835V222.194A4.182,4.182,0,0,0,31.727,218.1ZM5.01,210.5a.836.836,0,0,1,.835-.835H29.223a.836.836,0,0,1,.835.835v7.514h-1.67v-3.34a2.508,2.508,0,0,0-2.5-2.5h-5.01a2.508,2.508,0,0,0-2.5,2.5v3.34H16.7v-3.34a2.508,2.508,0,0,0-2.5-2.5H9.184a2.508,2.508,0,0,0-2.5,2.5v3.34H5.01Zm21.708,4.175v3.34H20.038v-3.34a.836.836,0,0,1,.835-.835h5.01A.836.836,0,0,1,26.718,214.679Zm-11.689,0v3.34H8.349v-3.34a.836.836,0,0,1,.835-.835h5.01A.836.836,0,0,1,15.029,214.679ZM33.4,234.718h-1.67v-2.5a.835.835,0,0,0-.835-.835H4.175a.835.835,0,0,0-.835.835v2.5H1.67v-6.679H33.4Zm0-8.349H1.67v-4.175a2.508,2.508,0,0,1,2.5-2.5H30.892a2.508,2.508,0,0,1,2.5,2.5Z" transform="translate(0 -208)" fill="#0260c0"/></g><g transform="translate(36.737 31.727)"><path d="M364.524,304H352.835a.835.835,0,0,0-.835.835v12.524h1.67v-5.01h10.019v5.01h1.67V304.835A.835.835,0,0,0,364.524,304Zm-.835,6.68H353.67v-5.01h10.019Z" transform="translate(-352 -304)" fill="#0260c0"/></g><g transform="translate(41.302 34.806)"><g transform="translate(0 0)"><rect width="3.854" height="1.927" transform="translate(0)" fill="#0260c0"/></g></g><g transform="translate(39.242 19.203)"><path d="M384.3,189.58l-1.67-5.01a.835.835,0,0,0-.792-.57H378.5a.835.835,0,0,0-.792.571l-1.67,5.01a.835.835,0,0,0,.792,1.1h2.5v2.5h-1.67v1.67h5.01v-1.67h-1.67v-2.5h2.5a.836.836,0,0,0,.792-1.1Zm-6.314-.57,1.114-3.34h2.137l1.113,3.34Z" transform="translate(-375.997 -184)" fill="#0260c0"/></g><g transform="translate(0 0)"><path d="M49.6,10.927,25.389.073a.839.839,0,0,0-.683,0L.493,10.927A.836.836,0,0,0,0,11.689V21.708H1.67V12.229L25.048,1.75,48.426,12.23v9.478H50.1V11.689A.836.836,0,0,0,49.6,10.927Z" transform="translate(0 0)" fill="#0260c0"/></g></svg>