<?xml version="1.0" encoding="UTF-8" standalone="no"?>
<!DOCTYPE svg PUBLIC "-//W3C//DTD SVG 1.1//EN" "http://www.w3.org/Graphics/SVG/1.1/DTD/svg11.dtd">
<svg width="100%" height="100%" viewBox="0 0 52 53" version="1.1" xmlns="http://www.w3.org/2000/svg" xmlns:xlink="http://www.w3.org/1999/xlink" xml:space="preserve" xmlns:serif="http://www.serif.com/" style="fill-rule:evenodd;clip-rule:evenodd;stroke-linejoin:round;stroke-miterlimit:2;">
    <g transform="matrix(1,0,0,1,0,-119)">
        <g transform="matrix(1,0,0,1,0,119.946)">
            <rect id="decide-later" x="0" y="0" width="52" height="52" style="fill:none;"/>
            <g id="decide-later1" serif:id="decide-later">
                <g transform="matrix(0.952381,0,0,0.952381,1.45674,1.2381)">
                    <g transform="matrix(-0.15147,0.988462,-0.988462,-0.15147,168.554,-27.3855)">
                        <path d="M84.605,140.961L84.167,147.977L92.699,147.977C93.779,147.977 94.667,148.866 94.667,149.946C94.667,151.026 93.779,151.914 92.699,151.914L82.199,151.914C81.112,151.914 80.23,151.032 80.23,149.946L80.668,140.961C80.668,139.881 81.556,138.993 82.636,138.993C83.716,138.993 84.605,139.881 84.605,140.961Z" style="fill:rgb(8,161,226);"/>
                    </g>
                    <g transform="matrix(1,0,0,1,-56,-123.946)">
                        <path d="M84.167,136.821L84.167,147.977L92.699,147.977C93.779,147.977 94.667,148.866 94.667,149.946C94.667,151.026 93.779,151.914 92.699,151.914L82.199,151.914C81.112,151.914 80.23,151.032 80.23,149.946L80.23,136.821C80.23,135.741 81.119,134.852 82.199,134.852C83.279,134.852 84.167,135.741 84.167,136.821Z" style="fill:rgb(8,161,226);"/>
                    </g>
                    <g transform="matrix(1,0,0,1,0,-119.946)">
                        <path d="M5.211,146.678C5.203,146.435 5.199,146.191 5.199,145.946C5.199,134.425 14.678,124.946 26.199,124.946C37.719,124.946 47.199,134.425 47.199,145.946C47.199,157.466 37.719,166.946 26.199,166.946C17.956,166.946 10.757,162.092 7.329,155.111L8.035,150.501L9.91,150.789C12.017,157.787 18.552,162.946 26.199,162.946C35.525,162.946 43.199,155.272 43.199,145.946C43.199,136.62 35.525,128.946 26.199,128.946C16.873,128.946 9.199,136.62 9.199,145.946C9.199,146.198 9.204,146.449 9.215,146.699L5.211,146.678Z" style="fill:rgb(8,161,226);"/>
                    </g>
                </g>
            </g>
        </g>
    </g>
</svg>
