<?xml version="1.0" encoding="UTF-8" standalone="no"?>
<!DOCTYPE svg PUBLIC "-//W3C//DTD SVG 1.1//EN" "http://www.w3.org/Graphics/SVG/1.1/DTD/svg11.dtd">
<svg width="100%" height="100%" viewBox="0 0 53 53" version="1.1" xmlns="http://www.w3.org/2000/svg" xmlns:xlink="http://www.w3.org/1999/xlink" xml:space="preserve" xmlns:serif="http://www.serif.com/" style="fill-rule:evenodd;clip-rule:evenodd;stroke-linejoin:round;stroke-miterlimit:2;">
    <g transform="matrix(1,0,0,1,-56,-119)">
        <g transform="matrix(1,0,0,1,56.1987,119.946)">
            <rect id="exact-date" x="0" y="0" width="52" height="52" style="fill:none;"/>
            <g id="exact-date1" serif:id="exact-date">
                <g transform="matrix(1,0,0,1,-56.1987,-119.946)">
                    <path d="M71.042,124.946C72.122,124.946 73.011,125.834 73.011,126.914L73.011,130.196L91.386,130.196L91.386,126.914C91.386,125.834 92.275,124.946 93.355,124.946C94.435,124.946 95.324,125.834 95.324,126.914L95.324,130.196L95.98,130.196C99.94,130.196 103.199,133.454 103.199,137.414L103.199,159.727C103.199,163.687 99.94,166.946 95.98,166.946L68.417,166.946C64.457,166.946 61.199,163.687 61.199,159.727L61.199,137.414C61.199,133.454 64.457,130.196 68.417,130.196L69.074,130.196L69.074,126.914C69.074,125.834 69.962,124.946 71.042,124.946ZM68.417,139.383C66.606,139.383 65.136,140.853 65.136,142.664L65.136,159.727C65.136,161.538 66.606,163.008 68.417,163.008L95.98,163.008C97.791,163.008 99.261,161.538 99.261,159.727L99.261,142.664C99.261,140.853 97.791,139.383 95.98,139.383L68.417,139.383ZM78.199,150.919C78.199,148.739 79.992,146.946 82.172,146.946L82.225,146.946C84.405,146.946 86.199,148.739 86.199,150.919L86.199,150.972C86.199,153.152 84.405,154.946 82.225,154.946L82.172,154.946C79.992,154.946 78.199,153.152 78.199,150.972L78.199,150.919Z" style="fill:rgb(8,161,226);"/>
                </g>
            </g>
        </g>
    </g>
</svg>
