<?xml version="1.0" encoding="UTF-8" standalone="no"?>
<!DOCTYPE svg PUBLIC "-//W3C//DTD SVG 1.1//EN" "http://www.w3.org/Graphics/SVG/1.1/DTD/svg11.dtd">
<svg width="100%" height="100%" viewBox="0 0 53 53" version="1.1" xmlns="http://www.w3.org/2000/svg" xmlns:xlink="http://www.w3.org/1999/xlink" xml:space="preserve" xmlns:serif="http://www.serif.com/" style="fill-rule:evenodd;clip-rule:evenodd;stroke-linejoin:round;stroke-miterlimit:2;">
    <g transform="matrix(1,0,0,1,-112,-57)">
        <g transform="matrix(1,0,0,1,112.397,57.3002)">
            <rect id="family" x="0" y="0" width="52" height="52" style="fill:none;"/>
            <g id="family1" serif:id="family">
                <g transform="matrix(1,0,0,1,-112.397,-57.3002)">
                    <path d="M148.326,76.632C144.395,76.632 141.16,73.397 141.16,69.466C141.16,65.535 144.395,62.3 148.326,62.3C152.257,62.3 155.492,65.535 155.492,69.466C155.492,73.397 152.257,76.632 148.326,76.632ZM149.981,98.34C150.274,93.774 147.325,89.622 144.199,88.3C146.202,86.634 147.36,83.358 147.438,81.3C153.698,81.245 159.58,86.052 160.207,92.11C160.269,92.747 160.023,93.378 159.545,93.805C156.475,96.592 154.127,98.345 149.981,98.34ZM128.469,76.632C124.538,76.632 121.303,73.397 121.303,69.466C121.303,65.535 124.538,62.3 128.469,62.3C132.4,62.3 135.635,65.535 135.635,69.466C135.635,73.397 132.4,76.632 128.469,76.632ZM126.814,98.34C122.668,98.345 120.32,96.592 117.25,93.805C116.772,93.378 116.526,92.747 116.588,92.11C117.214,86.052 123.096,81.245 129.357,81.3C129.434,83.358 130.593,86.634 132.595,88.3C129.47,89.622 126.521,93.774 126.814,98.34ZM138.396,86.85C135.708,86.85 133.496,84.638 133.496,81.95C133.496,79.262 135.708,77.05 138.396,77.05C141.085,77.05 143.296,79.262 143.296,81.95C143.296,84.638 141.085,86.85 138.396,86.85ZM130.726,98.594C130.4,98.302 130.232,97.87 130.274,97.434C130.702,93.292 134.233,90.107 138.397,90.107C142.561,90.107 146.093,93.292 146.521,97.434C146.563,97.87 146.395,98.302 146.068,98.594C143.969,100.499 141.232,101.554 138.396,101.55C135.562,101.554 132.825,100.499 130.726,98.594Z" style="fill:rgb(8,161,226);"/>
                </g>
            </g>
        </g>
    </g>
</svg>
