<?xml version="1.0" encoding="UTF-8" standalone="no"?>
<!DOCTYPE svg PUBLIC "-//W3C//DTD SVG 1.1//EN" "http://www.w3.org/Graphics/SVG/1.1/DTD/svg11.dtd">
<svg width="100%" height="100%" viewBox="0 0 52 53" version="1.1" xmlns="http://www.w3.org/2000/svg" xmlns:xlink="http://www.w3.org/1999/xlink" xml:space="preserve" xmlns:serif="http://www.serif.com/" style="fill-rule:evenodd;clip-rule:evenodd;stroke-linejoin:round;stroke-miterlimit:2;">
    <g transform="matrix(1,0,0,1,0,-190)">
        <g transform="matrix(1,0,0,1,0,190.677)">
            <rect id="fixed-budget" x="0" y="0" width="52" height="52" style="fill:none;"/>
            <g id="fixed-budget1" serif:id="fixed-budget">
                <g transform="matrix(1,0,0,1,8.88178e-16,-190.677)">
                    <path d="M5.485,207.255C6.346,208.116 7.527,208.658 8.828,208.676C8.828,208.676 30.875,208.676 40.115,208.677C42.325,208.677 44.115,210.468 44.115,212.677C44.115,214.584 44.115,216.457 44.115,216.457C44.115,216.457 36.444,216.456 36.42,216.456C33.447,216.456 31,218.903 31,221.877C31,224.85 33.447,227.297 36.42,227.297C36.444,227.297 44.115,227.297 44.115,227.297L44.115,230.878C44.115,231.939 43.694,232.956 42.944,233.706C42.194,234.457 41.176,234.878 40.115,234.878C31.167,234.878 10.315,234.878 10.315,234.878C7.667,234.875 5.489,232.697 5.486,230.049L5.485,207.255ZM5.485,201.819C5.485,199.985 6.994,198.477 8.828,198.477C8.828,198.477 24.397,198.481 31.938,198.483C34.146,198.483 35.937,200.274 35.937,202.483C35.937,203.906 35.937,205.163 35.937,205.163L8.828,205.163C6.994,205.163 5.485,203.654 5.485,201.819ZM36.801,225.591C36.782,225.591 36.763,225.591 36.743,225.591C34.706,225.591 33.029,223.915 33.029,221.877C33.029,219.839 34.706,218.162 36.743,218.162C36.763,218.162 36.782,218.162 36.801,218.162L44.858,218.163L46.514,218.162L46.514,225.591L36.801,225.591ZM37.458,224.17C38.82,224.17 39.941,223.049 39.942,221.687C39.942,220.325 38.821,219.203 37.458,219.203C36.096,219.203 34.975,220.324 34.975,221.686C34.975,223.049 36.096,224.17 37.458,224.17ZM37.458,220.515C38.103,220.515 38.633,221.046 38.633,221.69C38.633,222.335 38.103,222.865 37.458,222.865C36.814,222.865 36.284,222.335 36.284,221.69C36.284,221.046 36.814,220.515 37.458,220.515Z" style="fill:rgb(8,161,226);"/>
                </g>
            </g>
        </g>
    </g>
</svg>
