<?xml version="1.0" encoding="UTF-8" standalone="no"?>
<!DOCTYPE svg PUBLIC "-//W3C//DTD SVG 1.1//EN" "http://www.w3.org/Graphics/SVG/1.1/DTD/svg11.dtd">
<svg width="100%" height="100%" viewBox="0 0 53 53" version="1.1" xmlns="http://www.w3.org/2000/svg" xmlns:xlink="http://www.w3.org/1999/xlink" xml:space="preserve" xmlns:serif="http://www.serif.com/" style="fill-rule:evenodd;clip-rule:evenodd;stroke-linejoin:round;stroke-miterlimit:2;">
    <g transform="matrix(1,0,0,1,-56,-190)">
        <g transform="matrix(1,0,0,1,56.1987,190.677)">
            <rect id="flexible-budget" x="0" y="0" width="52" height="52" style="fill:none;"/>
            <g id="flexible-budget1" serif:id="flexible-budget">
                <g transform="matrix(1,0,0,1,-56.1987,-190.677)">
                    <path d="M61.199,230.677L61.199,209.675C61.199,207.841 62.769,206.332 64.679,206.332L74.628,206.335L91.049,199.7C92.97,198.924 95.155,199.852 95.931,201.772L97.777,206.341L99.035,206.341C101.335,206.342 103.199,208.132 103.199,210.341L103.199,213.022L100.476,213.021L101.549,215.677L103.199,215.677L103.199,230.677C103.199,231.738 102.777,232.755 102.027,233.505C101.277,234.255 100.26,234.677 99.199,234.677L65.199,234.677C64.138,234.677 63.12,234.255 62.37,233.505C61.62,232.755 61.199,231.738 61.199,230.677ZM97.504,215.677L92.454,203.177L65.18,214.196L65.778,215.676L70.33,215.676L87.568,208.712C88.393,210.753 90.608,211.786 92.511,211.017L94.394,215.677L97.504,215.677ZM90.35,215.677L90.136,215.147C88.833,214.918 87.589,214.338 86.533,213.467C86.533,213.467 83.994,214.493 81.065,215.676L90.35,215.677ZM80.814,222.061L80.814,228.292C80.814,228.659 80.96,229.012 81.22,229.271C81.479,229.531 81.831,229.677 82.199,229.677C82.566,229.677 82.918,229.531 83.178,229.271C83.437,229.012 83.583,228.659 83.583,228.292L83.583,222.061C83.583,221.694 83.437,221.342 83.178,221.082C82.918,220.823 82.566,220.677 82.199,220.677C81.831,220.677 81.479,220.823 81.22,221.082C80.96,221.342 80.814,221.694 80.814,222.061Z" style="fill:rgb(8,161,226);"/>
                </g>
            </g>
        </g>
    </g>
</svg>
