<?xml version="1.0" encoding="UTF-8" standalone="no"?>
<!DOCTYPE svg PUBLIC "-//W3C//DTD SVG 1.1//EN" "http://www.w3.org/Graphics/SVG/1.1/DTD/svg11.dtd">
<svg width="100%" height="100%" viewBox="0 0 53 53" version="1.1" xmlns="http://www.w3.org/2000/svg" xmlns:xlink="http://www.w3.org/1999/xlink" xml:space="preserve" xmlns:serif="http://www.serif.com/" style="fill-rule:evenodd;clip-rule:evenodd;stroke-linejoin:round;stroke-miterlimit:2;">
    <g transform="matrix(1,0,0,1,-168,-57)">
        <g transform="matrix(1,0,0,1,168.596,57.3002)">
            <rect id="group" x="0" y="0" width="52" height="52" style="fill:none;"/>
            <g id="group1" serif:id="group">
                <g transform="matrix(2.38857,0,0,2.38857,2.11505,0.920008)">
                    <path d="M10,9C11.646,9 13,7.646 13,6C13,4.354 11.646,3 10,3C8.354,3 7,4.354 7,6C7,7.646 8.354,9 10,9ZM6,8C6,9.097 5.097,10 4,10C2.903,10 2,9.097 2,8C2,6.903 2.903,6 4,6C5.097,6 6,6.903 6,8ZM1.49,15.326C1.319,15.229 1.191,15.071 1.132,14.884C1.043,14.597 0.998,14.299 0.998,13.999C0.998,12.353 2.353,10.999 3.998,10.999C4.502,10.999 4.998,11.126 5.44,11.368C4.364,12.426 3.69,13.826 3.535,15.327C3.512,15.549 3.521,15.769 3.56,15.981C2.83,15.918 2.123,15.694 1.49,15.326ZM16.44,15.98C17.17,15.917 17.877,15.694 18.51,15.326C18.68,15.229 18.808,15.071 18.867,14.884C18.956,14.597 19.001,14.298 19.001,13.998C19.001,12.352 17.647,10.998 16.001,10.998C15.497,10.998 15.001,11.125 14.559,11.367C15.636,12.424 16.311,13.826 16.466,15.327C16.488,15.545 16.48,15.765 16.44,15.981L16.44,15.98ZM18,8C18,9.097 17.097,10 16,10C14.903,10 14,9.097 14,8C14,6.903 14.903,6 16,6C17.097,6 18,6.903 18,8ZM5.304,16.19C5.104,16.011 5.001,15.747 5.027,15.48C5.289,12.944 7.451,10.994 10,10.994C12.55,10.994 14.712,12.944 14.974,15.48C15,15.747 14.897,16.011 14.697,16.19C13.412,17.357 11.736,18.002 10,18C8.264,18.002 6.589,17.356 5.304,16.19Z" style="fill:rgb(8,161,226);fill-rule:nonzero;"/>
                </g>
            </g>
        </g>
    </g>
</svg>
