<?xml version="1.0" encoding="UTF-8" standalone="no"?>
<!DOCTYPE svg PUBLIC "-//W3C//DTD SVG 1.1//EN" "http://www.w3.org/Graphics/SVG/1.1/DTD/svg11.dtd">
<svg width="100%" height="100%" viewBox="0 0 320 320" version="1.1" xmlns="http://www.w3.org/2000/svg" xmlns:xlink="http://www.w3.org/1999/xlink" xml:space="preserve" xmlns:serif="http://www.serif.com/" style="fill-rule:evenodd;clip-rule:evenodd;stroke-linejoin:round;stroke-miterlimit:2;">
    <g transform="matrix(1,0,0,1,-800,-439.996)">
        <g id="BG">
        </g>
        <g id="LINE-LOGO" serif:id="LINE LOGO">
            <g transform="matrix(1,0,0,1,1047.86,439.996)">
                <path d="M0,320L-175.719,320C-215.562,320 -247.859,287.701 -247.859,247.859L-247.859,72.141C-247.859,32.299 -215.562,0 -175.719,0L0,0C39.843,0 72.141,32.299 72.141,72.141L72.141,247.859C72.141,287.701 39.843,320 0,320" style="fill:rgb(6,199,85);fill-rule:nonzero;"/>
            </g>
            <g transform="matrix(1,0,0,1,1066.66,618.349)">
                <path d="M0,-33.428C0,-81.168 -47.859,-120.008 -106.688,-120.008C-165.513,-120.008 -213.377,-81.168 -213.377,-33.428C-213.377,9.37 -175.422,45.214 -124.151,51.989C-120.678,52.74 -115.948,54.281 -114.753,57.251C-113.677,59.947 -114.049,64.173 -114.407,66.897C-114.407,66.897 -115.659,74.426 -115.931,76.031C-116.396,78.726 -118.075,86.58 -106.688,81.783C-95.302,76.984 -45.248,45.603 -22.864,19.842L-22.869,19.842C-7.408,2.885 0,-14.323 0,-33.428" style="fill:white;fill-rule:nonzero;"/>
            </g>
            <g transform="matrix(1,0,0,1,1031.16,561.851)">
                <path d="M0,50.635L-29.974,50.635C-31.099,50.635 -32.011,49.724 -32.011,48.598L-32.011,2.037C-32.011,0.912 -31.099,0 -29.974,0L0,0C1.12,0 2.037,0.916 2.037,2.037L2.037,9.603C2.037,10.728 1.125,11.64 0,11.64L-20.37,11.64L-20.37,19.497L0,19.497C1.12,19.497 2.037,20.414 2.037,21.534L2.037,29.101C2.037,30.226 1.125,31.138 0,31.138L-20.37,31.138L-20.37,38.995L0,38.995C1.12,38.995 2.037,39.911 2.037,41.031L2.037,48.598C2.037,49.724 1.125,50.635 0,50.635" style="fill:rgb(6,199,85);fill-rule:nonzero;"/>
            </g>
            <g transform="matrix(1,0,0,1,920.289,561.851)">
                <path d="M0,50.635C1.125,50.635 2.037,49.724 2.037,48.598L2.037,41.031C2.037,39.911 1.12,38.995 0,38.995L-20.371,38.995L-20.371,2.037C-20.371,0.916 -21.287,0 -22.407,0L-29.974,0C-31.099,0 -32.011,0.912 -32.011,2.037L-32.011,48.598C-32.011,49.724 -31.099,50.635 -29.974,50.635L0,50.635Z" style="fill:rgb(6,199,85);fill-rule:nonzero;"/>
            </g>
            <g transform="matrix(1,0,0,1,938.333,612.487)">
                <path d="M0,-50.636L-7.565,-50.636C-8.69,-50.636 -9.603,-49.723 -9.603,-48.599L-9.603,-2.037C-9.603,-0.912 -8.69,0 -7.565,0L0,0C1.126,0 2.037,-0.912 2.037,-2.037L2.037,-48.599C2.037,-49.723 1.126,-50.636 0,-50.636" style="fill:rgb(6,199,85);fill-rule:nonzero;"/>
            </g>
            <g transform="matrix(1,0,0,1,989.842,612.487)">
                <path d="M0,-50.636L-7.566,-50.636C-8.691,-50.636 -9.603,-49.723 -9.603,-48.599L-9.603,-20.944L-30.906,-49.713C-30.956,-49.787 -31.012,-49.857 -31.07,-49.923C-31.074,-49.928 -31.078,-49.933 -31.083,-49.938C-31.122,-49.982 -31.163,-50.025 -31.206,-50.065L-31.244,-50.1C-31.28,-50.132 -31.316,-50.163 -31.354,-50.194L-31.41,-50.235C-31.444,-50.26 -31.48,-50.284 -31.518,-50.309C-31.538,-50.322 -31.559,-50.334 -31.58,-50.346C-31.617,-50.368 -31.654,-50.389 -31.692,-50.408C-31.714,-50.419 -31.735,-50.43 -31.757,-50.44C-31.796,-50.458 -31.836,-50.475 -31.876,-50.491C-31.898,-50.499 -31.92,-50.507 -31.942,-50.515C-31.983,-50.53 -32.024,-50.543 -32.066,-50.555C-32.09,-50.562 -32.114,-50.568 -32.139,-50.574C-32.179,-50.583 -32.219,-50.592 -32.26,-50.6C-32.288,-50.605 -32.317,-50.609 -32.346,-50.614C-32.383,-50.618 -32.419,-50.623 -32.456,-50.626C-32.492,-50.63 -32.528,-50.631 -32.564,-50.632C-32.588,-50.633 -32.611,-50.636 -32.635,-50.636L-40.159,-50.636C-41.284,-50.636 -42.196,-49.723 -42.196,-48.599L-42.196,-2.037C-42.196,-0.912 -41.284,0 -40.159,0L-32.593,0C-31.468,0 -30.556,-0.912 -30.556,-2.037L-30.556,-29.683L-9.226,-0.878C-9.079,-0.67 -8.899,-0.5 -8.7,-0.365C-8.692,-0.36 -8.685,-0.354 -8.677,-0.349C-8.636,-0.321 -8.592,-0.295 -8.549,-0.271C-8.529,-0.26 -8.51,-0.248 -8.489,-0.239C-8.457,-0.221 -8.425,-0.205 -8.391,-0.191C-8.357,-0.175 -8.325,-0.161 -8.291,-0.148C-8.27,-0.139 -8.248,-0.131 -8.227,-0.124C-8.181,-0.108 -8.134,-0.092 -8.086,-0.079C-8.076,-0.076 -8.066,-0.073 -8.057,-0.072C-7.887,-0.027 -7.709,0 -7.524,0L0,0C1.125,0 2.037,-0.912 2.037,-2.037L2.037,-48.599C2.037,-49.723 1.125,-50.636 0,-50.636" style="fill:rgb(6,199,85);fill-rule:nonzero;"/>
            </g>
        </g>
    </g>
</svg>
