<svg xmlns="http://www.w3.org/2000/svg" viewBox="0 0 57.97 46.33"><defs><style>.cls-1{fill:#0260c0;stroke:#0260c0;stroke-miterlimit:10;stroke-width:0.25px;}</style></defs><title>Lodging Level</title><g id="Layer_2" data-name="Layer 2"><g id="Capa_1" data-name="Capa 1"><path class="cls-1" d="M55.18,15.66c-1.56,0-2.66.66-2.66,1.61v4.38l-.47-.93c-1.65-3.27-4-5.06-6.57-5.06H18.32a.72.72,0,0,0-.73.72v11.1l-.43-.41a2.53,2.53,0,0,0-1.39-.7l-.45-.08.31-.34a5.56,5.56,0,0,0,1.46-3.74v0A5.57,5.57,0,1,0,7.4,25.93l.33.37-.49.06A2.55,2.55,0,0,0,5.86,27l-.41.35V2.21C5.45,1.05,4.28.12,2.78.12A2.41,2.41,0,0,0,.12,2.21V44.12c0,1.18,1.17,2.09,2.66,2.09s2.67-.91,2.67-2.09V37.48H52.52V44.6c0,.95,1.1,1.61,2.66,1.61s2.66-.66,2.66-1.61V17.27C57.84,16.32,56.75,15.66,55.18,15.66ZM4,44.16c0,.26-.52.61-1.23.61s-1.19-.36-1.21-.61V2.21c0-.28.5-.64,1.21-.64S4,1.93,4,2.18ZM19,17.1H45.48c3.93,0,6.7,5.66,7,10.91l0,.26H19ZM7.39,22.2a4.14,4.14,0,0,1,4.13-4.13,4,4,0,0,1,3.2,1.53,4.11,4.11,0,0,1-2.32,6.64,4.31,4.31,0,0,1-.88.09A4.11,4.11,0,0,1,7.39,22.2ZM52.52,36H5.45V29.73l.22,0A.72.72,0,0,0,6.34,29a1.22,1.22,0,0,1,1.18-1.22h7.84A1.21,1.21,0,0,1,16.54,29a.73.73,0,0,0,.72.72H52.52Zm3.88,8.48-.16.06a3,3,0,0,1-2.11,0L54,44.52V17.34l.17-.05a3.06,3.06,0,0,1,2.11,0l.16.05Z"/></g></g></svg>