<svg xmlns="http://www.w3.org/2000/svg" viewBox="0 0 96.38 80.24"><defs><style>.cls-1{fill:#3860ad;}.cls-2{fill:#fff;}.cls-3{fill:#ed2c26;}</style></defs><title>nma</title><g id="Layer_2" data-name="Layer 2"><g id="Layer_1-2" data-name="Layer 1"><path class="cls-1" d="M35.19,69.35a1.87,1.87,0,0,0-1.4,1.88c-.07.78,0,1.57,0,2.35v2.36a4.77,4.77,0,0,1-1.45-.33c-2.16-1.45-5.95-4.89-7-4.89,0,0-.29,4.89.56,5.22H23.79c.75-.1.58-3.16.58-5.29,0-.6-.83-1.26-1.79-1.48a18.58,18.58,0,0,1,3.23.32,7.43,7.43,0,0,1,2.42,1.57c1.41,1,2.92,2,4.62,3.12-.12-1.71.34-4.26-1-4.83Z"/><path class="cls-1" d="M55.13,75.38l2.12.9H51.92a1.33,1.33,0,0,0-.05-.19l1.3-.32V71.23l-.9,1-3.69,4.14L43.82,71v4.79c.38.09.87.17,1.35.28,0,.07,0,.15,0,.22H40.63l2.12-.84V70.19l-2.24-.8c1.59-.19,2.8-.07,4-.12,1.55,1.77,3.07,3.53,4.57,5.25,1-1.21,2-2.37,3.18-3.7,0,0,.81-1,1.12-1.47h3.87c-.92.4-1.55.65-2.13.89Z"/><path class="cls-1" d="M74.56,75.8l-5.18-6.62s-4.58,5.55-4.95,6.09-1.09.58-2,1H66.8l-1.3-.6L66.58,74h4.47l1.31,1.55-1.31.72H76a1.62,1.62,0,0,1,0-.22Zm-7.71-2.2,1.89-2.75,2,2.75Z"/><path class="cls-1" d="M96.36,68.79a6.34,6.34,0,0,0-.29-1.54c-.78-3-2.86-5.16-4.43-7.64s-3.47-5-5.24-7.55-3.67-5.28-5.51-7.89c-1.55-2.2-3.09-4.41-4.64-6.63C74.49,35,72.75,32.52,71,30c-1.51-2.15-3-4.31-4.51-6.45Q63.3,19,60.13,14.39c-1.88-2.71-3.87-5.34-5.66-8.1-1.06-1.62-2.36-3.09-3.38-4.75A2.87,2.87,0,0,0,46.77.62a8.13,8.13,0,0,0-1.36,1.79c-2,2.8-4.06,5.58-6,8.41-1.68,2.37-3.14,4.9-4.9,7.2-2,2.54-3.65,5.29-5.51,7.92s-3.57,5.17-5.41,7.69c-2.64,3.57-5.1,7.25-7.74,10.82-2.27,3-4.4,6.21-6.55,9.36-2,2.95-4,5.92-6.11,8.82a17.19,17.19,0,0,0-3,7.05A39.49,39.49,0,0,0,.12,76.3c0,.2.18.39.27.59a4.68,4.68,0,0,0,3.15,3.3H91.11a5.32,5.32,0,0,0,1.65,0,9.11,9.11,0,0,0,2.75-1.33,3,3,0,0,0,.87-2.46C96.33,73.84,96.38,71.31,96.36,68.79Zm-.94,8.32c-.54.52-1.12,1-1.6,1.51-3.5,1-7,.52-10.51.59s-7.11,0-10.66,0q-31.5,0-63,0c-2.15,0-4.35.34-6.63-.63-.38-.37-.93-.94-1.49-1.5,0-2.35.07-4.72,0-7.1a10.16,10.16,0,0,1,1.86-5.63C5.49,60.93,44,6,45.59,3.44A6.18,6.18,0,0,1,48.46,1c1.26.3,4.2,4.62,5.07,5.78C53.68,7,79.18,44.12,82,47.59c2,2.5,3.59,5.3,5.41,7.93s3.59,5,5.34,7.5a12.68,12.68,0,0,1,2.71,7.65C95.39,72.8,95.42,74.93,95.42,77.11Z"/><path class="cls-2" d="M95.42,70.67A12.68,12.68,0,0,0,92.71,63c-1.75-2.52-3.6-5-5.34-7.5S83.94,50.09,82,47.59C79.18,44.12,53.68,7,53.53,6.78,52.66,5.62,49.72,1.3,48.46,1a6.18,6.18,0,0,0-2.87,2.44C44,6,5.49,60.93,3.37,64.35A10.16,10.16,0,0,0,1.51,70c.09,2.38,0,4.75,0,7.1.56.56,1.11,1.13,1.49,1.5,2.28,1,4.48.63,6.63.63q31.5.06,63,0c3.55,0,7.11,0,10.66,0s7,.45,10.51-.59c.48-.46,1.06-1,1.6-1.51C95.42,74.93,95.39,72.8,95.42,70.67Zm-61.63.56c-.07.78,0,1.57,0,2.35v2.36a4.77,4.77,0,0,1-1.45-.33c-2.16-1.45-5.95-4.89-7-4.89,0,0-.29,4.89.56,5.22H23.79c.75-.1.58-3.16.58-5.29,0-.6-.83-1.26-1.79-1.48a18.58,18.58,0,0,1,3.23.32,7.43,7.43,0,0,1,2.42,1.57c1.41,1,2.92,2,4.62,3.12-.12-1.71.34-4.26-1-4.83h3.36A1.87,1.87,0,0,0,33.79,71.23Zm23.46,5H51.92a1.33,1.33,0,0,0-.05-.19l1.3-.32V71.23l-.9,1-3.69,4.14L43.82,71v4.79c.38.09.87.17,1.35.28,0,.07,0,.15,0,.22H40.63l2.12-.84V70.19l-2.24-.8c1.59-.19,2.8-.07,4-.12,1.55,1.77,3.07,3.53,4.57,5.25,1-1.21,2-2.37,3.18-3.7,0,0,.81-1,1.12-1.47h3.87c-.92.4-1.55.65-2.13.89v5.14Zm18.73,0H71.05l1.31-.72L71.05,74H66.58L65.5,75.68l1.3.6H62.42c.92-.43,1.72-.56,2-1s4.95-6.09,4.95-6.09l5.18,6.62,1.43.26A1.62,1.62,0,0,0,76,76.28ZM4.74,66.79,48.55,3.06v.38L70.86,36.89H61.17l19.55,29.9Z"/><polygon class="cls-2" points="70.77 73.6 66.85 73.6 68.74 70.85 70.77 73.6"/><polygon class="cls-1" points="48.55 3.06 48.55 66.79 4.74 66.79 48.55 3.06"/><polygon class="cls-3" points="48.91 66.43 48.91 4.64 70.18 36.52 60.5 36.52 80.05 66.43 48.91 66.43"/><path class="cls-1" d="M49.28,5.84,69.5,36.16H59.82l.74,1.13L79.37,66.06H49.28V5.84m-.73-2.4V66.79H80.72L61.17,36.89h9.69L48.55,3.44Z"/><path class="cls-2" d="M55,32.73a5.09,5.09,0,0,0,5.09-5.09,5.45,5.45,0,0,1-2.29,2.69L57.37,30l.85-.64-1-.27.55-.92-1.07.15.16-1-.92.55-.27-1-.64.85-.63-.85-.27,1-.92-.55.16,1.07-1.07-.16.56.92-1,.27.85.64-.43.32a5.34,5.34,0,0,1-2.29-2.69A5.09,5.09,0,0,0,55,32.74Z"/><path class="cls-2" d="M53.94,52.58l-2.16-.27L53.09,54l-2,.86,2,.84-1.31,1.73,2.16-.26-.27,2.16,1.73-1.31.86,2,.84-2,1.74,1.31-.26-2.15,2.15.27-1.3-1.74,2-.84-2-.86,1.3-1.73-2.15.27.26-2.16-1.73,1.31-.85-2-.85,2-1.74-1.31.27,2.16Z"/></g></g></svg>