<svg xmlns="http://www.w3.org/2000/svg" viewBox="0 0 94.83 96.4"><defs><style>.cls-1{fill:#363e8f;}.cls-2{fill:#dc1f2f;}</style></defs><title>ntb</title><g id="Layer_2" data-name="Layer 2"><g id="Layer_1-2" data-name="Layer 1"><path class="cls-1" d="M39.25,58.49c.4-.68.76-1.34,1.16-2a.78.78,0,0,1,.53-.22c.62,0,1.24,0,1.86,0,.93-.05,1.09-.23,1.09-1.15V44.82h1.78V55.39l.18.06c.95-.75,1.9-1.49,2.84-2.25q6.74-5.37,13.46-10.75a3,3,0,0,1,2.38-.51,5.48,5.48,0,0,1,3.09,1.78c4.38,4.41,8.83,8.75,13.26,13.12l.44.39L85.06,54c.68-.59.92-.61,1.69-.06,1.53,1.09,3,2.2,4.57,3.3,1,.74,2,1.48,3.07,2.2a.92.92,0,0,1,.44.88c0,1,0,2,0,3.14-.73-.53-1.39-1-2-1.49l-6.19-4.64a1.27,1.27,0,0,0-1.76.29c-2.58,2.53-5.19,5-7.73,7.61-2,2.06-4,4.2-5.94,6.32a1,1,0,0,0-.2.8A10.3,10.3,0,0,0,72,74.53a37.59,37.59,0,0,1,4.29,8.69,64.56,64.56,0,0,1,3.28,13.06l-2.44.12c-.21-1-.41-2.08-.63-3.12a53.43,53.43,0,0,0-7.61-18.81A38.2,38.2,0,0,0,56.49,62.4a27.87,27.87,0,0,0-11-3.64c-1.86-.2-3.75-.19-5.62-.27C39.64,58.48,39.44,58.49,39.25,58.49ZM58.43,46.7a.75.75,0,0,0,.25.49,8.65,8.65,0,0,0,1.07,1.11c1.28,1,1.4,1.2,2.67-.24,1-1.14,1-1.16,2.29-.39a1,1,0,0,0,1.27,0c1-.81,1.42-.8,2.39,0,.41.34.84.67,1.27,1a.52.52,0,0,0,.84-.14c.21-.34.31-.67,0-1-.52-.46-1-1-1.5-1.54-.92-.94-1.84-1.92-2.83-2.77a3.07,3.07,0,0,0-3.46-.51c-1.2.86-2.34,1.77-3.48,2.7A2,2,0,0,0,58.43,46.7Z"/><path class="cls-1" d="M44,75.59H2.17c.9-.65,1.69-1.23,2.48-1.79q5.82-4.12,11.63-8.22a1.27,1.27,0,0,1,.67-.22q6.57,0,13.14,0a1.2,1.2,0,0,1,.68.19l13.07,9.83.21.11Z"/><path class="cls-1" d="M68.8,89a1.85,1.85,0,0,1,1,1.63v2.73c0,2-.22,2.91-2.48,2.91H53.71V82.06l13.61,0c1.94,0,2.48.37,2.48,2.27v3C69.8,88.23,69.58,88.72,68.8,89Zm-3,3.7V91.56c0-.84-.07-.93-.92-.93H58V92.7ZM58,85.41v2.08h6.85c.85,0,.92-.1.92-.93V85.41Z"/><polygon class="cls-1" points="19.44 96.25 15.32 96.25 5.76 88.25 5.76 96.25 1.81 96.26 1.81 82.09 5.76 82.09 15.32 90.19 15.32 82.09 19.44 82.09 19.44 96.25"/><path class="cls-1" d="M9.18,56.35l6.74-6a17.4,17.4,0,0,0,1.43-1.28,2.38,2.38,0,0,1,2-.78c2.19.05,4.38,0,6.57,0,.82,0,.89,0,.94-.85s0-1.61,0-2.42c0-.12,0-.24,0-.4h1.47c.07,1.59.17,3.17.21,4.76a1.24,1.24,0,0,0,.52,1c2.27,1.84,4.54,3.71,6.81,5.56.1.08.18.17.34.31Z"/><path class="cls-2" d="M1.92,79.37c.15-.82-.32-1.17-.94-1.44s-1-.51-1-1.14A2.15,2.15,0,0,1,1,75a3.5,3.5,0,0,1,.19.62.89.89,0,0,0,1,.87q12.5,0,25,0c5.41,0,10.83,0,16.24,0a4.12,4.12,0,0,0,3.62-1.86,1.46,1.46,0,0,1,.24,1.89,5.37,5.37,0,0,1-.74,1,2.45,2.45,0,0,0-.77,1.93Z"/><path class="cls-2" d="M7.43,55.19c.16.31.33.61.46.93a1.64,1.64,0,0,0,1.72,1.11q12.83,0,25.66,0a3.67,3.67,0,0,0,2.81-.92,10.19,10.19,0,0,1,1.3-.93,2.5,2.5,0,0,1-1.14,2.78c-.53.3-1,.58-.72,1.51-.82,0-1.51,0-2.2,0a1.85,1.85,0,0,0-1.69.61c-1.15,1.25-2.36,2.43-3.58,3.61a1.34,1.34,0,0,1-.85.34c-3.72,0-7.44,0-11.16,0a1.43,1.43,0,0,1-.82-.29c-1.58-1.24-3.11-2.52-4.69-3.76a2.1,2.1,0,0,0-1.06-.39c-.94-.1-1.89-.13-2.83-.18l.09-.17A3.51,3.51,0,0,0,8,58.89,2.13,2.13,0,0,1,6.73,56.7C6.84,55.74,7,55.45,7.43,55.19Zm8,4.73-.14.19c.78.74,1.58,1.46,2.33,2.22a1.47,1.47,0,0,0,1.13.48c3,0,5.92-.06,8.87,0a2.72,2.72,0,0,0,2.5-1.07c.48-.62,1.08-1.15,1.72-1.83Z"/><polygon class="cls-1" points="45.16 85.42 38.66 85.42 38.66 96.29 34.33 96.29 34.33 85.42 27.93 85.42 27.93 82.11 45.16 82.11 45.16 85.42"/><path class="cls-2" d="M46.58,41.69V44H26V41.62H30.1c1.08,0,1.19-.09,1.11-1.2a1.36,1.36,0,0,1,.55-1.27c1.28-1,2.52-2.13,3.76-3.23a.54.54,0,0,1,.84,0c1.4,1.12,2.81,2.24,4.25,3.31a1.44,1.44,0,0,1,.7,1.43c-.06.83,0,.83.82.86ZM36.06,37.86l-2.82,3.21H39Z"/><path class="cls-1" d="M42.87,32.46l.29,1.73H29.6a11.88,11.88,0,0,1,.33-1.45c.05-.15.37-.27.57-.27,1.81,0,3.63,0,5.45,0Z"/><path class="cls-1" d="M39.25,5.08V6.87c-.61.18-1.69-.41-1.57,1H35.21c-.32-1-.49-1.06-1.6-1V5.14a.69.69,0,0,1,.15-.07c1.29-.1,1.29-.1,1.6-1.35.27-1.08.56-2.15.84-3.23A.86.86,0,0,1,36.53,0l.66,2.72c.13.54.28,1.07.37,1.62a.76.76,0,0,0,.93.74C38.73,5.06,39,5.08,39.25,5.08Z"/><path class="cls-1" d="M30.45,30.7a.25.25,0,0,1,0-.07C30.65,29,30.65,29,32.25,29h9.87l.32,1.66Z"/><path class="cls-1" d="M30.94,27.63l.28-1.32H41.49l.33,1.32Z"/><path class="cls-1" d="M31.7,24.76l.17-1.17H41l.26,1.17Z"/><path class="cls-1" d="M40.48,21.1l.11.88H32.22l.17-.88Z"/><path class="cls-1" d="M43.83,37.69c-.85,0-1.71,0-2.57,0a.74.74,0,0,1-.43-.18c-.52-.45-1-.92-1.55-1.38l.13-.15c1.05-.09,2.85-.11,3.91-.15Z"/><path class="cls-1" d="M29.23,35.84h4.39c-.65.66-1.2,1.25-1.78,1.8-.11.1-.36,0-.54.06H28.83Z"/><path class="cls-1" d="M36.43,54.38a12.58,12.58,0,0,0-.74-1.11c-.44-.54-.44-.78.12-1.22.31-.24.64-.45.95-.68L36.54,51a1.82,1.82,0,0,0-.59.14,1.07,1.07,0,0,1-1.49-.07,1.44,1.44,0,0,1,.1-1.56,1.7,1.7,0,0,1,2.34-.18,1.29,1.29,0,0,1,.31.91,2.89,2.89,0,0,1-1.28,2.31c.23.53.45,1,.64,1.52C36.59,54.18,36.47,54.31,36.43,54.38Zm-1-4.83,1.19,1c.11-.44.13-.86-.35-1A2.41,2.41,0,0,0,35.46,49.55Zm.42.94c0-.38-.68-.27-1-.38-.2.46-.19.81.36,1C35.45,50.94,35.88,50.87,35.88,50.49Z"/><path class="cls-1" d="M39.92,18.75l.12.71H32.76l.16-.71Z"/><path class="cls-1" d="M24.14,47h-3l1.48-2.85Z"/><path class="cls-1" d="M39.5,16.73l.08.58H33.23l.11-.58Z"/><path class="cls-1" d="M33.72,15l0-.53s.08-.08.11-.08c1.59,0,3.18,0,4.76,0,.2,0,.38.29.57.45l-.11.15Z"/><path class="cls-1" d="M29.91,48.4c.44-.73,1.09-.68,1.77-.65a10.35,10.35,0,0,1,1.57,0,2,2,0,0,1,1.15.73c.16.27-.2.63-.69.51,0-.46-.11-.88-.66-.74-.35.09-.6.61-1,.61s-.38-.64-.64-.84c-.09-.07-.43.2-.71.34l.34.57C30.72,49.05,30.72,49.05,29.91,48.4Z"/><path class="cls-1" d="M41.16,49.21c-.2-.24-.36-.56-.62-.66s-.45.26-.62.46c-.35.42-.62.42-.81,0-.12-.29-.18-.56-.59-.39s-.6.35-.34.77c0,0,0,.12-.06.34-.26-.22-.55-.36-.62-.57s.16-.43.33-.58a1,1,0,0,1,1.11-.25,4.1,4.1,0,0,0,1.4,0,2.37,2.37,0,0,1,.84,0,3.23,3.23,0,0,1,.72.67l-.7.47Z"/><path class="cls-1" d="M34.75,47.35c-1,0-1.43-1.08-2.41-.91A4.67,4.67,0,0,0,30,47.1L29.78,47c.1-.16.16-.37.29-.47a4.07,4.07,0,0,1,4.31.22A2.86,2.86,0,0,1,34.75,47.35Z"/><path class="cls-1" d="M38.26,11.23h-3.7l.06-.63c1.1,0,2.18,0,3.25,0,.17,0,.34.31.51.47Z"/><path class="cls-1" d="M44.46,40.12H42.17v-.9c.49,0,1-.06,1.43-.07C44.35,39.13,44.48,39.29,44.46,40.12Z"/><path class="cls-1" d="M38.63,13H34.14l-.08-.18c.18-.11.36-.3.55-.31,1.21,0,2.43,0,3.65,0C38.62,12.48,38.76,12.6,38.63,13Z"/><path class="cls-1" d="M28.29,40.11c-.24-1,.4-1,2.11-.88v.88Z"/><path class="cls-1" d="M37.79,8.84l.16.54H34.84c.2-.74.79-.61,1.29-.61S37.21,8.81,37.79,8.84Z"/><path class="cls-1" d="M42.1,47.5c-1.51-1.59-3-.81-4.48.06l0-.19a3.74,3.74,0,0,1,.63-.5,3.94,3.94,0,0,1,3.67-.16C42.24,46.88,42.25,46.94,42.1,47.5Z"/><path class="cls-2" d="M36.17,47.07c-.4,0-.63-.43-.69-.71s.26-.71.66-.72.78.21.74.66C36.85,46.58,36.57,47.07,36.17,47.07Z"/></g></g></svg>