<?xml version="1.0" encoding="UTF-8" standalone="no"?>
<!DOCTYPE svg PUBLIC "-//W3C//DTD SVG 1.1//EN" "http://www.w3.org/Graphics/SVG/1.1/DTD/svg11.dtd">
<svg width="100%" height="100%" viewBox="0 0 109 25" version="1.1" xmlns="http://www.w3.org/2000/svg" xmlns:xlink="http://www.w3.org/1999/xlink" xml:space="preserve" xmlns:serif="http://www.serif.com/" style="fill-rule:evenodd;clip-rule:evenodd;stroke-linejoin:round;stroke-miterlimit:2;">
    <g transform="matrix(0.568776,0,0,1,0,0)">
        <rect id="Artboard1" x="0" y="0" width="190.09" height="24.26" style="fill:none;"/>
        <g id="Artboard11" serif:id="Artboard1">
            <g id="Layer_2" transform="matrix(1.75816,0,0,1,0,0)">
                <rect x="0" y="0.38" width="36.92" height="23.5" style="fill:rgb(34,33,94);"/>
                <path d="M21.86,12.13C21.86,17.808 17.188,22.48 11.51,22.48C5.832,22.48 1.16,17.808 1.16,12.13C1.16,6.452 5.832,1.78 11.51,1.78C17.188,1.78 21.86,6.452 21.86,12.13Z" style="fill:rgb(237,27,46);fill-rule:nonzero;"/>
                <path d="M25.41,1.78C22.841,1.777 20.362,2.733 18.46,4.46C18.085,4.802 17.734,5.169 17.41,5.56L19.5,5.56C19.789,5.904 20.053,6.268 20.29,6.65L16.62,6.65C16.388,7.002 16.18,7.369 16,7.75L20.86,7.75C21.027,8.105 21.174,8.469 21.3,8.84L15.59,8.84C15.47,9.201 15.37,9.568 15.29,9.94L21.63,9.94C22.018,11.761 21.914,13.652 21.33,15.42L15.59,15.42C15.702,15.792 15.839,16.156 16,16.51L20.86,16.51C20.682,16.888 20.482,17.255 20.26,17.61L16.62,17.61C16.863,17.991 17.127,18.358 17.41,18.71L19.5,18.71C19.192,19.096 18.858,19.46 18.5,19.8C20.406,21.537 22.893,22.5 25.471,22.5C31.149,22.5 35.821,17.828 35.821,12.15C35.821,6.483 31.167,1.816 25.5,1.8L25.41,1.78Z" style="fill:rgb(252,177,49);fill-rule:nonzero;"/>
                <path d="M34.38,17.9C34.38,17.719 34.529,17.57 34.71,17.57C34.891,17.57 35.04,17.719 35.04,17.9C35.04,18.081 34.891,18.23 34.71,18.23C34.529,18.23 34.38,18.081 34.38,17.9ZM34.71,18.15C34.847,18.15 34.96,18.037 34.96,17.9C34.96,17.763 34.847,17.65 34.71,17.65C34.573,17.65 34.46,17.763 34.46,17.9C34.46,18.037 34.573,18.15 34.71,18.15ZM34.71,18.05L34.6,18.05L34.6,17.75L34.72,17.75C34.746,17.741 34.774,17.741 34.8,17.75C34.811,17.772 34.811,17.798 34.8,17.82C34.812,17.845 34.812,17.875 34.8,17.9L34.86,18.03L34.78,18.03L34.78,17.91L34.71,18.05ZM34.71,17.88L34.79,17.88L34.71,17.88Z" style="fill:rgb(252,177,49);fill-rule:nonzero;"/>
                <path d="M9.09,13.26L8.84,13.26C8.21,13.26 7.84,13.47 7.84,13.91C7.839,13.923 7.838,13.937 7.838,13.951C7.838,14.165 8.014,14.341 8.228,14.341C8.235,14.341 8.243,14.34 8.25,14.34C8.74,14.33 9.07,13.9 9.09,13.26ZM9.91,15.17L9,15.17L9,14.72C8.715,15.075 8.274,15.269 7.82,15.24C7.815,15.24 7.81,15.24 7.805,15.24C7.257,15.24 6.805,14.789 6.805,14.24C6.805,14.183 6.81,14.126 6.82,14.07C6.82,13.07 7.54,12.43 8.82,12.43L9.28,12.43C9.291,12.337 9.291,12.243 9.28,12.15C9.28,11.87 9.09,11.76 8.56,11.76C8.155,11.765 7.754,11.832 7.37,11.96C7.37,11.89 7.53,10.96 7.53,10.96C7.962,10.813 8.414,10.735 8.87,10.73C9.87,10.73 10.35,11.16 10.35,11.98C10.338,12.265 10.308,12.549 10.26,12.83C10.15,13.52 9.94,14.84 9.91,15.17Z" style="fill:rgb(0,52,115);fill-rule:nonzero;"/>
                <path d="M6.33,15.17L5.2,15.17L5.85,11.13L4.41,15.17L3.65,15.17L3.55,11.15L2.87,15.17L1.82,15.17L2.7,9.92L4.32,9.92L4.41,12.86L5.4,9.92L7.2,9.92L6.33,15.17Z" style="fill:rgb(0,52,115);fill-rule:nonzero;"/>
                <path d="M26.79,13.26L26.54,13.26C25.91,13.26 25.59,13.47 25.59,13.91C25.589,13.923 25.588,13.937 25.588,13.95C25.588,14.164 25.764,14.34 25.978,14.34C25.982,14.34 25.986,14.34 25.99,14.34C26.45,14.33 26.78,13.9 26.79,13.26ZM27.61,15.17L26.68,15.17L26.68,14.72C26.397,15.072 25.961,15.266 25.51,15.24C24.951,15.217 24.503,14.751 24.503,14.191C24.503,14.15 24.505,14.11 24.51,14.07C24.51,13.07 25.24,12.43 26.51,12.43L26.97,12.43C26.981,12.337 26.981,12.243 26.97,12.15C26.97,11.87 26.78,11.76 26.25,11.76C25.845,11.765 25.444,11.832 25.06,11.96C25.06,11.89 25.22,10.96 25.22,10.96C25.652,10.813 26.104,10.735 26.56,10.73C27.56,10.73 28.04,11.16 28.04,11.98C28.028,12.265 27.998,12.549 27.95,12.83C27.85,13.52 27.64,14.84 27.61,15.17Z" style="fill:rgb(0,52,115);fill-rule:nonzero;"/>
                <path d="M14.9,15.1C14.643,15.192 14.373,15.239 14.1,15.24C14.074,15.243 14.047,15.244 14.021,15.244C13.571,15.244 13.201,14.874 13.201,14.424C13.201,14.382 13.204,14.341 13.21,14.3C13.237,13.917 13.287,13.537 13.36,13.16C13.43,12.77 13.85,10.25 13.85,10.25L15,10.25L14.87,10.9L15.54,10.9L15.39,11.9L14.71,11.9C14.58,12.71 14.4,13.73 14.4,13.9C14.4,14.07 14.51,14.22 14.78,14.22C14.88,14.234 14.98,14.234 15.08,14.22L14.9,15.1Z" style="fill:rgb(0,52,115);fill-rule:nonzero;"/>
                <path d="M18.33,15.07C17.957,15.182 17.57,15.239 17.18,15.24C17.109,15.249 17.037,15.254 16.965,15.254C16.033,15.254 15.265,14.486 15.265,13.554C15.265,13.479 15.27,13.404 15.28,13.33C15.28,11.88 16.11,10.8 17.28,10.8C17.308,10.798 17.337,10.797 17.365,10.797C18.15,10.797 18.795,11.443 18.795,12.227C18.795,12.268 18.794,12.309 18.79,12.35C18.78,12.704 18.733,13.056 18.65,13.4L16.38,13.4C16.31,14.02 16.7,14.27 17.38,14.27C17.772,14.267 18.159,14.174 18.51,14L18.33,15.07ZM17.7,12.54C17.7,12.45 17.82,11.77 17.18,11.77C16.83,11.77 16.57,12.04 16.47,12.54L17.7,12.54Z" style="fill:rgb(0,52,115);fill-rule:nonzero;"/>
                <path d="M10.59,12.25C10.584,12.788 10.929,13.271 11.44,13.44C11.9,13.65 11.96,13.72 11.96,13.91C11.96,14.1 11.77,14.3 11.32,14.3C10.98,14.294 10.643,14.236 10.32,14.13C9.997,14.024 10.18,15.07 10.17,15.13C10.553,15.221 10.946,15.264 11.34,15.26C12.52,15.26 13.07,14.81 13.07,13.83C13.104,13.303 12.779,12.814 12.28,12.64C11.81,12.43 11.75,12.38 11.75,12.18C11.75,11.98 11.94,11.83 12.3,11.83C12.571,11.831 12.842,11.854 13.11,11.9L13.27,10.9C12.938,10.854 12.605,10.828 12.27,10.82C11,10.8 10.58,11.46 10.59,12.25Z" style="fill:rgb(0,52,115);fill-rule:nonzero;"/>
                <path d="M23.79,10.91C24.142,10.924 24.485,11.024 24.79,11.2L25,10.06C24.626,9.825 24.207,9.672 23.77,9.61C23.031,9.624 22.343,9.997 21.93,10.61C21.28,10.4 21.01,10.83 20.68,11.27L20.39,11.34C20.399,11.197 20.399,11.053 20.39,10.91L19.39,10.91C19.25,12.23 19,13.57 18.81,14.91L18.76,15.2L19.88,15.2C20.07,13.98 20.17,13.2 20.23,12.67L20.66,12.43C20.72,12.2 20.92,12.12 21.31,12.13C21.261,12.417 21.238,12.709 21.24,13C21.24,14.4 21.99,15.27 23.24,15.27C23.579,15.268 23.916,15.217 24.24,15.12L24.44,13.92C24.132,14.087 23.79,14.18 23.44,14.19C22.79,14.19 22.44,13.71 22.44,12.91C22.37,11.72 23,10.91 23.79,10.91Z" style="fill:rgb(0,52,115);fill-rule:nonzero;"/>
                <path d="M33.31,9.92L33.06,11.43C32.834,11.047 32.442,10.791 32,10.74C31.37,10.81 30.826,11.216 30.58,11.8C30.11,11.7 29.63,11.54 29.63,11.54C29.63,11.19 29.68,10.97 29.68,10.9L28.68,10.9C28.54,12.22 28.29,13.56 28.1,14.9L28.05,15.19L29.17,15.19C29.32,14.19 29.44,13.38 29.52,12.73C29.91,12.39 30.1,12.08 30.52,12.1C30.342,12.542 30.251,13.014 30.25,13.49C30.25,14.56 30.79,15.26 31.6,15.26C31.986,15.256 32.351,15.084 32.6,14.79L32.6,15.19L33.66,15.19L34.51,9.94L33.31,9.92ZM31.9,14.18C31.52,14.18 31.33,13.9 31.33,13.34C31.33,12.5 31.69,11.9 32.2,11.9C32.71,11.9 32.79,12.2 32.79,12.74C32.79,13.59 32.42,14.18 31.9,14.18Z" style="fill:rgb(0,52,115);fill-rule:nonzero;"/>
                <path d="M6.65,14.85L5.53,14.85L6.17,10.82L4.73,14.85L3.97,14.85L3.87,10.84L3.2,14.85L2.15,14.85L3.02,9.61L4.64,9.61L4.68,12.86L5.77,9.61L7.52,9.61L6.65,14.85Z" style="fill:white;fill-rule:nonzero;"/>
                <path d="M9.42,13L9.17,13C8.53,13 8.17,13.22 8.17,13.65C8.168,13.667 8.167,13.683 8.167,13.7C8.167,13.914 8.343,14.09 8.557,14.09C8.561,14.09 8.566,14.09 8.57,14.09C9.07,14 9.4,13.58 9.42,13ZM10.23,14.9L9.3,14.9L9.3,14.46C9.012,14.811 8.573,15.004 8.12,14.98C7.56,14.951 7.114,14.482 7.114,13.921C7.114,13.884 7.116,13.847 7.12,13.81C7.12,12.81 7.85,12.17 9.12,12.17L9.58,12.17C9.594,12.077 9.594,11.983 9.58,11.89C9.58,11.61 9.38,11.5 8.86,11.5C8.452,11.505 8.047,11.573 7.66,11.7C7.66,11.62 7.82,10.7 7.82,10.7C8.255,10.552 8.711,10.475 9.17,10.47C10.17,10.47 10.64,10.9 10.64,11.72C10.633,12.005 10.603,12.29 10.55,12.57C10.47,13.21 10.26,14.53 10.23,14.85L10.23,14.9Z" style="fill:white;fill-rule:nonzero;"/>
                <path d="M25.3,9.75L25.12,10.89C24.817,10.709 24.473,10.609 24.12,10.6C23.28,10.6 22.69,11.41 22.69,12.6C22.69,13.4 23.09,13.88 23.69,13.88C24.04,13.871 24.383,13.779 24.69,13.61L24.5,14.8C24.177,14.903 23.839,14.957 23.5,14.96C22.29,14.96 21.5,14.09 21.5,12.69C21.5,10.82 22.5,9.5 24.03,9.5C24.465,9.507 24.895,9.592 25.3,9.75Z" style="fill:white;fill-rule:nonzero;"/>
                <path d="M27.12,13L26.87,13C26.23,13 25.87,13.22 25.87,13.65C25.868,13.667 25.867,13.683 25.867,13.7C25.867,13.914 26.043,14.09 26.257,14.09C26.261,14.09 26.266,14.09 26.27,14.09C26.77,14 27.1,13.58 27.12,13ZM27.94,14.9L27,14.9L27,14.46C26.712,14.811 26.273,15.004 25.82,14.98C25.26,14.951 24.814,14.482 24.814,13.921C24.814,13.884 24.816,13.847 24.82,13.81C24.82,12.81 25.55,12.17 26.82,12.17L27.28,12.17C27.311,12.08 27.328,11.985 27.33,11.89C27.33,11.61 27.13,11.5 26.61,11.5C26.205,11.504 25.804,11.571 25.42,11.7C25.42,11.62 25.57,10.7 25.57,10.7C26.005,10.552 26.461,10.475 26.92,10.47C27.92,10.47 28.39,10.9 28.39,11.72C28.383,12.005 28.353,12.29 28.3,12.57C28.17,13.21 28,14.53 27.94,14.85L27.94,14.9Z" style="fill:white;fill-rule:nonzero;"/>
                <path d="M15.23,14.79C14.97,14.881 14.696,14.928 14.42,14.93C14.397,14.932 14.375,14.933 14.352,14.933C13.897,14.933 13.522,14.558 13.522,14.103C13.522,14.065 13.525,14.027 13.53,13.99C13.53,13.8 13.62,13.31 13.69,12.85C13.76,12.39 14.17,9.94 14.17,9.94L15.29,9.94L15.16,10.59L15.73,10.59L15.58,11.59L15,11.59C14.87,12.4 14.68,13.41 14.68,13.59C14.68,13.77 14.8,13.91 15.07,13.91C15.17,13.922 15.27,13.922 15.37,13.91L15.23,14.79Z" style="fill:white;fill-rule:nonzero;"/>
                <path d="M18.65,14.76C18.28,14.871 17.896,14.929 17.51,14.93C17.438,14.939 17.366,14.944 17.294,14.944C16.356,14.944 15.584,14.172 15.584,13.234C15.584,13.156 15.589,13.077 15.6,13C15.6,11.54 16.43,10.47 17.6,10.47C17.615,10.47 17.629,10.469 17.644,10.469C18.428,10.469 19.074,11.115 19.074,11.899C19.074,11.933 19.072,11.966 19.07,12C19.065,12.354 19.018,12.707 18.93,13.05L16.71,13.05C16.63,13.67 17.03,13.92 17.71,13.92C18.112,13.921 18.51,13.829 18.87,13.65L18.65,14.76ZM18,12.22C18,12.14 18.11,11.46 17.48,11.46C17.12,11.46 16.87,11.73 16.76,12.22L18,12.22Z" style="fill:white;fill-rule:nonzero;"/>
                <path d="M10.91,11.94C10.904,12.478 11.249,12.961 11.76,13.13C12.22,13.34 12.29,13.4 12.29,13.6C12.29,13.8 12.09,13.98 11.64,13.98C11.3,13.978 10.963,13.924 10.64,13.82C10.317,13.716 10.49,14.76 10.48,14.82C10.864,14.909 11.256,14.953 11.65,14.95C12.84,14.95 13.39,14.5 13.39,13.52C13.426,12.989 13.095,12.497 12.59,12.33C12.12,12.12 12.07,12.07 12.07,11.87C12.07,11.67 12.25,11.52 12.62,11.52C12.891,11.523 13.162,11.543 13.43,11.58L13.59,10.58C13.258,10.535 12.925,10.508 12.59,10.5C11.34,10.49 10.9,11.15 10.91,11.94Z" style="fill:white;fill-rule:nonzero;"/>
                <path d="M33.88,14.85L32.82,14.85L32.82,14.46C32.572,14.756 32.206,14.928 31.82,14.93C31,14.93 30.46,14.22 30.46,13.16C30.46,11.74 31.3,10.54 32.29,10.54C32.721,10.541 33.124,10.759 33.36,11.12L33.61,9.6L34.72,9.6L33.88,14.85ZM32.22,13.85C32.75,13.85 33.12,13.25 33.12,12.41C33.12,11.87 32.91,11.57 32.52,11.57C32.13,11.57 31.65,12.17 31.65,13.01C31.65,13.583 31.84,13.87 32.22,13.87L32.22,13.85Z" style="fill:white;fill-rule:nonzero;"/>
                <path d="M29,10.59C28.86,11.91 28.61,13.25 28.41,14.59L28.36,14.87L29.48,14.87C29.89,12.26 29.98,11.75 30.61,11.87C30.667,11.415 30.798,10.972 31,10.56C30.53,10.46 30.27,10.73 29.92,11.23C29.963,11.019 29.986,10.805 29.99,10.59L29,10.59Z" style="fill:white;fill-rule:nonzero;"/>
                <path d="M19.7,10.59C19.56,11.91 19.31,13.25 19.11,14.59L19.06,14.87L20.18,14.87C20.59,12.26 20.68,11.75 21.31,11.87C21.387,11.436 21.532,11.018 21.74,10.63C21.27,10.53 21.01,10.8 20.66,11.3C20.703,11.089 20.726,10.875 20.73,10.66L19.7,10.59Z" style="fill:white;fill-rule:nonzero;"/>
                <path d="M34.38,14.52C34.38,14.339 34.529,14.19 34.71,14.19C34.891,14.19 35.04,14.339 35.04,14.52C35.04,14.701 34.891,14.85 34.71,14.85C34.529,14.85 34.38,14.701 34.38,14.52ZM34.71,14.77C34.847,14.77 34.96,14.657 34.96,14.52C34.96,14.383 34.847,14.27 34.71,14.27C34.573,14.27 34.46,14.383 34.46,14.52C34.46,14.657 34.573,14.77 34.71,14.77ZM34.66,14.67L34.6,14.67L34.6,14.37L34.72,14.37C34.746,14.361 34.774,14.361 34.8,14.37C34.811,14.392 34.811,14.418 34.8,14.44C34.812,14.465 34.812,14.495 34.8,14.52L34.86,14.65L34.78,14.65L34.78,14.53L34.73,14.53L34.66,14.67ZM34.66,14.5L34.75,14.5L34.66,14.5Z" style="fill:white;fill-rule:nonzero;"/>
                <rect x="41.93" y="0.64" width="37.13" height="22.99" style="fill:rgb(0,88,160);"/>
                <path d="M78.81,0.89L78.81,23.37L42.19,23.37L42.19,0.89L78.81,0.89M79.32,0.38L41.68,0.38L41.68,23.88L79.32,23.88L79.32,0.38Z" style="fill:rgb(0,88,160);fill-rule:nonzero;"/>
                <path d="M43,17.21C43.035,18.139 43.809,18.885 44.739,18.885C44.783,18.885 44.826,18.883 44.87,18.88L78.87,18.88L78.87,0.78L43,0.78L43,17.21Z" style="fill:white;fill-rule:nonzero;"/>
                <path d="M53.67,4.16L51.06,11.21L50.78,9.78C50.092,7.951 48.782,6.421 47.08,5.46L49.47,14.46L52.3,14.46L56.5,4.16L53.67,4.16" style="fill:rgb(0,88,160);fill-rule:nonzero;"/>
                <path d="M55.91,14.5L57.58,4.15L60.26,4.15L58.59,14.5L55.91,14.5" style="fill:rgb(0,88,160);fill-rule:nonzero;"/>
                <path d="M68.28,4.4C67.511,4.12 66.698,3.985 65.88,4C63.24,4 61.38,5.4 61.37,7.41C61.37,8.9 62.69,9.73 63.71,10.23C64.73,10.73 65.1,11.06 65.09,11.51C65.09,12.2 64.26,12.51 63.49,12.51C62.626,12.526 61.771,12.331 61,11.94L60.65,11.78L60.28,14.1C61.235,14.474 62.254,14.661 63.28,14.65C66.08,14.65 67.91,13.26 67.93,11.11C67.93,9.94 67.23,9.04 65.68,8.3C64.75,7.82 64.17,7.51 64.18,7.02C64.19,6.53 64.67,6.13 65.72,6.13C66.408,6.109 67.093,6.245 67.72,6.53L67.95,6.65L68.32,4.4" style="fill:rgb(0,88,160);fill-rule:nonzero;"/>
                <path d="M75.13,4.16L73.06,4.16C72.452,4.086 71.869,4.444 71.66,5.02L67.66,14.5L70.5,14.5L71.06,12.94L74.48,12.94C74.57,13.3 74.81,14.49 74.81,14.49L77.29,14.49L75.13,4.16M71.83,10.83C72.06,10.23 72.9,7.94 72.9,7.94C72.9,7.94 73.12,7.34 73.25,6.94L73.43,7.83C73.43,7.83 73.95,10.3 74.05,10.83L71.83,10.83Z" style="fill:rgb(0,88,160);fill-rule:nonzero;"/>
                <path d="M48.63,4.15L44.32,4.15L44.32,4.33C47.25,4.953 49.684,7 50.8,9.78L49.84,5C49.704,4.458 49.186,4.094 48.63,4.15Z" style="fill:rgb(250,166,26);fill-rule:nonzero;"/>
                <path d="M107.78,0L83.61,0L83.61,24.26L107.78,24.26L107.78,16.26C107.884,16.104 107.933,15.917 107.92,15.73C107.937,15.542 107.888,15.355 107.78,15.2" style="fill:url(#_Radial1);fill-rule:nonzero;"/>
                <path d="M85.79,10.5L85.32,9.37L84.86,10.5M96,10.05C95.894,10.098 95.777,10.119 95.66,10.11L94.84,10.11L94.84,9.47L95.68,9.47C95.79,9.463 95.9,9.484 96,9.53C96.094,9.576 96.15,9.676 96.14,9.78C96.146,9.889 96.092,9.992 96,10.05ZM101.89,10.5L101.42,9.37L101,10.5L101.89,10.5ZM90.95,11.72L90.2,11.72L90.2,9.5L89.2,11.72L88.6,11.72L87.6,9.5L87.6,11.72L86.29,11.72L86,11.09L84.62,11.09L84.35,11.72L83.62,11.72L84.83,8.88L85.83,8.88L87,11.57L87,8.88L88.11,8.88L89,10.81L89.82,8.88L90.95,8.88L90.95,11.72ZM93.67,11.72L91.45,11.72L91.45,8.88L93.72,8.88L93.72,9.47L92.13,9.47L92.13,10L93.68,10L93.68,10.58L92.13,10.58L92.13,11.15L93.72,11.15L93.67,11.72ZM96.87,9.65C96.878,9.976 96.688,10.277 96.39,10.41C96.525,10.453 96.644,10.537 96.73,10.65C96.822,10.807 96.861,10.989 96.84,11.17L96.84,11.72L96.2,11.72L96.2,11.37C96.23,11.176 96.191,10.978 96.09,10.81C95.949,10.707 95.773,10.664 95.6,10.69L94.87,10.69L94.87,11.69L94.19,11.69L94.19,8.88L95.75,8.88C96.034,8.851 96.321,8.9 96.58,9.02C96.805,9.147 96.938,9.392 96.92,9.65L96.87,9.65ZM98,11.72L97.3,11.72L97.3,8.88L98,8.88L98,11.72ZM106.04,11.72L105,11.72L103.8,9.59L103.8,11.72L102.41,11.72L102.15,11.09L100.74,11.09L100.48,11.72L99.69,11.72C99.33,11.745 98.973,11.634 98.69,11.41C98.425,11.116 98.294,10.724 98.33,10.33C98.295,9.922 98.429,9.517 98.7,9.21C98.977,8.972 99.336,8.854 99.7,8.88L100.35,8.88L100.35,9.49L99.71,9.49C99.52,9.466 99.329,9.528 99.19,9.66C99.045,9.841 98.974,10.069 98.99,10.3C98.971,10.539 99.038,10.777 99.18,10.97C99.311,11.08 99.48,11.134 99.65,11.12L100,11.12L101,8.88L102,8.88L103.15,11.57L103.15,8.88L104.15,8.88L105.34,10.88L105.34,8.88L106.04,8.88L106.04,11.72ZM83.56,12.28L84.72,12.28L84.98,11.65L85.57,11.65L85.83,12.28L88.11,12.28L88.11,11.8L88.32,12.28L89.5,12.28L89.7,11.79L89.7,12.28L95.38,12.28L95.38,11.28L95.49,11.28C95.56,11.28 95.59,11.28 95.59,11.41L95.59,12.31L98.52,12.31L98.52,12C98.858,12.167 99.233,12.25 99.61,12.24L100.85,12.24L101.11,11.61L101.7,11.61L101.96,12.24L104.34,12.24L104.34,11.64L104.7,12.24L106.6,12.24L106.6,8.24L104.72,8.24L104.72,8.71L104.45,8.24L102.52,8.24L102.52,8.71L102.27,8.24L99.71,8.24C99.317,8.221 98.925,8.3 98.57,8.47L98.57,8.32L96.77,8.32L96.77,8.55C96.551,8.38 96.276,8.298 96,8.32L89.41,8.32L88.96,9.32L88.51,8.32L86.43,8.32L86.43,8.79L86.2,8.32L84.43,8.32L83.61,10.2L83.61,12.28L83.56,12.28Z" style="fill:white;fill-rule:nonzero;"/>
                <path d="M107.78,14.38L106.54,14.38C106.452,14.352 106.358,14.352 106.27,14.38C106.203,14.428 106.165,14.508 106.17,14.59C106.169,14.685 106.23,14.77 106.32,14.8C106.406,14.813 106.494,14.813 106.58,14.8L107,14.8C107.277,14.773 107.554,14.855 107.77,15.03L107.83,15.1M107.83,16.16C107.611,16.437 107.26,16.578 106.91,16.53L105.6,16.53L105.6,16L106.9,16C106.999,16.01 107.098,15.985 107.18,15.93C107.228,15.878 107.257,15.811 107.26,15.74C107.258,15.669 107.23,15.601 107.18,15.55C107.106,15.503 107.018,15.482 106.93,15.49C106.3,15.49 105.5,15.49 105.5,14.61C105.5,14.2 105.76,13.76 106.5,13.76L107.85,13.76L107.85,13.2L106.59,13.2C106.29,13.185 105.992,13.266 105.74,13.43L105.74,13.2L103.88,13.2C103.592,13.183 103.306,13.264 103.07,13.43L103.07,13.2L99.68,13.2L99.68,13.43C99.4,13.272 99.082,13.193 98.76,13.2L96.57,13.2L96.57,13.43C96.272,13.243 95.92,13.162 95.57,13.2L93.16,13.2L92.6,13.81L92.08,13.2L88.41,13.2L88.41,17.2L92,17.2L92.58,16.58L93.12,17.2L95.34,17.2L95.34,16.27L95.55,16.27C95.889,16.294 96.23,16.246 96.55,16.13L96.55,17.2L98.38,17.2L98.38,16.2L98.46,16.2C98.58,16.2 98.59,16.2 98.59,16.32L98.59,17.24L104.14,17.24C104.467,17.255 104.789,17.163 105.06,16.98L105.06,17.24L106.82,17.24C107.163,17.25 107.504,17.185 107.82,17.05L107.82,16.31L107.83,16.16ZM105.12,15.03C105.266,15.194 105.339,15.411 105.32,15.63C105.32,16.24 104.94,16.53 104.26,16.53L102.93,16.53L102.93,16L104.25,16C104.349,16.01 104.448,15.985 104.53,15.93C104.578,15.878 104.607,15.811 104.61,15.74C104.608,15.669 104.58,15.601 104.53,15.55C104.455,15.504 104.368,15.483 104.28,15.49C103.65,15.49 102.85,15.49 102.85,14.61C102.85,14.606 102.85,14.601 102.85,14.597C102.85,14.13 103.234,13.747 103.7,13.747C103.75,13.747 103.8,13.751 103.85,13.76L105.22,13.76L105.22,14.37L103.97,14.37C103.882,14.34 103.788,14.34 103.7,14.37C103.627,14.414 103.585,14.495 103.59,14.58C103.592,14.674 103.652,14.757 103.74,14.79C103.83,14.802 103.92,14.802 104.01,14.79L104.37,14.79C104.636,14.81 104.885,14.927 105.07,15.12L105.12,15.03ZM98.99,14.85C98.885,14.903 98.767,14.924 98.65,14.91L97.83,14.91L97.83,14.27L98.67,14.27C98.779,14.264 98.888,14.281 98.99,14.32C99.082,14.373 99.137,14.474 99.13,14.58C99.17,14.73 99.087,14.888 98.94,14.94L98.99,14.85ZM99.4,15.21C99.533,15.253 99.648,15.337 99.73,15.45C99.826,15.602 99.868,15.781 99.85,15.96L99.85,16.53L99.16,16.53L99.16,16.17C99.16,16 99.16,15.75 99.05,15.62C98.94,15.49 98.8,15.49 98.55,15.49L97.83,15.49L97.83,16.49L97.1,16.49L97.1,13.77L98.66,13.77C98.941,13.746 99.223,13.795 99.48,13.91C99.711,14.032 99.848,14.28 99.83,14.54C99.841,14.867 99.65,15.169 99.35,15.3L99.4,15.21ZM100.26,13.68L102.52,13.68L102.52,14.27L100.93,14.27L100.93,14.79L102.49,14.79L102.49,15.37L100.93,15.37L100.93,16L102.52,16L102.52,16.59L100.26,16.59L100.26,13.68ZM95.67,15L94.8,15L94.8,14.27L95.68,14.27C95.93,14.27 96.1,14.37 96.1,14.62C96.1,14.87 95.88,15.09 95.62,15.09L95.67,15ZM94.12,16.27L93,15.2L94,14.08L94.12,16.27ZM91.37,16L89.7,16L89.7,15.43L91.2,15.43L91.2,14.85L89.7,14.85L89.7,14.33L91.41,14.33L92.15,15.16L91.37,16ZM96.78,14.68C96.78,15.47 96.19,15.63 95.59,15.63L94.75,15.63L94.75,16.63L93.42,16.63L92.59,15.69L91.72,16.63L89,16.63L89,13.77L91.73,13.77L92.57,14.71L93.43,13.77L95.6,13.77C96.17,13.77 96.78,13.92 96.78,14.71L96.78,14.68Z" style="fill:white;fill-rule:nonzero;"/>
            </g>
        </g>
    </g>
    <defs>
        <radialGradient id="_Radial1" cx="0" cy="0" r="1" gradientUnits="userSpaceOnUse" gradientTransform="matrix(22.74,0,0,-22.74,87.72,1.95)"><stop offset="0" style="stop-color:rgb(159,212,243);stop-opacity:1"/><stop offset="0.07" style="stop-color:rgb(153,210,242);stop-opacity:1"/><stop offset="0.16" style="stop-color:rgb(139,205,241);stop-opacity:1"/><stop offset="0.25" style="stop-color:rgb(113,198,239);stop-opacity:1"/><stop offset="0.35" style="stop-color:rgb(81,188,234);stop-opacity:1"/><stop offset="0.45" style="stop-color:rgb(33,173,228);stop-opacity:1"/><stop offset="0.5" style="stop-color:rgb(26,166,223);stop-opacity:1"/><stop offset="1" style="stop-color:rgb(48,120,188);stop-opacity:1"/></radialGradient>
    </defs>
</svg>
