<?xml version="1.0" encoding="UTF-8" standalone="no"?>
<!DOCTYPE svg PUBLIC "-//W3C//DTD SVG 1.1//EN" "http://www.w3.org/Graphics/SVG/1.1/DTD/svg11.dtd">
<svg width="100%" height="100%" viewBox="0 0 53 52" version="1.1" xmlns="http://www.w3.org/2000/svg" xmlns:xlink="http://www.w3.org/1999/xlink" xml:space="preserve" xmlns:serif="http://www.serif.com/" style="fill-rule:evenodd;clip-rule:evenodd;stroke-linejoin:round;stroke-miterlimit:2;">
    <g transform="matrix(1,0,0,1,-172,-250)">
        <g transform="matrix(1,0,0,1,172.524,-0.676825)">
            <rect id="self-booking" x="0" y="250.677" width="52" height="52" style="fill:none;"/>
            <g id="self-booking1" serif:id="self-booking">
                <g transform="matrix(1,0,0,1,-171.356,1.92683)">
                    <path d="M202.292,285.306L202.292,289.482C202.292,292.421 199.874,294.839 196.935,294.839L183.542,294.839C180.604,294.839 178.185,292.421 178.185,289.482L178.185,260.018C178.185,257.079 180.604,254.661 183.542,254.661L196.935,254.661C199.874,254.661 202.292,257.079 202.292,260.018L202.292,264.194L193.64,264.194C191.362,264.194 189.527,265.963 189.527,268.06L189.527,281.44C189.527,283.537 191.362,285.306 193.64,285.306L202.292,285.306ZM194.257,257.339L186.221,257.339L186.221,258.765C186.221,259.104 186.355,259.429 186.595,259.668C186.834,259.908 187.159,260.042 187.498,260.042L192.98,260.042C193.318,260.042 193.643,259.908 193.883,259.668C194.122,259.429 194.257,259.104 194.257,258.765L194.257,257.339ZM187.56,290.821L192.917,290.821C193.657,290.821 194.257,290.221 194.257,289.482C194.257,288.743 193.657,288.143 192.917,288.143L187.56,288.143C186.821,288.143 186.221,288.743 186.221,289.482C186.221,290.221 186.821,290.821 187.56,290.821ZM193.64,283.31C192.5,283.31 191.522,282.49 191.522,281.44L191.522,271.925L216.527,271.925L216.527,281.44C216.527,282.49 215.549,283.31 214.409,283.31L193.64,283.31ZM194.678,281.483L198.832,281.483C199.383,281.483 199.83,281.035 199.83,280.485C199.83,279.934 199.383,279.487 198.832,279.487L194.678,279.487C194.128,279.487 193.68,279.934 193.68,280.485C193.68,281.035 194.128,281.483 194.678,281.483ZM194.678,276.619C194.128,276.619 193.68,277.067 193.68,277.617C193.68,278.168 194.128,278.615 194.678,278.615L202.986,278.615C203.537,278.615 203.984,278.168 203.984,277.617C203.984,277.067 203.537,276.619 202.986,276.619L194.678,276.619ZM191.522,268.973L191.522,268.06C191.522,267.01 192.5,266.19 193.64,266.19L214.409,266.19C215.549,266.19 216.527,267.01 216.527,268.06L216.527,268.973L191.522,268.973Z" style="fill:rgb(8,161,226);"/>
                </g>
            </g>
        </g>
    </g>
</svg>
