<?xml version="1.0" encoding="UTF-8" standalone="no"?>
<!DOCTYPE svg PUBLIC "-//W3C//DTD SVG 1.1//EN" "http://www.w3.org/Graphics/SVG/1.1/DTD/svg11.dtd">
<svg width="100%" height="100%" viewBox="0 0 52 53" version="1.1" xmlns="http://www.w3.org/2000/svg" xmlns:xlink="http://www.w3.org/1999/xlink" xml:space="preserve" xmlns:serif="http://www.serif.com/" style="fill-rule:evenodd;clip-rule:evenodd;stroke-linejoin:round;stroke-miterlimit:2;">
    <g transform="matrix(1,0,0,1,0,-57)">
        <g transform="matrix(1,0,0,1,0,57.3002)">
            <rect id="single" x="0" y="0" width="52" height="52" style="fill:none;"/>
            <g id="single1" serif:id="single">
                <g transform="matrix(2.38857,0,0,2.38857,2.11505,0.920008)">
                    <path d="M10,9C11.646,9 13,7.646 13,6C13,4.354 11.646,3 10,3C8.354,3 7,4.354 7,6C7,7.646 8.354,9 10,9ZM5.304,16.19C5.104,16.011 5.001,15.747 5.027,15.48C5.289,12.944 7.451,10.994 10,10.994C12.55,10.994 14.712,12.944 14.974,15.48C15,15.747 14.897,16.011 14.697,16.19C13.412,17.357 11.736,18.002 10,18C8.264,18.002 6.589,17.356 5.304,16.19Z" style="fill:rgb(8,161,226);fill-rule:nonzero;"/>
                </g>
            </g>
        </g>
    </g>
</svg>
