<svg xmlns="http://www.w3.org/2000/svg" viewBox="0 0 40.03 49.26"><defs><style>.cls-1{fill:#0260c0;}</style></defs><title>Asset 66</title><g id="Layer_2" data-name="Layer 2"><g id="Capa_1" data-name="Capa 1"><path class="cls-1" d="M39.86,37.62c-1.44-8.56-5-11.66-6.12-12.68l-.13-.11c-.36-.18-.83-.44-1.34-.73A36.92,36.92,0,0,0,25.79,21l-.54-.17.48-.29a11.14,11.14,0,0,0,5.14-7.32,12.38,12.38,0,0,0-2.51-9.92,3.66,3.66,0,0,0-.82-.8C23.41-.32,18.8-.79,14.87,1.26a11.08,11.08,0,0,0-.6,19.32l.5.31L14.2,21c-14,3.74-14,16.42-14,16.54v0A21,21,0,0,0,0,40.21v9H40v-9A21,21,0,0,0,39.86,37.62Zm-29-26.53a9.07,9.07,0,0,1,5-8.13C19.19,1.29,23,1.77,26.41,4.28a1.77,1.77,0,0,1,.34.33c2.46,3.29,3,7.05,1.47,10.31a9.09,9.09,0,0,1-7.73,5.26h-1A9.12,9.12,0,0,1,10.86,11.09ZM38,47.28H2V40.21a18.18,18.18,0,0,1,17.5-18,5,5,0,0,0,.53,0h.51A18.17,18.17,0,0,1,38,40.21Z"/></g></g></svg>