<svg xmlns="http://www.w3.org/2000/svg">

  <!-- Adjustments -->
  <symbol id="adjustments" fill="none" stroke="currentColor" viewBox="0 0 24 24">
    <path stroke-linecap="round" stroke-linejoin="round" stroke-width="2"
      d="M12 6V4m0 2a2 2 0 100 4m0-4a2 2 0 110 4m-6 8a2 2 0 100-4m0 4a2 2 0 110-4m0 4v2m0-6V4m6 6v10m6-2a2 2 0 100-4m0 4a2 2 0 110-4m0 4v2m0-6V4">
    </path>
  </symbol>

  <!-- Archive -->
  <symbol id="archive" fill="none" stroke="currentColor" viewBox="0 0 24 24">
    <path stroke-linecap="round" stroke-linejoin="round" stroke-width="2"
      d="M5 8h14M5 8a2 2 0 110-4h14a2 2 0 110 4M5 8v10a2 2 0 002 2h10a2 2 0 002-2V8m-9 4h4"></path>
  </symbol>

  <!-- Arrows -->
  <symbol id="arrownarrowleft" fill="none" stroke="currentColor" viewBox="0 0 24 24">
    <path stroke-linecap="round" stroke-linejoin="round" stroke-width="2" d="M7 16l-4-4m0 0l4-4m-4 4h18"></path>
  </symbol>
  <symbol id="arrownarrowright" fill="none" stroke="currentColor" viewBox="0 0 24 24">
    <path stroke-linecap="round" stroke-linejoin="round" stroke-width="2" d="M17 8l4 4m0 0l-4 4m4-4H3"></path>
  </symbol>

  <!-- Calendar -->
  <symbol id="calendar" fill="none" stroke="currentColor" viewBox="0 0 24 24">
    <path stroke-linecap="round" stroke-linejoin="round" stroke-width="2"
      d="M8 7V3m8 4V3m-9 8h10M5 21h14a2 2 0 002-2V7a2 2 0 00-2-2H5a2 2 0 00-2 2v12a2 2 0 002 2z"></path>
  </symbol>
  <symbol id="chevrondown" fill="none" stroke="currentColor" viewBox="0 0 24 24">
    <path stroke-linecap="round" stroke-linejoin="round" stroke-width="2" d="M19 9l-7 7-7-7"></path>
  </symbol>

  <!-- Clock -->
  <symbol id="clock" fill="none" stroke="currentColor" viewBox="0 0 24 24">
    <path stroke-linecap="round" stroke-linejoin="round" stroke-width="2"
      d="M12 8v4l3 3m6-3a9 9 0 11-18 0 9 9 0 0118 0z"></path>
  </symbol>

  <!-- Check -->
  <symbol id="check" fill="none" stroke="currentColor" viewBox="0 0 24 24">
    <path stroke-linecap="round" stroke-linejoin="round" stroke-width="2" d="M5 13l4 4L19 7"></path>
  </symbol>

  <!-- Chat -->
  <symbol id="chat" fill="none" stroke="currentColor" viewBox="0 0 24 24">
    <path stroke-linecap="round" stroke-linejoin="round" stroke-width="2"
      d="M8 12h.01M12 12h.01M16 12h.01M21 12c0 4.418-4.03 8-9 8a9.863 9.863 0 01-4.255-.949L3 20l1.395-3.72C3.512 15.042 3 13.574 3 12c0-4.418 4.03-8 9-8s9 3.582 9 8z">
    </path>
  </symbol>

  <!-- Download -->
  <symbol id="download" fill="none" stroke="currentColor" viewBox="0 0 24 24">
    <path stroke-linecap="round" stroke-linejoin="round" stroke-width="2"
      d="M12 10v6m0 0l-3-3m3 3l3-3m2 8H7a2 2 0 01-2-2V5a2 2 0 012-2h5.586a1 1 0 01.707.293l5.414 5.414a1 1 0 01.293.707V19a2 2 0 01-2 2z">
    </path>
  </symbol>

  <!-- Emoji happy -->
  <symbol id="emojihappy" class="w-6 h-6" fill="none" stroke="currentColor" viewBox="0 0 24 24">
    <path stroke-linecap="round" stroke-linejoin="round" stroke-width="2"
      d="M14.828 14.828a4 4 0 01-5.656 0M9 10h.01M15 10h.01M21 12a9 9 0 11-18 0 9 9 0 0118 0z"></path>
  </symbol>

  <!-- Flag -->
  <symbol id="flag" fill="none" stroke="currentColor" viewBox="0 0 24 24">
    <path stroke-linecap="round" stroke-linejoin="round" stroke-width="2"
      d="M3 21v-4m0 0V5a2 2 0 012-2h6.5l1 1H21l-3 6 3 6h-8.5l-1-1H5a2 2 0 00-2 2zm9-13.5V9"></path>
  </symbol>

  <!-- Location Marker -->
  <symbol id="locationmarker" fill="none" stroke="currentColor" viewBox="0 0 24 24">
    <path stroke-linecap="round" stroke-linejoin="round" stroke-width="2"
      d="M17.657 16.657L13.414 20.9a1.998 1.998 0 01-2.827 0l-4.244-4.243a8 8 0 1111.314 0z"></path>
    <path stroke-linecap="round" stroke-linejoin="round" stroke-width="2" d="M15 11a3 3 0 11-6 0 3 3 0 016 0z"></path>
  </symbol>

  <!-- Mail -->
  <symbol id="mail" fill="none" stroke="currentColor" viewBox="0 0 24 24">
    <path stroke-linecap="round" stroke-linejoin="round" stroke-width="2"
      d="M3 8l7.89 5.26a2 2 0 002.22 0L21 8M5 19h14a2 2 0 002-2V7a2 2 0 00-2-2H5a2 2 0 00-2 2v10a2 2 0 002 2z"></path>
  </symbol>

  <!-- Menu -->
  <symbol id="menu" class="w-6 h-6" fill="none" stroke="currentColor" viewBox="0 0 24 24">
    <path stroke-linecap="round" stroke-linejoin="round" stroke-width="2" d="M4 6h16M4 12h16m-7 6h7"></path>
  </symbol>

  <!-- Minus -->
  <symbol id="minus" fill="none" stroke="currentColor" viewBox="0 0 24 24">
    <path stroke-linecap="round" stroke-linejoin="round" stroke-width="2" d="M20 12H4"></path>
  </symbol>

  <!-- Phone -->
  <symbol id="phone" fill="none" stroke="currentColor" viewBox="0 0 24 24">
    <path stroke-linecap="round" stroke-linejoin="round" stroke-width="2"
      d="M3 5a2 2 0 012-2h3.28a1 1 0 01.948.684l1.498 4.493a1 1 0 01-.502 1.21l-2.257 1.13a11.042 11.042 0 005.516 5.516l1.13-2.257a1 1 0 011.21-.502l4.493 1.498a1 1 0 01.684.949V19a2 2 0 01-2 2h-1C9.716 21 3 14.284 3 6V5z">
    </path>
  </symbol><!-- Phone -->

  <!-- Plus -->
  <symbol id="plus" fill="none" stroke="currentColor" viewBox="0 0 24 24">
    <path stroke-linecap="round" stroke-linejoin="round" stroke-width="2" d="M12 6v6m0 0v6m0-6h6m-6 0H6"></path>
  </symbol>

  <!-- Printer -->
  <symbol id="printer" fill="none" stroke="currentColor" viewBox="0 0 24 24">
    <path stroke-linecap="round" stroke-linejoin="round" stroke-width="2"
      d="M17 17h2a2 2 0 002-2v-4a2 2 0 00-2-2H5a2 2 0 00-2 2v4a2 2 0 002 2h2m2 4h6a2 2 0 002-2v-4a2 2 0 00-2-2H9a2 2 0 00-2 2v4a2 2 0 002 2zm8-12V5a2 2 0 00-2-2H9a2 2 0 00-2 2v4h10z">
    </path>
  </symbol>

  <!-- Question mark circle -->
  <symbol id="questionmarkcircle" fill="none" stroke="currentColor" viewBox="0 0 24 24">
    <path stroke-linecap="round" stroke-linejoin="round" stroke-width="2"
      d="M8.228 9c.549-1.165 2.03-2 3.772-2 2.21 0 4 1.343 4 3 0 1.4-1.278 2.575-3.006 2.907-.542.104-.994.54-.994 1.093m0 3h.01M21 12a9 9 0 11-18 0 9 9 0 0118 0z">
    </path>
  </symbol>

  <!-- Search -->
  <symbol id="search" fill="none" stroke="currentColor" viewBox="0 0 24 24">
    <path stroke-linecap="round" stroke-linejoin="round" stroke-width="2"
      d="M21 21l-6-6m2-5a7 7 0 11-14 0 7 7 0 0114 0z">
    </path>
  </symbol><!-- Search -->

  <!-- Share -->
  <symbol id="share" fill="none" stroke="currentColor" viewBox="0 0 24 24">
    <path stroke-linecap="round" stroke-linejoin="round" stroke-width="2"
      d="M8.684 13.342C8.886 12.938 9 12.482 9 12c0-.482-.114-.938-.316-1.342m0 2.684a3 3 0 110-2.684m0 2.684l6.632 3.316m-6.632-6l6.632-3.316m0 0a3 3 0 105.367-2.684 3 3 0 00-5.367 2.684zm0 9.316a3 3 0 105.368 2.684 3 3 0 00-5.368-2.684z">
    </path>
  </symbol>

  <!-- Star -->
  <symbol id="star" fill="currentColor" viewBox="0 0 20 20">
    <path
      d="M9.049 2.927c.3-.921 1.603-.921 1.902 0l1.07 3.292a1 1 0 00.95.69h3.462c.969 0 1.371 1.24.588 1.81l-2.8 2.034a1 1 0 00-.364 1.118l1.07 3.292c.3.921-.755 1.688-1.54 1.118l-2.8-2.034a1 1 0 00-1.175 0l-2.8 2.034c-.784.57-1.838-.197-1.539-1.118l1.07-3.292a1 1 0 00-.364-1.118L2.98 8.72c-.783-.57-.38-1.81.588-1.81h3.461a1 1 0 00.951-.69l1.07-3.292z">
    </path>
  </symbol>
  <symbol id="staro" fill="none" stroke="currentColor" viewBox="0 0 20 20">
    <path stroke-linecap="round" stroke-alignment="inner" stroke-width="2"
      d="M9.049 2.927c.3-.921 1.603-.921 1.902 0l1.07 3.292a1 1 0 00.95.69h3.462c.969 0 1.371 1.24.588 1.81l-2.8 2.034a1 1 0 00-.364 1.118l1.07 3.292c.3.921-.755 1.688-1.54 1.118l-2.8-2.034a1 1 0 00-1.175 0l-2.8 2.034c-.784.57-1.838-.197-1.539-1.118l1.07-3.292a1 1 0 00-.364-1.118L2.98 8.72c-.783-.57-.38-1.81.588-1.81h3.461a1 1 0 00.951-.69l1.07-3.292z">
    </path>
  </symbol>

  <!-- Tag -->
  <symbol id="tag" fill="none" stroke="currentColor" viewBox="0 0 24 24">
    <path stroke-linecap="round" stroke-linejoin="round" stroke-width="2"
      d="M7 7h.01M7 3h5c.512 0 1.024.195 1.414.586l7 7a2 2 0 010 2.828l-7 7a2 2 0 01-2.828 0l-7-7A1.994 1.994 0 013 12V7a4 4 0 014-4z">
    </path>
  </symbol>

  <!-- Users -->
  <symbol id="users" fill="none" stroke="currentColor" viewBox="0 0 24 24">
    <path stroke-linecap="round" stroke-linejoin="round" stroke-width="2"
      d="M12 4.354a4 4 0 110 5.292M15 21H3v-1a6 6 0 0112 0v1zm0 0h6v-1a6 6 0 00-9-5.197M13 7a4 4 0 11-8 0 4 4 0 018 0z">
    </path>
  </symbol>

  <!-- View Grid -->
  <symbol id="viewgrid" fill="none" stroke="currentColor" viewBox="0 0 24 24">
    <path stroke-linecap="round" stroke-linejoin="round" stroke-width="2"
      d="M4 6a2 2 0 012-2h2a2 2 0 012 2v2a2 2 0 01-2 2H6a2 2 0 01-2-2V6zM14 6a2 2 0 012-2h2a2 2 0 012 2v2a2 2 0 01-2 2h-2a2 2 0 01-2-2V6zM4 16a2 2 0 012-2h2a2 2 0 012 2v2a2 2 0 01-2 2H6a2 2 0 01-2-2v-2zM14 16a2 2 0 012-2h2a2 2 0 012 2v2a2 2 0 01-2 2h-2a2 2 0 01-2-2v-2z">
    </path>
  </symbol>

  <!-- X -->
  <symbol id="x" fill="none" stroke="currentColor" viewBox="0 0 24 24">
    <path stroke-linecap="round" stroke-linejoin="round" stroke-width="2" d="M6 18L18 6M6 6l12 12"></path>
  </symbol>

  <!-- zoomin -->
  <symbol id="zoomin" fill="none" stroke="currentColor" viewBox="0 0 24 24">
    <path stroke-linecap="round" stroke-linejoin="round" stroke-width="2"
      d="M21 21l-6-6m2-5a7 7 0 11-14 0 7 7 0 0114 0zM10 7v3m0 0v3m0-3h3m-3 0H7"></path>
  </symbol>


  <!-- Trip details Overview -->
  <symbol id="calendarduration" viewBox="0 0 64 64" fill="currentColor">
    <path
      d="m56 40.10529v-28.10529c0-2.75684-2.24316-5-5-5h-2v-2c0-1.6543-1.3457-3-3-3s-3 1.3457-3 3v2h-5v-2c0-1.6543-1.3457-3-3-3s-3 1.3457-3 3v2h-6v-2c0-1.6543-1.3457-3-3-3s-3 1.3457-3 3v2h-5v-2c0-1.6543-1.3457-3-3-3s-3 1.3457-3 3v2h-2c-2.75684 0-5 2.24316-5 5v40c0 2.75684 2.24316 5 5 5h33.62347c2.07868 3.58081 5.94617 6 10.37653 6 6.61719 0 12-5.38281 12-12 0-4.83142-2.87561-8.99408-7-10.89471zm-11-35.10529c0-.55176.44824-1 1-1s1 .44824 1 1v6c0 .55176-.44824 1-1 1s-1-.44824-1-1zm-11 0c0-.55176.44824-1 1-1s1 .44824 1 1v6c0 .55176-.44824 1-1 1s-1-.44824-1-1zm-12 0c0-.55176.44824-1 1-1s1 .44824 1 1v6c0 .55176-.44824 1-1 1s-1-.44824-1-1zm-11 0c0-.55176.44824-1 1-1s1 .44824 1 1v6c0 .55176-.44824 1-1 1s-1-.44824-1-1zm-4 4h2v2c0 1.6543 1.3457 3 3 3s3-1.3457 3-3v-2h5v2c0 1.6543 1.3457 3 3 3s3-1.3457 3-3v-2h6v2c0 1.6543 1.3457 3 3 3s3-1.3457 3-3v-2h5v2c0 1.6543 1.3457 3 3 3s3-1.3457 3-3v-2h2c1.6543 0 3 1.3457 3 3v5h-50v-5c0-1.6543 1.3457-3 3-3zm0 46c-1.6543 0-3-1.3457-3-3v-33h50v20.39484c-.96082-.24866-1.96246-.39484-3-.39484-.6828 0-1.34808.07056-2 .1806v-5.1806c0-.55273-.44727-1-1-1h-6c-.55273 0-1 .44727-1 1v6c0 .55273.44727 1 1 1h2.38086c-3.23914 2.15106-5.38086 5.82843-5.38086 10 0 1.40411.25494 2.74664.70001 4zm40-16h-4v-4h4zm4 22c-5.51367 0-10-4.48633-10-10s4.48633-10 10-10 10 4.48633 10 10-4.48633 10-10 10z" />
    <path
      d="m52 49.2774v-6.2774h-2v6.2774c-.59528.34644-1 .98413-1 1.7226 0 .10126.01526.19836.02979.29553l-3.65479 2.92322 1.25 1.5625 3.65161-2.92133c.22492.08759.46753.14008.72339.14008 1.10455 0 2-.89545 2-2 0-.73846-.40472-1.37616-1-1.7226z" />
    <path
      d="m15 22h-6c-.55273 0-1 .44727-1 1v6c0 .55273.44727 1 1 1h6c.55273 0 1-.44727 1-1v-6c0-.55273-.44727-1-1-1zm-1 6h-4v-4h4z" />
    <path
      d="m26 22h-6c-.55273 0-1 .44727-1 1v6c0 .55273.44727 1 1 1h6c.55273 0 1-.44727 1-1v-6c0-.55273-.44727-1-1-1zm-1 6h-4v-4h4z" />
    <path
      d="m37 22h-6c-.55273 0-1 .44727-1 1v6c0 .55273.44727 1 1 1h6c.55273 0 1-.44727 1-1v-6c0-.55273-.44727-1-1-1zm-1 6h-4v-4h4z" />
    <path
      d="m42 30h6c.55273 0 1-.44727 1-1v-6c0-.55273-.44727-1-1-1h-6c-.55273 0-1 .44727-1 1v6c0 .55273.44727 1 1 1zm1-6h4v4h-4z" />
    <path
      d="m15 33h-6c-.55273 0-1 .44727-1 1v6c0 .55273.44727 1 1 1h6c.55273 0 1-.44727 1-1v-6c0-.55273-.44727-1-1-1zm-1 6h-4v-4h4z" />
    <path
      d="m26 33h-6c-.55273 0-1 .44727-1 1v6c0 .55273.44727 1 1 1h6c.55273 0 1-.44727 1-1v-6c0-.55273-.44727-1-1-1zm-1 6h-4v-4h4z" />
    <path
      d="m37 33h-6c-.55273 0-1 .44727-1 1v6c0 .55273.44727 1 1 1h6c.55273 0 1-.44727 1-1v-6c0-.55273-.44727-1-1-1zm-1 6h-4v-4h4z" />
    <path
      d="m15 44h-6c-.55273 0-1 .44727-1 1v6c0 .55273.44727 1 1 1h6c.55273 0 1-.44727 1-1v-6c0-.55273-.44727-1-1-1zm-1 6h-4v-4h4z" />
    <path
      d="m26 44h-6c-.55273 0-1 .44727-1 1v6c0 .55273.44727 1 1 1h6c.55273 0 1-.44727 1-1v-6c0-.55273-.44727-1-1-1zm-1 6h-4v-4h4z" />
    <path
      d="m37 44h-6c-.55273 0-1 .44727-1 1v6c0 .55273.44727 1 1 1h6c.55273 0 1-.44727 1-1v-6c0-.55273-.44727-1-1-1zm-1 6h-4v-4h4z" />
  </symbol>
  <symbol id="maxelevation" viewBox="0 0 512 512" fill="currentColor">
    <path
      d="m511.986 466.113c0-1.146-.249-2.295-.778-3.353l-56.126-112.247c-1.853-3.705-6.354-5.207-10.063-3.354-3.704 1.853-5.206 6.357-3.354 10.062l50.698 101.393h-108.488l-75.041-150.08 3.9-7.8 1.796 1.243c5.814 4.027 13.796 3.456 18.979-1.357l10.516-9.765c.03-.029.063-.056.146-.048.084.009.108.044.132.079l6.316 9.063c2.839 4.072 7.496 6.502 12.459 6.502s9.62-2.431 12.459-6.502l6.315-9.062c.024-.035.049-.07.134-.079.084-.006.115.02.146.049l10.516 9.763c5.182 4.813 13.164 5.384 18.977 1.358l1.798-1.245 12.58 25.159c1.314 2.628 3.963 4.147 6.714 4.147 1.127 0 2.271-.255 3.349-.793 3.704-1.853 5.206-6.357 3.354-10.062l-60.602-121.194c-2.998-6.004-9.029-9.733-15.741-9.733s-12.743 3.729-15.739 9.73l-3.73 7.461c-14.782-12.543-33.681-19.577-53.262-19.577-13.405 0-26.439 3.227-38.154 9.378l-41.272-82.543c-3.345-6.69-10.069-10.847-17.549-10.847-.001 0-.001 0-.001 0-7.48 0-14.205 4.156-17.551 10.847l-80.75 161.5c-1.853 3.705-.351 8.21 3.354 10.062 3.706 1.854 8.211.35 10.063-3.354l17.822-35.644 4.601 3.185c6.738 4.666 15.99 4.004 21.996-1.574l13.819-12.833c.755-.702 1.604-.728 2.048-.68.44.047 1.267.253 1.856 1.099l8.302 11.91c3.289 4.72 8.688 7.538 14.44 7.538s11.151-2.818 14.44-7.537l8.302-11.911c.59-.846 1.416-1.052 1.856-1.099.443-.048 1.293-.021 2.048.68l13.819 12.832c6.007 5.578 15.258 6.24 21.995 1.574l4.601-3.185 106.672 213.345h-347.468l73.122-146.244c1.853-3.705.351-8.21-3.354-10.062-3.707-1.854-8.211-.351-10.063 3.354l-78.548 157.098c-.53 1.058-.778 2.207-.778 3.354-.005 0-.009 0-.014 0v38.386c0 4.142 3.357 7.5 7.5 7.5h497c4.143 0 7.5-3.358 7.5-7.5v-38.386c-.005 0-.009-.001-.014-.001zm-148.909-262.857c.6 0 1.698.187 2.323 1.438l41.244 82.487-3.56 2.464c-.071.049-.167.043-.231-.017l-10.515-9.763c-3.224-2.994-7.589-4.442-11.952-3.972-4.374.469-8.324 2.807-10.841 6.416l-6.316 9.063c-.07.103-.234.103-.305 0l-6.316-9.062c-2.515-3.608-6.466-5.947-10.839-6.417-4.378-.469-8.73.979-11.953 3.971l-10.515 9.764c-.063.059-.162.065-.233.016l-3.558-2.463 41.245-82.491c.624-1.247 1.723-1.434 2.322-1.434zm-72.731-2.386c17.257 0 33.854 6.699 46.299 18.503l-36.195 72.39-41.547-83.094c9.637-5.113 20.383-7.799 31.443-7.799zm-43.053 35.252c-.995.689-2.362.592-3.25-.233l-13.819-12.833c-3.736-3.469-8.785-5.147-13.854-4.603s-9.648 3.254-12.563 7.437l-8.302 11.911c-.675.969-1.627 1.114-2.134 1.114s-1.459-.145-2.134-1.114l-8.302-11.911c-2.915-4.182-7.494-6.893-12.563-7.437-5.065-.544-10.119 1.134-13.854 4.603l-13.819 12.833c-.887.824-2.255.923-3.251.232l-6.363-4.405 56.152-112.303c1.153-2.306 3.275-2.555 4.135-2.555.858 0 2.98.249 4.134 2.555l56.152 112.304zm-232.293 260.878v-23.386h482v23.386z" />
    <path
      d="m408.534 148.341h66.671c17.504 0 31.744-14.24 31.744-31.744 0-15.428-10.881-28.268-25.548-31.139-7.239-15.037-22.576-24.849-39.531-24.849-16.956 0-32.293 9.812-39.531 24.849-14.667 2.872-25.548 15.711-25.548 31.139 0 17.504 14.24 31.744 31.743 31.744zm-.668-48.469c3.07-.12 5.758-2.101 6.78-4.999 4.064-11.522 15.005-19.263 27.224-19.263s23.159 7.741 27.225 19.264c1.022 2.898 3.709 4.879 6.779 4.999 9.015.352 16.075 7.699 16.075 16.726 0 9.232-7.512 16.744-16.744 16.744h-66.671c-9.232 0-16.743-7.511-16.743-16.744 0-9.028 7.061-16.375 16.075-16.727z" />
    <path
      d="m238.827 87.732h66.671c17.504 0 31.744-14.24 31.744-31.744 0-15.428-10.881-28.268-25.549-31.139-7.238-15.037-22.574-24.849-39.53-24.849s-32.293 9.812-39.531 24.849c-14.668 2.872-25.549 15.711-25.549 31.139 0 17.504 14.24 31.744 31.744 31.744zm-.668-48.47c3.07-.12 5.758-2.101 6.78-4.999 4.065-11.522 15.005-19.263 27.224-19.263s23.158 7.741 27.223 19.263c1.022 2.898 3.71 4.879 6.78 4.999 9.015.352 16.076 7.699 16.076 16.726 0 9.233-7.512 16.744-16.744 16.744h-66.671c-9.232 0-16.744-7.511-16.744-16.744 0-9.027 7.062-16.374 16.076-16.726z" />
    <path
      d="m31.744 120.057h66.671c17.503 0 31.743-14.24 31.743-31.744 0-15.428-10.881-28.268-25.548-31.139-7.238-15.037-22.575-24.849-39.531-24.849s-32.293 9.812-39.531 24.849c-14.667 2.871-25.548 15.711-25.548 31.139 0 17.504 14.24 31.744 31.744 31.744zm-.669-48.47c3.07-.12 5.758-2.101 6.78-4.999 4.065-11.522 15.005-19.263 27.224-19.263s23.159 7.741 27.224 19.263c1.022 2.898 3.71 4.879 6.78 4.999 9.015.352 16.075 7.699 16.075 16.726 0 9.233-7.511 16.744-16.743 16.744h-66.671c-9.232 0-16.744-7.511-16.744-16.744 0-9.027 7.061-16.374 16.075-16.726z" />
  </symbol>
  <symbol id="groupsize" viewBox="0 0 511.999 511.999" fill="currentColor">
    <path
      d="M344.214 276.755l-43.582-19.37a8.539 8.539 0 01-5.067-7.797V237.62c14.64-11.665 24.05-29.628 24.05-49.758v-16.847c4.823-2.665 8.016-7.815 8.016-13.583v-1.635c0-35.076-28.537-63.613-63.613-63.613h-16.032c-35.076 0-63.613 28.537-63.613 63.613v14.835c0 5.07 2.182 9.663 5.985 12.602.645.498 1.324.936 2.031 1.315v3.312c0 20.13 9.409 38.093 24.048 49.757v11.969a8.54 8.54 0 01-5.067 7.797l-43.582 19.37c-14.273 6.343-23.496 20.535-23.496 36.154v99.404a7.5 7.5 0 0015 0v-99.403c0-.869.062-1.728.152-2.58l20.082 20.082a16.443 16.443 0 014.847 11.702v70.2a7.5 7.5 0 0015 0v-70.2c0-8.427-3.281-16.349-9.24-22.308l-23.941-23.942a24.5 24.5 0 017.689-5.402l42.847-19.043 31.775 31.775v109.119a7.5 7.5 0 0015 0V303.194l31.775-31.775 42.846 19.042a24.486 24.486 0 017.689 5.403l-23.941 23.941c-5.959 5.959-9.24 13.881-9.24 22.308v70.2a7.5 7.5 0 0015 0v-70.2a16.44 16.44 0 014.847-11.702l20.081-20.081c.09.852.152 1.709.152 2.578v99.404a7.5 7.5 0 0015 0v-99.403c-.003-15.619-9.225-29.811-23.498-36.154zM256 289.481l-27.881-27.882a23.491 23.491 0 003.317-12.011v-3.052c7.563 3.178 15.862 4.939 24.565 4.939s17.001-1.76 24.563-4.938v3.051c0 4.318 1.197 8.444 3.318 12.012L256 289.481zm.001-53.007c-26.805.001-48.613-21.807-48.613-48.612v-3.373c4.68-1.855 9.248-4.807 13.621-8.842a7.5 7.5 0 00-10.174-11.023c-3.751 3.463-7.499 5.7-11.137 6.65a1.21 1.21 0 01-.199.037c-.054-.105-.127-.325-.127-.678v-14.835c0-26.805 21.808-48.613 48.613-48.613h16.032c26.806 0 48.613 21.808 48.613 48.613v1.635c0 .243-.146.454-.338.492-44.911 8.87-67.437-7.847-75.037-15.447a7.5 7.5 0 00-10.606 0 7.5 7.5 0 000 10.606c23.29 23.29 57.275 23.71 77.965 21.224v13.553c0 26.805-21.808 48.613-48.613 48.613zM135.242 235.961v-16.035c0-19.566-10.168-36.79-25.489-46.702a31.665 31.665 0 001.44-9.411c0-17.396-14.152-31.548-31.548-31.548s-31.548 14.153-31.548 31.548c0 3.237.49 6.385 1.438 9.413-15.32 9.911-25.487 27.135-25.487 46.7v16.032c0 18.947 9.533 35.701 24.048 45.743v16.493a8.486 8.486 0 01-4.716 7.632l-25.941 12.97C6.682 324.176 0 334.988 0 347.015v65.299a7.5 7.5 0 0015 0v-62.055l12.218 12.218a16.443 16.443 0 014.847 11.702v38.135a7.5 7.5 0 0015 0v-38.135c0-8.427-3.282-16.349-9.24-22.308L20.82 334.866c-.082-.082-.17-.153-.254-.23a16.724 16.724 0 013.582-2.422l25.941-12.97a23.887 23.887 0 003.719-2.322l18.337 18.338v77.055a7.5 7.5 0 0015 0v-77.056l18.338-18.338a23.784 23.784 0 003.719 2.322l7.153 3.577a7.502 7.502 0 006.709-13.415l-7.153-3.577a8.485 8.485 0 01-4.717-7.631v-16.493c14.515-10.042 24.048-26.797 24.048-45.743zm-55.597-88.696c9.125 0 16.548 7.424 16.548 16.548 0 1.005-.09 1.99-.262 2.955a55.41 55.41 0 00-16.286-2.439c-5.657 0-11.117.854-16.263 2.432a16.66 16.66 0 01-.285-2.948c0-9.125 7.423-16.548 16.548-16.548zm0 32.065c22.385 0 40.597 18.212 40.597 40.597v2.718c-31.225 9.56-49.834-14.193-50.629-15.234a7.502 7.502 0 00-11.303-.803c-7.159 7.159-14.171 10.612-19.235 12.279.555-21.906 18.534-39.557 40.57-39.557zm0 142.215l-17.331-17.331c.506-1.934.783-3.95.783-6.019v-9.155c5.229 1.634 10.788 2.515 16.548 2.515s11.319-.881 16.548-2.515v9.155c0 2.069.277 4.086.783 6.019l-17.331 17.331zm0-44.99c-22.385 0-40.597-18.212-40.597-40.597v-1.554c5.981-1.374 14.849-4.567 24.1-12.007 3.273 3.088 7.951 6.876 13.908 10.125 7.046 3.843 16.777 7.398 28.663 7.398 4.517 0 9.35-.525 14.459-1.731-1.163 21.352-18.897 38.366-40.533 38.366zM494.561 302.765l-41.973-20.987a8.486 8.486 0 01-4.716-7.631v-10.629c9.825-8.723 16.032-21.435 16.032-35.575v-8.537c.173 0 .343.005.516.005a7.5 7.5 0 007.5-7.5v-16.032c0-26.236-21.345-47.581-47.581-47.581h-16.032c-26.236 0-47.581 21.345-47.581 47.581v16.032a7.5 7.5 0 007.5 7.5c.062 0 .242-.002.516-.013v8.545c0 14.141 6.208 26.853 16.033 35.576v10.629a8.483 8.483 0 01-4.717 7.631 7.499 7.499 0 00-3.354 10.062 7.5 7.5 0 0010.062 3.355 23.887 23.887 0 003.719-2.322l18.338 18.338v101.103a7.5 7.5 0 0015 0V311.21l18.337-18.338a23.784 23.784 0 003.719 2.322l40.615 20.308-12.319 12.319c-5.958 5.959-9.24 13.881-9.24 22.308v62.184a7.5 7.5 0 0015 0v-62.184a16.44 16.44 0 014.847-11.702l11.669-11.669c.354 1.357.548 2.772.548 4.224v81.331a7.5 7.5 0 0015 0v-81.331c.001-12.026-6.681-22.838-17.438-28.217zm-118.836-99.897v-6.99h.001c0-17.965 14.616-32.581 32.581-32.581h16.032c17.965 0 32.581 14.616 32.581 32.581v8.331c-32.603-1.759-52.278-14.446-52.469-14.571a7.495 7.495 0 00-9.464.937c-7.176 7.176-14.207 10.63-19.262 12.293zm40.598 94.629l-17.331-17.331c.506-1.934.783-3.95.783-6.019v-1.597a47.347 47.347 0 0016.548 2.973 47.347 47.347 0 0016.548-2.973v1.597c0 2.069.276 4.085.783 6.019l-17.331 17.331zm0-36.973c-17.965 0-32.581-14.615-32.581-32.581v-12.091c5.253-2.099 11.373-5.436 17.601-10.742 7.876 4.098 24.354 11.181 47.561 13.521v9.312c0 17.965-14.616 32.581-32.581 32.581z" />
  </symbol>
  <symbol id="level" viewBox="0 0 512 512" fill="currentColor">
    <path
      d="M121 416c5.523 0 10-4.478 10-10v-96.266c17.233-4.452 30-20.13 30-38.734s-12.767-34.282-30-38.734V106c0-5.522-4.477-10-10-10s-10 4.478-10 10v126.266c-17.233 4.452-30 20.13-30 38.734s12.767 34.282 30 38.734V406c0 5.522 4.477 10 10 10zm-20-145c0-11.028 8.972-20 20-20s20 8.972 20 20-8.972 20-20 20-20-8.972-20-20zM211 416c5.523 0 10-4.478 10-10V219.734c17.233-4.452 30-20.13 30-38.734s-12.767-34.282-30-38.734V106c0-5.522-4.477-10-10-10s-10 4.478-10 10v36.266c-17.233 4.452-30 20.13-30 38.734s12.767 34.282 30 38.734V406c0 5.522 4.477 10 10 10zm-20-235c0-11.028 8.972-20 20-20s20 8.972 20 20-8.972 20-20 20-20-8.972-20-20zM391 96c-5.522 0-10 4.478-10 10v96.266c-17.233 4.452-30 20.13-30 38.734s12.767 34.282 30 38.734V406c0 5.522 4.478 10 10 10s10-4.478 10-10V279.734c17.233-4.452 30-20.13 30-38.734s-12.767-34.282-30-38.734V106c0-5.522-4.478-10-10-10zm20 145c0 11.028-8.972 20-20 20s-20-8.972-20-20 8.972-20 20-20 20 8.972 20 20zM291 369.734V406c0 5.522 4.478 10 10 10s10-4.478 10-10v-36.266c17.233-4.452 30-20.13 30-38.734s-12.767-34.282-30-38.734V106c0-5.522-4.478-10-10-10s-10 4.478-10 10v186.266c-17.233 4.452-30 20.13-30 38.734s12.767 34.282 30 38.734zM301 311c11.028 0 20 8.972 20 20s-8.972 20-20 20-20-8.972-20-20 8.972-20 20-20z" />
    <circle cx="256" cy="502" r="10" />
    <path
      d="M301 512h150c22.056 0 40-17.944 40-40V40c0-22.056-17.944-40-40-40H61C38.944 0 21 17.944 21 40v432c0 22.056 17.944 40 40 40h150c5.523 0 10-4.478 10-10s-4.477-10-10-10H61c-11.028 0-20-8.972-20-20V40c0-11.028 8.972-20 20-20h390c11.028 0 20 8.972 20 20v432c0 11.028-8.972 20-20 20H301c-5.522 0-10 4.478-10 10s4.478 10 10 10z" />
  </symbol>
  <symbol id="transportation" viewBox="0 0 480 480" fill="currentColor">
    <path
      d="M466.504 21.64L439 5.144a8.033 8.033 0 00-7.544-.368l-56.672 26.84-64.88-26.488c-1.536-.616-3.24-.768-4.84-.384l-32 7.472a8 8 0 00-6.064 6.4 8.028 8.028 0 003.496 8.088l48.144 31.512-35.664 16.896-27.808-13.928a15.986 15.986 0 00-17.496 2.096 15.98 15.98 0 00-4.96 16.904l9.968 32.496c2.088 6.768 8.232 11.312 15.304 11.312h24.904c.96 0 1.912-.168 2.808-.504l51.8-19.432-6.56 59.056a7.991 7.991 0 003.376 7.448 8.061 8.061 0 004.576 1.432c1.224 0 2.448-.28 3.576-.84l32-16a8.024 8.024 0 004.008-4.624l22.952-68.856 64-32c5.224-2.608 8.608-7.848 8.832-13.688s-2.744-11.336-7.752-14.344zm-171.592 1.888l11.32-2.64 48.968 20-19.592 9.28-40.696-26.64zm96.4 45.312a8.024 8.024 0 00-4.008 4.624l-22.952 68.856-15.88 7.936 6.376-57.384a7.974 7.974 0 00-3.032-7.192 8.043 8.043 0 00-7.736-1.184l-62.64 23.496h-23.456l-9.968-32.496 31.296 15.648a7.994 7.994 0 007 .072l148.136-70.16 23.832 14.296-66.968 33.488zM456 323.992h-9.632l-50.68-85.672a9.109 9.109 0 00-.496-.736c-4.512-6.008-11.688-9.592-19.192-9.592H44.496c-11.032 0-20.608 7.48-23.376 18.592L5.992 324.392c-3.416.912-5.992 3.888-5.992 7.6v72c0 22.056 17.944 40 40 40h18.8c6.608 18.616 24.344 32 45.2 32s38.592-13.384 45.2-32H344.8c6.608 18.616 24.344 32 45.2 32s38.592-13.384 45.2-32h4.8c22.056 0 40-17.944 40-40v-56c0-13.232-10.768-24-24-24zm-128-80h48a8.066 8.066 0 016.176 2.912l45.6 77.088H328v-80zm-104 0h88v80h-88v-80zm-104 0h88v80h-88v-80zm-83.272 6.064a8.001 8.001 0 017.768-6.064H104v80H22.368l14.36-73.936zM104 459.992c-17.648 0-32-14.352-32-32s14.352-32 32-32 32 14.352 32 32-14.352 32-32 32zm286 0c-17.648 0-32-14.352-32-32s14.352-32 32-32 32 14.352 32 32-14.352 32-32 32zm74-56c0 13.232-10.768 24-24 24h-2c0-26.472-21.528-48-48-48s-48 21.528-48 48h-14v-72h-16v72h-88v-72h-16v72h-56c0-26.472-21.528-48-48-48s-48 21.528-48 48H40c-13.232 0-24-10.768-24-24v-64h440c4.408 0 8 3.584 8 8v56zM156.816 104.88a40.423 40.423 0 00-14.472 13.488l13.456 8.656a24.196 24.196 0 018.704-8.112l-7.688-14.032zM176 99.992h16v16h-16zM253.992 166.504l-5.6 14.984a24.109 24.109 0 019.752 6.792l12.088-10.488c-4.392-5.048-10.008-8.96-16.24-11.288zM279.096 195.504l-15.64 3.376a24.22 24.22 0 01.544 5.112v9.152h16v-9.152c0-2.856-.304-5.712-.904-8.488zM219.432 163.992h16v16h-16zM208 99.992h16v16h-16zM187.432 163.992h16v16h-16zM152 139.992c0-.576.016-1.152.064-1.712l-15.96-1.16c-.072.96-.104 1.904-.104 2.872 0 5.8 1.216 11.392 3.616 16.624l14.544-6.656a23.827 23.827 0 01-2.16-9.968zM161.632 159.216l-9.6 12.8a39.853 39.853 0 0018.304 7.568l2.232-15.84c-3.944-.552-7.728-2.128-10.936-4.528z" />
  </symbol>
  <symbol id="bestseason" viewBox="0 0 64 64" fill="currentColor">
    <path
      d="M8 22h2v2H8zM12 22h2v2h-2zM16 22h2v2h-2zM19.832 48.555l-1.664-1.109L16.465 50h-.649A2.997 2.997 0 0014 48.184v-.649l2.555-1.703-1.109-1.664-1.446.964V43h-2v2.132l-1.445-.964-1.109 1.664L12 47.535v.649A2.997 2.997 0 0010.184 50h-.649l-1.703-2.555-1.664 1.109L7.132 50H5v2h2.132l-.964 1.445 1.664 1.109L9.535 52h.649A2.997 2.997 0 0012 53.816v.649l-2.555 1.703 1.109 1.664L12 56.868V59h2v-2.132l1.445.964 1.109-1.664L14 54.465v-.649A2.997 2.997 0 0015.816 52h.649l1.703 2.555 1.664-1.109L18.868 52H21v-2h-2.132zM13 52c-.551 0-1-.449-1-1s.449-1 1-1 1 .449 1 1-.449 1-1 1zM54.858 14H59v-2h-4.142a3.915 3.915 0 00-.425-1.019l2.931-2.931-1.414-1.414-2.931 2.931A3.915 3.915 0 0052 9.142V5h-2v4.142a3.915 3.915 0 00-1.019.425L46.05 6.636 44.636 8.05l2.931 2.931A4 4 0 0047.142 12H43v2h4.142c.094.363.238.704.425 1.019l-2.931 2.931 1.414 1.414 2.931-2.931a4 4 0 001.019.425V21h2v-4.142a3.915 3.915 0 001.019-.425l2.931 2.931 1.414-1.414-2.931-2.931c.187-.315.331-.656.425-1.019zM51 15c-1.103 0-2-.897-2-2s.897-2 2-2 2 .897 2 2-.897 2-2 2zM52 46.399l-.878 1.097L48 43.333 44.8 47.6c-.516.687-.8 1.54-.8 2.4 0 1.87 1.295 3.432 3.032 3.868-.014.143-.032.286-.032.43A4.707 4.707 0 0051.702 59h.597A4.707 4.707 0 0057 54.298a4.723 4.723 0 00-1.03-2.937zM46 50c0-.43.142-.856.4-1.2l1.6-2.133 1.6 2.134A2.002 2.002 0 0148 52c-1.103 0-2-.897-2-2zm6.298 7h-.597A2.705 2.705 0 0149 54.298c0-.152.017-.304.042-.454C50.741 53.383 52 51.843 52 50c0-.122-.018-.242-.03-.362l.03-.037 2.408 3.01A2.71 2.71 0 0155 54.298 2.705 2.705 0 0152.298 57z" />
    <path
      d="M55.677 39.95C56.539 37.385 57 34.72 57 32s-.461-5.385-1.323-7.95C59.977 22.224 63 17.958 63 13c0-6.617-5.383-12-12-12-4.958 0-9.224 3.023-11.05 7.323a25.127 25.127 0 00-15.257-.207C23.9 5.728 21.65 4 19 4c-.389 0-.777.042-1.173.127A6.963 6.963 0 0012 1a6.97 6.97 0 00-6.719 5.051A5.01 5.01 0 001 11c0 2.757 2.243 5 5 5h2v4h2v-4h2v4h2v-4h2v4h2v-4h1c3.271 0 5.933-2.631 5.994-5.887a23.121 23.121 0 0114.343.112c-.061.255-.112.514-.156.775H29c-1.654 0-3 1.346-3 3s1.346 3 3 3h4c.551 0 1 .449 1 1s-.449 1-1 1h-1c-1.654 0-3 1.346-3 3s1.346 3 3 3h19c.957 0 1.883-.125 2.775-.337.26.769.478 1.548.653 2.337H44c-1.654 0-3 1.346-3 3s1.346 3 3 3h3c.551 0 1 .449 1 1 0 1.654 1.346 3 3 3h3.428a23.02 23.02 0 01-.653 2.337A11.972 11.972 0 0051 39c-6.617 0-12 5.383-12 12 0 .956.124 1.882.337 2.774a23.095 23.095 0 01-14.673 0A11.97 11.97 0 0025 51c0-1.786-.403-3.476-1.105-5H30c1.654 0 3-1.346 3-3s-1.346-3-3-3h-2c-.551 0-1-.449-1-1s.449-1 1-1h6c1.654 0 3-1.346 3-3s-1.346-3-3-3H21c-.551 0-1-.449-1-1 0-1.654-1.346-3-3-3H9.355c.103-.588.221-1.173.37-1.75l-1.937-.5A25.08 25.08 0 007 32c0 2.72.461 5.385 1.323 7.95C4.023 41.776 1 46.042 1 51c0 6.617 5.383 12 12 12 4.958 0 9.224-3.023 11.05-7.323C26.615 56.539 29.28 57 32 57s5.385-.461 7.95-1.323C41.776 59.977 46.042 63 51 63c6.617 0 12-5.383 12-12 0-4.958-3.023-9.224-7.323-11.05zM19 14H6c-1.654 0-3-1.346-3-3s1.346-3 2.901-3.006l1.032.028.142-.85A4.978 4.978 0 0112 3a4.975 4.975 0 014.46 2.751l.396.783.828-.29A3.941 3.941 0 0119 6c2.206 0 4 1.794 4 4s-1.794 4-4 4zm13 9c-.551 0-1-.449-1-1s.449-1 1-1h1c1.654 0 3-1.346 3-3s-1.346-3-3-3h-4c-.551 0-1-.449-1-1s.449-1 1-1h10c0 4.171 2.142 7.849 5.381 10zm9-10c0-5.514 4.486-10 10-10s10 4.486 10 10-4.486 10-10 10-10-4.486-10-10zm10 22c-.551 0-1-.449-1-1 0-1.654-1.346-3-3-3h-3c-.551 0-1-.449-1-1s.449-1 1-1h10.781c.13.992.219 1.99.219 3s-.089 2.008-.219 3zM9 32c0-.669.039-1.336.097-2H17c.551 0 1 .449 1 1 0 1.654 1.346 3 3 3h13c.551 0 1 .449 1 1s-.449 1-1 1h-6c-1.654 0-3 1.346-3 3s1.346 3 3 3h2c.551 0 1 .449 1 1s-.449 1-1 1h-7.273c-2.181-3.022-5.724-5-9.727-5-.957 0-1.883.125-2.775.337A22.895 22.895 0 019 32zm4 29C7.486 61 3 56.514 3 51s4.486-10 10-10 10 4.486 10 10-4.486 10-10 10zm38 0c-5.514 0-10-4.486-10-10s4.486-10 10-10 10 4.486 10 10-4.486 10-10 10z" />
  </symbol>
  <symbol id="accomodation" viewBox="0 -1 499.096 499" fill="currentColor">
    <path
      d="M211.098 160.047c44.109 0 80-35.887 80-80 0-44.11-35.891-80-80-80-44.114 0-80 35.89-80 80 0 44.113 35.886 80 80 80zm-8-143.445v15.445h16V16.602c28.894 3.62 51.812 26.55 55.445 55.445h-15.445v16h15.445c-3.621 28.898-26.55 51.816-55.445 55.45v-15.45h-16v15.45c-28.899-3.626-51.817-26.552-55.45-55.45h15.45v-16h-15.45c3.633-28.895 26.551-51.817 55.45-55.445zm0 0" />
    <path
      d="M219.098 83.36V48.046h-16v28.687L189.44 90.391l11.313 11.312zm0 0M499.098 376.047c0-10.414-6.715-19.215-16-22.527V216.047c0-13.23-10.77-24-24-24h-44.121c-16.618-20.11-41.688-32-67.88-32-26.195 0-51.265 11.89-67.882 32h-44.117c-13.235 0-24 10.77-24 24V353.52c-9.29 3.312-16 12.113-16 22.527v88h16v8c0 13.234 10.765 24 24 24h32c13.23 0 24-10.766 24-24v-8h112v8c0 13.234 10.765 24 24 24h32c13.23 0 24-10.766 24-24v-8h16zm-176-80.957c-16.051-1.363-26.899-4.02-38.059-6.809-7.894-1.976-15.96-3.976-25.941-5.511v-18.723c0-4.406 3.59-8 8-8h48c4.406 0 8 3.594 8 8zm-41.946 8.719c16.207 4.054 32.961 8.238 65.946 8.238 32.98 0 49.734-4.184 65.941-8.238 14.504-3.625 28.41-7.04 54.059-7.641v55.879h-240v-55.871c25.644.601 39.558 4.008 54.054 7.633zm153.946-21.032c-9.977 1.535-18.043 3.535-25.946 5.512-11.16 2.79-22.015 5.438-38.054 6.809v-31.051c0-4.406 3.59-8 8-8h48c4.406 0 8 3.594 8 8zm-200-74.73h52l2.398-3.2c13.527-18.03 35.055-28.8 57.602-28.8 22.543 0 44.07 10.77 57.597 28.8l2.403 3.2h52c4.406 0 8 3.594 8 8v64.129c-5.825.136-11.16.39-16 .777v-16.906c0-13.23-10.77-24-24-24h-48c-13.235 0-24 10.77-24 24v31.875c-2.586.062-5.16.125-8 .125s-5.418-.063-8-.125v-31.875c0-13.23-10.77-24-24-24h-48c-13.235 0-24 10.77-24 24v16.906c-4.84-.387-10.176-.64-16-.777v-64.13c0-4.405 3.59-8 8-8zm40 264c0 4.41-3.594 8-8 8h-32c-4.41 0-8-3.59-8-8v-8h48zm192 0c0 4.41-3.594 8-8 8h-32c-4.41 0-8-3.59-8-8v-8h48zm16-24h-272v-72c0-4.406 3.59-8 8-8h256c4.406 0 8 3.594 8 8zm0 0" />
    <path
      d="M227.098 416.047h240v16h-240zm0 0M182.191 304.047l-37.336-112H37.328L0 304.047h67.098v144h-8c-13.235 0-24 10.77-24 24v24h112v-24c0-13.23-10.77-24-24-24h-8v-144h32v49.473c-9.29 3.312-16 12.113-16 22.527 0 13.234 10.765 24 24 24 13.23 0 24-10.766 24-24 0-10.414-6.715-19.215-16-22.527v-49.473zm-27.093 80c-4.41 0-8-3.59-8-8 0-4.406 3.59-8 8-8 4.406 0 8 3.594 8 8 0 4.41-3.594 8-8 8zm-106.235-176h84.473l26.664 80H22.191zm82.235 264v8h-80v-8c0-4.406 3.59-8 8-8h64c4.406 0 8 3.594 8 8zm-32-24h-16v-144h16zm0 0" />
  </symbol>
  <symbol id="meals" viewBox="0 0 512 512" fill="currentColor">
    <path
      d="M256 72a183.676 183.676 0 01122.665 46.85l10.67-11.922a200.007 200.007 0 00-266.67 0l10.67 11.922A183.672 183.672 0 01256 72zM256 440a184.154 184.154 0 01-138-62.3l-12 10.588a200.006 200.006 0 00300 0L394 377.7A184.157 184.157 0 01256 440z" />
    <path
      d="M390.119 233.324A137.454 137.454 0 01392 256a135.523 135.523 0 01-6.241 40.767A32.374 32.374 0 00374.941 288a147.851 147.851 0 00-33.769-12.184 80.027 80.027 0 00-89.638-131.034 35.981 35.981 0 00-57.643 15.7A36.046 36.046 0 00152 196a35.8 35.8 0 002.753 13.805c-.469.248-.949.5-1.435.75-4.487 2.334-9.574 4.979-13.185 9.941-3.584 4.924-4.535 10.568-5.375 15.548a46.66 46.66 0 01-1.348 6.319 43.607 43.607 0 01-2.518 5.6C128.6 252.522 126 257.691 126 264s2.6 11.477 4.892 16.037a43.505 43.505 0 012.517 5.6 46.677 46.677 0 011.348 6.318c.84 4.981 1.792 10.626 5.376 15.551 3.611 4.961 8.7 7.606 13.185 9.94a45.364 45.364 0 015.531 3.188 44.763 44.763 0 014.651 4.215c3.617 3.576 7.717 7.628 13.629 9.548 5.705 1.853 11.326 1.021 16.286.288A47.429 47.429 0 01200 334a47.429 47.429 0 016.585.683c.466.068.937.138 1.414.206a26.232 26.232 0 00-3.218 7.856 20.263 20.263 0 003.482 17.2c7.481 9.69 21.862 12.265 34.239 6.1a101.206 101.206 0 0191.038.02q.682.34 1.372.644A135.257 135.257 0 01256 392c-74.99 0-136-61.009-136-136s61.01-136 136-136a134.748 134.748 0 0182.449 27.833 136.991 136.991 0 0148.237 70.385l15.373-4.436a153.109 153.109 0 00-53.9-78.666A150.621 150.621 0 00256 104c-83.813 0-152 68.187-152 152s68.187 152 152 152a151.471 151.471 0 00104.912-42.11 23.254 23.254 0 006.809-5.925 19.185 19.185 0 002.055-3.277A151.381 151.381 0 00408 256a153.43 153.43 0 00-2.1-25.324zM375.4 311.056a4.825 4.825 0 01-.537 3.905c-2.732 3.539-9.048 4.233-14.377 1.585a117.312 117.312 0 00-80.789-9.11l-.149.008v.029a115.839 115.839 0 00-24.435 9.064c-5.339 2.66-11.661 1.968-14.412-1.595a4.823 4.823 0 01-.521-3.888c.6-2.676 2.934-6.386 7.678-8.78a133.286 133.286 0 01119.867 0c4.74 2.395 7.075 6.106 7.675 8.782zM352 216a63.819 63.819 0 01-33.745 56.413 149.807 149.807 0 00-47.509 4.285A29.624 29.624 0 00274 264c0-6.309-2.6-11.477-4.892-16.037a43.505 43.505 0 01-2.517-5.6 28.856 28.856 0 01-.828-3.375A31.985 31.985 0 10256 216v.369a48.709 48.709 0 00-9.32-5.813 45.458 45.458 0 01-5.532-3.188 21.833 21.833 0 01-1.572-1.278 36 36 0 0021.546-48.19A63.282 63.282 0 01288 152a64.072 64.072 0 0164 64zm-80 0a16 16 0 1116 16 16.019 16.019 0 01-16-16zm-44-64a20 20 0 11-20 20 20.023 20.023 0 0120-20zm-40 24a20.113 20.113 0 014.275.454 36.031 36.031 0 0014.982 24.954A20 20 0 11188 176zm12 142a59.978 59.978 0 00-8.926.855c-3.532.522-6.866 1.016-9 .322-2.3-.748-4.741-3.157-7.322-5.709a56.793 56.793 0 00-6.484-5.772 57.684 57.684 0 00-7.564-4.447c-3.206-1.667-6.235-3.242-7.63-5.159-1.37-1.883-1.936-5.242-2.536-8.8a59.074 59.074 0 00-1.907-8.6 55.685 55.685 0 00-3.44-7.845C143.548 269.59 142 266.513 142 264s1.548-5.591 3.187-8.85a55.519 55.519 0 003.44-7.845 59.047 59.047 0 001.908-8.6c.6-3.556 1.165-6.913 2.535-8.8 1.4-1.917 4.424-3.492 7.63-5.159a121.183 121.183 0 003.425-1.828 35.975 35.975 0 0056.8-12.373 52.013 52.013 0 014.324 3.981 56.97 56.97 0 006.484 5.773 57.759 57.759 0 007.565 4.447c3.206 1.667 6.235 3.242 7.63 5.159 1.37 1.883 1.936 5.242 2.536 8.8a59.074 59.074 0 001.907 8.6 55.685 55.685 0 003.44 7.845c1.641 3.26 3.189 6.337 3.189 8.85s-1.548 5.591-3.187 8.85a55.557 55.557 0 00-3.44 7.844 37.036 37.036 0 00-.766 2.718q-5.048 2.1-9.961 4.581c-8.247 4.16-14.255 11.467-16.075 19.546a22.6 22.6 0 00-.487 7.079c-2.152 2.1-4.2 3.925-6.154 4.559-2.137.693-5.471.2-9-.322A59.978 59.978 0 00200 318zm140.719 33.763a117.225 117.225 0 00-105.395-.021c-5.338 2.66-11.661 1.969-14.411-1.6a4.825 4.825 0 01-.522-3.889c.6-2.675 2.934-6.385 7.678-8.779a132.84 132.84 0 0110.9-4.906 29.926 29.926 0 0023.327-1.737 100.092 100.092 0 0119.8-7.5 133.835 133.835 0 0113.453.082 131.948 131.948 0 0152.389 14.062c4.739 2.393 7.071 6.1 7.673 8.78a6.576 6.576 0 01.149 2.081q-2.03 2.192-4.153 4.293a14.016 14.016 0 01-10.888-.866z" />
    <path
      d="M480 40v80h-24V40h-16v80h-24V40h-16v132a28.045 28.045 0 0023.282 27.6l-7.23 238.578c-.034.6-.052 1.21-.052 1.82a32 32 0 0064 0c0-.61-.018-1.218-.052-1.82l-1.648-54.42-15.992.484 1.652 54.534c0 .08.006.16.011.24.019.325.03.654.03.984a16 16 0 01-32 0c0-.33.011-.659.03-.984.005-.08.009-.16.011-.24L439.277 200h17.446l5.1 168.242 15.992-.484-5.1-168.156A28.045 28.045 0 00496 172V40zm0 132a12.013 12.013 0 01-12 12h-40a12.013 12.013 0 01-12-12v-36h64zM88.45 190.742c15.5-13.31 25.836-39.7 25.836-70.742 0-44.86-21.586-80-49.143-80S16 75.14 16 120c0 29.533 9.356 54.854 23.612 68.708l-1.79 59.05 15.992.484 1.509-49.774a32.212 32.212 0 0017.377.632l7.263 239.675c0 .08.006.16.011.24.019.325.03.654.03.984a16 16 0 01-32 0c0-.33.011-.659.03-.984 0-.08.009-.16.011-.24l5.288-174.534-15.992-.484-5.289 174.423c-.034.6-.052 1.21-.052 1.82a32 32 0 0064 0c0-.61-.018-1.218-.052-1.82zM32 120c0-38.283 17.137-64 33.143-64s33.143 25.717 33.143 64-17.138 64-33.143 64S32 158.283 32 120zM160.411 269.471l8-24 15.18 5.06-8 24zM189.47 288.41l24-8 5.06 15.18-24 8zM203.562 254.656l8.876-13.312 24 16-8.876 13.312z" />
  </symbol>
  <symbol id="startsat" viewBox="0 0 512 512" fill="currentColor">
    <path
      d="M361.685 176.837l-64-138.667c-2.155-4.629-7.253-7.083-12.267-5.867L242.751 42.97c-5.12 1.28-8.533 6.144-8.021 11.413l10.667 106.667c.576 5.867 5.781 10.133 11.669 9.557 5.867-.576 10.133-5.803 9.557-11.669l-9.749-97.493 25.152-6.293 60.267 130.645a10.672 10.672 0 009.707 6.208c1.493 0 3.029-.32 4.459-1.003 5.354-2.474 7.701-8.831 5.226-14.165zM472.512 235.163c-4.565-1.451-9.429.405-12.011 4.203-1.856 1.131-11.648 5.973-44.501 5.973-5.888 0-10.667 4.779-10.667 10.667s4.779 10.667 10.667 10.667c38.379 0 59.755-6.101 63.509-18.155 1.771-5.611-1.365-11.606-6.997-13.355zM361.6 251.355a10.61 10.61 0 00-6.315-5.504c-2.752-.896-67.733-21.845-99.285-21.845-5.397 0-9.963 4.053-10.603 9.408l-21.333 181.333c-.661 5.525 3.051 10.624 8.491 11.712l53.333 10.667c.725.149 1.408.213 2.112.213 4.373 0 8.405-2.709 9.984-6.933l64-170.667a10.612 10.612 0 00-.384-8.384zm-80.405 163.072l-34.795-6.955 19.029-161.557c22.379 2.411 55.701 11.84 72.619 16.939l-56.853 151.573z" />
    <path
      d="M333.163 170.949c-76.331-18.347-164.352-28.971-187.563-31.595l-40.064-80.128c-2.24-4.459-7.275-6.805-12.117-5.568L50.752 64.325a10.657 10.657 0 00-8.085 10.347v60.8c-10.24-1.899-23.531-2.496-32.725 3.968C5.397 142.619 0 148.784 0 160.005c0 4.821 0 19.008 37.803 44.885l-15.915 47.723a10.598 10.598 0 001.451 9.621A10.644 10.644 0 0032 266.671h53.333c4.032 0 7.723-2.283 9.536-5.909l9.643-19.285c32.043 14.592 79.765 33.088 138.475 46.251 5.803 1.365 11.456-2.325 12.736-8.064 1.301-5.739-2.304-11.456-8.064-12.736-49.067-11.008-100.032-28.437-143.467-49.131a10.673 10.673 0 00-14.123 4.864l-11.328 22.677H46.805l13.803-41.429c1.536-4.629-.235-9.707-4.331-12.352-27.925-17.984-34.688-28.907-34.944-31.552 0-2.496.64-2.965.875-3.136 4.075-2.837 17.771-.981 27.541 2.496a10.486 10.486 0 009.728-1.323A10.605 10.605 0 0064 149.338V82.992l26.283-6.571 38.848 77.675a10.705 10.705 0 008.448 5.867c1.003.107 103.659 10.837 190.741 31.787 78.485 17.621 162.347 54.976 162.347 106.923 0 1.003-.192 1.408-1.003 2.069-11.392 9.28-60.096 5.077-144.683-12.459-5.76-1.216-11.392 2.496-12.608 8.277-1.195 5.76 2.496 11.413 8.277 12.608 56.789 11.755 96 17.515 122.496 17.515 19.669 0 32.341-3.157 40-9.387 5.781-4.736 8.853-11.157 8.853-18.624.001-81.216-137.002-118.315-178.836-127.723zM245.333 458.672H10.667C4.779 458.672 0 463.451 0 469.339s4.779 10.667 10.667 10.667h234.667c5.888 0 10.667-4.779 10.667-10.667-.001-5.888-4.78-10.667-10.668-10.667z" />
  </symbol>
  <symbol id="endsat" viewBox="0 0 512 512" fill="currentColor">
    <path
      d="M416 85.336c-60.309 0-129.557 31.637-132.48 32.96-5.355 2.475-7.701 8.811-5.227 14.165 2.475 5.333 8.811 7.68 14.165 5.227.683-.32 67.968-31.019 123.541-31.019 54.4 0 74.667 13.077 74.667 21.333 0 39.787-333.952 170.667-405.333 170.667-11.989 0-44.117 0-59.179-2.731 6.997-5.504 19.541-13.333 32.064-19.797a10.686 10.686 0 005.44-6.805 10.64 10.64 0 00-1.451-8.597l-37.803-56.725 9.707-9.707 78.443 39.232a10.711 10.711 0 009.536 0l64-32c5.269-2.645 7.424-9.045 4.779-14.315-2.645-5.248-9.045-7.403-14.315-4.757l-59.221 29.611-80.555-40.299c-4.117-2.048-9.067-1.259-12.309 2.005L3.136 195.117a10.666 10.666 0 00-1.344 13.461l36.16 54.229C0 283.992 0 294.509 0 298.669c0 19.221 27.328 21.333 85.333 21.333 56.789 0 426.667-124.907 426.667-192 0-12.842-9.344-42.666-96-42.666z" />
    <path
      d="M319.915 137.346a10.673 10.673 0 00-7.531-8.896l-213.333-64c-3.755-1.131-7.808-.107-10.603 2.667l-42.667 42.667a10.644 10.644 0 00-3.029 8.96 10.692 10.692 0 005.291 7.851l149.333 85.333a10.68 10.68 0 005.291 1.408 10.73 10.73 0 005.483-1.515l106.667-64a10.7 10.7 0 005.098-10.475zm-117.398 52.971L70.741 115.01 99.05 86.722l184.064 55.232-80.597 48.363zM480 96.002c-46.037 0-70.443 23.381-71.467 24.363-4.181 4.117-4.245 10.795-.171 15.019 2.069 2.155 4.864 3.243 7.659 3.243 2.645 0 5.312-.981 7.381-2.944.789-.747 19.712-18.347 56.597-18.347 5.888 0 10.667-4.779 10.667-10.667S485.888 96.002 480 96.002zM426.389 349.4l-32-128c-1.429-5.739-7.275-9.195-12.928-7.765-5.717 1.429-9.195 7.211-7.765 12.928l29.909 119.701-27.392 13.696-90.603-110.72c-3.755-4.587-10.475-5.248-15.019-1.515-4.565 3.755-5.248 10.475-1.515 15.019l96 117.333a10.605 10.605 0 008.256 3.925c1.621 0 3.243-.363 4.821-1.152l42.667-21.333c4.46-2.24 6.785-7.275 5.569-12.117zM245.333 426.669H10.667C4.779 426.669 0 431.448 0 437.336s4.779 10.667 10.667 10.667h234.667c5.888 0 10.667-4.779 10.667-10.667-.001-5.888-4.78-10.667-10.668-10.667z" />
  </symbol>
  <symbol id="triproute" viewBox="0 0 512 512" fill="currentColor">
    <path
      d="M105 271c-24.813 0-45 20.187-45 45s20.187 45 45 45 45-20.187 45-45-20.187-45-45-45zm0 60c-8.271 0-15-6.729-15-15s6.729-15 15-15 15 6.729 15 15-6.729 15-15 15z" />
    <path
      d="M437 331h-17.58c-6.192-17.458-22.865-30-42.42-30-19.555 0-36.228 12.542-42.42 30H302c-16.542 0-30-13.458-30-30s13.458-30 30-30h105c4.734 0 9.276-2.322 12.044-6.059l71.998-96.989C504.753 149.675 512 127.906 512 105 512 47.103 464.897 0 407 0S302 47.103 302 105c0 22.892 7.238 44.648 20.933 62.919L377.184 241H302c-33.084 0-60 26.916-60 60s26.916 60 60 60h32.58c6.192 17.458 22.865 30 42.42 30s36.228-12.542 42.42-30H437c24.813 0 45 20.187 45 45 0 24.935-20.607 46-45 46H329.42c-6.192-17.458-22.865-30-42.42-30-19.555 0-36.228 12.542-42.42 30H134.816l54.226-73.048C202.753 360.675 210 338.906 210 316c0-57.897-47.103-105-105-105S0 258.103 0 316c0 22.906 7.247 44.675 20.913 62.892l71.835 96.769a15.01 15.01 0 0012.24 6.34l.168-.001H244.58c6.192 17.458 22.865 30 42.42 30s36.228-12.542 42.42-30H437c20.037 0 38.914-8.022 53.153-22.588C504.241 444.999 512 426.03 512 406c0-41.355-33.645-75-75-75zm-89.999-180.99l-.045-.06C337.172 136.907 332 121.363 332 105c0-41.355 33.645-75 75-75s75 33.645 75 75c0 16.363-5.172 31.907-15.001 45.01L407 230.834l-59.999-80.824zM377 361c-8.271 0-15-6.729-15-15s6.729-15 15-15 15 6.729 15 15-6.729 15-15 15zm-272 80.834L44.956 360.95C35.172 347.907 30 332.363 30 316c0-41.355 33.645-75 75-75s75 33.645 75 75c0 16.363-5.172 31.907-15.001 45.01L105 441.834zM287 482c-8.271 0-15-6.729-15-15s6.729-15 15-15 15 6.729 15 15-6.729 15-15 15z" />
    <path
      d="M407 60c-24.813 0-45 20.187-45 45s20.187 45 45 45 45-20.187 45-45-20.187-45-45-45zm0 60c-8.271 0-15-6.729-15-15s6.729-15 15-15 15 6.729 15 15-6.729 15-15 15z" />
  </symbol>

  <!-- Flaticons -->
  <!-- Customer Support -->
  <symbol id="customersupport" viewBox="0 0 496 496">
    <path fill="currentColor"
      d="M402.524 432l-18.52-55.568a56.001 56.001 0 00-43.112-37.384l-53.464-9.728v-4.144c9.304-5.4 17.4-12.624 23.848-21.176h16.152c13.232 0 24-10.768 24-24v-96c0-57.344-46.656-104-104-104s-104 46.656-104 104v56c0 15.424 10.968 28.328 25.512 31.336 4.488 22.992 18.856 42.448 38.488 53.84v4.144l-53.472 9.728a55.99 55.99 0 00-43.104 37.384l-3.2 9.608-27.248-27.248c-3.12-3.12-3.12-8.2 0-11.32l31.6-31.592-59.312-59.312L16.98 292.28C6.404 302.856.58 316.92.58 331.88s5.824 29.016 16.4 39.592l108.12 108.12C135.676 490.168 149.74 496 164.7 496s29.016-5.832 39.344-16.168l38.968-35.704L230.86 432h171.664zm-67.096-152c0 4.416-3.592 8-8 8H320.7a79.46 79.46 0 005.216-16.664c3.424-.712 6.576-2.072 9.512-3.784V280zm-8-26.224v-27.552c4.76 2.776 8 7.88 8 13.776s-3.24 11-8 13.776zm-160 0c-4.76-2.776-8-7.88-8-13.776s3.24-11 8-13.776v27.552zm0-53.776v9.136a31.73 31.73 0 00-8 3.312V184c0-48.52 39.48-88 88-88s88 39.48 88 88v28.448a31.44 31.44 0 00-8-3.312V200h-8c-23.656 0-45.896-9.216-62.632-25.944l-9.368-9.368-9.368 9.368C221.324 190.784 199.084 200 175.428 200h-8zm16 56v-40.304c24.024-1.808 46.424-11.72 64-28.432 17.576 16.712 39.976 26.632 64 28.432V256c0 11.664-3.184 22.576-8.656 32h-55.344v16h42.192c-11.28 9.928-26.024 16-42.192 16-35.288 0-64-28.712-64-64zm88 76.312v.376l-24 24-24-24v-.376c7.584 2.384 15.64 3.688 24 3.688s16.416-1.304 24-3.688zM126.02 381.488a40.014 40.014 0 0130.792-26.712l55.92-10.16 34.696 34.696 34.688-34.688 55.912 10.16a40 40 0 0130.792 26.712L380.332 416H214.86l-31.16-31.16-34.624 31.32c-3.016 3.032-8.288 3.032-11.312 0l-17.472-17.472 5.728-17.2zM52.684 279.192l36.688 36.688-8.688 8.688-36.688-36.688 8.688-8.688zm140.28 189.104c-7.552 7.536-17.6 11.704-28.28 11.704s-20.728-4.168-28.288-11.72L28.276 360.168c-7.552-7.552-11.712-17.6-11.712-28.28 0-10.688 4.16-20.736 11.712-28.288l4.4-4.4 36.688 36.688-.288.288c-9.352 9.36-9.352 24.584 0 33.944l57.368 57.368c4.536 4.528 10.56 7.032 16.976 7.032s12.44-2.496 16.68-6.752l.6-.536 36.856 36.856-4.592 4.208zm16.4-15.04l-36.776-36.776 10.568-9.552 36.712 36.712-10.504 9.616zM471.428 0h-112c-13.232 0-24 10.768-24 24v64c0 13.232 10.768 24 24 24h21.368l-8.272 48.248 77.2-48.248h21.704c13.232 0 24-10.768 24-24V24c0-13.232-10.768-24-24-24zm8 88c0 4.408-3.592 8-8 8h-26.296l-50.808 31.752L399.772 96h-40.344c-4.408 0-8-3.592-8-8V24c0-4.408 3.592-8 8-8h112c4.408 0 8 3.592 8 8v64z" />
    <path fill="currentColor"
      d="M367.428 32h96v16h-96zM367.428 64h64v16h-64zM447.428 64h16v16h-16zM247.428 24C142.9 24 52.86 96.304 29.452 197.16l-15.16-25.272-13.72 8.232 28.12 46.856 46.856-28.12-8.232-13.72-21.68 13.008C68.308 105.88 151.276 40 247.428 40c21.016 0 41.752 3.12 61.632 9.28L313.796 34c-21.416-6.64-43.744-10-66.368-10zM491.54 177.136l-46.856-28.12-28.112 46.864 13.72 8.232 14-23.336c7.368 21.56 11.136 44.112 11.136 67.224 0 47.576-16.48 94.088-46.392 130.96l12.424 10.08c32.224-39.712 49.968-89.808 49.968-141.04 0-24.472-3.944-48.368-11.632-71.248l23.512 14.104 8.232-13.72z" />
  </symbol>

  <!-- Feathericons -->
  <!-- Facebook -->
  <symbol id="facebook" viewBox="0 0 24 24" stroke="currentColor" stroke-width="2" fill="none" stroke-linecap="round"
    stroke-linejoin="round">
    <path d="M18 2h-3a5 5 0 0 0-5 5v3H7v4h3v8h4v-8h3l1-4h-4V7a1 1 0 0 1 1-1h3z"></path>
  </symbol>
  <!-- Instagram -->
  <symbol id="instagram" viewBox="0 0 24 24" stroke="currentColor" stroke-width="2" fill="none" stroke-linecap="round"
    stroke-linejoin="round">
    <rect x="2" y="2" width="20" height="20" rx="5" ry="5"></rect>
    <path d="M16 11.37A4 4 0 1 1 12.63 8 4 4 0 0 1 16 11.37z"></path>
    <line x1="17.5" y1="6.5" x2="17.51" y2="6.5"></line>
  </symbol>
  <!-- Twitter -->
  <symbol id="twitter" viewBox="0 0 24 24" stroke="currentColor" stroke-width="2" fill="none" stroke-linecap="round"
    stroke-linejoin="round">
    <path
      d="M23 3a10.9 10.9 0 0 1-3.14 1.53 4.48 4.48 0 0 0-7.86 3v1A10.66 10.66 0 0 1 3 4s-4 9 5 13a11.64 11.64 0 0 1-7 2c9 5 20 0 20-11.5a4.5 4.5 0 0 0-.08-.83A7.72 7.72 0 0 0 23 3z">
    </path>
  </symbol>

  <!-- Fontawesome -->
  <!-- Facebook Messenger -->
  <symbol id="facebookmessenger" viewBox="0 0 512 512" fill="currentColor">
    <path
      d="M256.55 8C116.52 8 8 110.34 8 248.57c0 72.3 29.71 134.78 78.07 177.94 8.35 7.51 6.63 11.86 8.05 58.23A19.92 19.92 0 00122 502.31c52.91-23.3 53.59-25.14 62.56-22.7C337.85 521.8 504 423.7 504 248.57 504 110.34 396.59 8 256.55 8zm149.24 185.13l-73 115.57a37.37 37.37 0 01-53.91 9.93l-58.08-43.47a15 15 0 00-18 0l-78.37 59.44c-10.46 7.93-24.16-4.6-17.11-15.67l73-115.57a37.36 37.36 0 0153.91-9.93l58.06 43.46a15 15 0 0018 0l78.41-59.38c10.44-7.98 24.14 4.54 17.09 15.62z" />
  </symbol>

  <!-- Skype -->
  <symbol id="skype" viewBox="0 0 448 512" fill="currentColor">
    <path
      d="M424.7 299.8c2.9-14 4.7-28.9 4.7-43.8 0-113.5-91.9-205.3-205.3-205.3-14.9 0-29.7 1.7-43.8 4.7C161.3 40.7 137.7 32 112 32 50.2 32 0 82.2 0 144c0 25.7 8.7 49.3 23.3 68.2-2.9 14-4.7 28.9-4.7 43.8 0 113.5 91.9 205.3 205.3 205.3 14.9 0 29.7-1.7 43.8-4.7 19 14.6 42.6 23.3 68.2 23.3 61.8 0 112-50.2 112-112 .1-25.6-8.6-49.2-23.2-68.1zm-194.6 91.5c-65.6 0-120.5-29.2-120.5-65 0-16 9-30.6 29.5-30.6 31.2 0 34.1 44.9 88.1 44.9 25.7 0 42.3-11.4 42.3-26.3 0-18.7-16-21.6-42-28-62.5-15.4-117.8-22-117.8-87.2 0-59.2 58.6-81.1 109.1-81.1 55.1 0 110.8 21.9 110.8 55.4 0 16.9-11.4 31.8-30.3 31.8-28.3 0-29.2-33.5-75-33.5-25.7 0-42 7-42 22.5 0 19.8 20.8 21.8 69.1 33 41.4 9.3 90.7 26.8 90.7 77.6 0 59.1-57.1 86.5-112 86.5z" />
  </symbol>

  <!-- Viber -->
  <symbol id="viber" viewBox="0 0 512 512" fill="currentColor">
    <path
      d="M444 49.9C431.3 38.2 379.9.9 265.3.4c0 0-135.1-8.1-200.9 52.3C27.8 89.3 14.9 143 13.5 209.5c-1.4 66.5-3.1 191.1 117 224.9h.1l-.1 51.6s-.8 20.9 13 25.1c16.6 5.2 26.4-10.7 42.3-27.8 8.7-9.4 20.7-23.2 29.8-33.7 82.2 6.9 145.3-8.9 152.5-11.2 16.6-5.4 110.5-17.4 125.7-142 15.8-128.6-7.6-209.8-49.8-246.5zM457.9 287c-12.9 104-89 110.6-103 115.1-6 1.9-61.5 15.7-131.2 11.2 0 0-52 62.7-68.2 79-5.3 5.3-11.1 4.8-11-5.7 0-6.9.4-85.7.4-85.7-.1 0-.1 0 0 0-101.8-28.2-95.8-134.3-94.7-189.8 1.1-55.5 11.6-101 42.6-131.6 55.7-50.5 170.4-43 170.4-43 96.9.4 143.3 29.6 154.1 39.4 35.7 30.6 53.9 103.8 40.6 211.1zm-139-80.8c.4 8.6-12.5 9.2-12.9.6-1.1-22-11.4-32.7-32.6-33.9-8.6-.5-7.8-13.4.7-12.9 27.9 1.5 43.4 17.5 44.8 46.2zm20.3 11.3c1-42.4-25.5-75.6-75.8-79.3-8.5-.6-7.6-13.5.9-12.9 58 4.2 88.9 44.1 87.8 92.5-.1 8.6-13.1 8.2-12.9-.3zm47 13.4c.1 8.6-12.9 8.7-12.9.1-.6-81.5-54.9-125.9-120.8-126.4-8.5-.1-8.5-12.9 0-12.9 73.7.5 133 51.4 133.7 139.2zM374.9 329v.2c-10.8 19-31 40-51.8 33.3l-.2-.3c-21.1-5.9-70.8-31.5-102.2-56.5-16.2-12.8-31-27.9-42.4-42.4-10.3-12.9-20.7-28.2-30.8-46.6-21.3-38.5-26-55.7-26-55.7-6.7-20.8 14.2-41 33.3-51.8h.2c9.2-4.8 18-3.2 23.9 3.9 0 0 12.4 14.8 17.7 22.1 5 6.8 11.7 17.7 15.2 23.8 6.1 10.9 2.3 22-3.7 26.6l-12 9.6c-6.1 4.9-5.3 14-5.3 14s17.8 67.3 84.3 84.3c0 0 9.1.8 14-5.3l9.6-12c4.6-6 15.7-9.8 26.6-3.7 14.7 8.3 33.4 21.2 45.8 32.9 7 5.7 8.6 14.4 3.8 23.6z" />
  </symbol>

  <!-- Weixin -->
  <symbol id="weixin" viewBox="0 0 576 512" fill="currentColor">
    <path
      d="M385.2 167.6c6.4 0 12.6.3 18.8 1.1C387.4 90.3 303.3 32 207.7 32 100.5 32 13 104.8 13 197.4c0 53.4 29.3 97.5 77.9 131.6l-19.3 58.6 68-34.1c24.4 4.8 43.8 9.7 68.2 9.7 6.2 0 12.1-.3 18.3-.8-4-12.9-6.2-26.6-6.2-40.8-.1-84.9 72.9-154 165.3-154zm-104.5-52.9c14.5 0 24.2 9.7 24.2 24.4 0 14.5-9.7 24.2-24.2 24.2-14.8 0-29.3-9.7-29.3-24.2.1-14.7 14.6-24.4 29.3-24.4zm-136.4 48.6c-14.5 0-29.3-9.7-29.3-24.2 0-14.8 14.8-24.4 29.3-24.4 14.8 0 24.4 9.7 24.4 24.4 0 14.6-9.6 24.2-24.4 24.2zM563 319.4c0-77.9-77.9-141.3-165.4-141.3-92.7 0-165.4 63.4-165.4 141.3S305 460.7 397.6 460.7c19.3 0 38.9-5.1 58.6-9.9l53.4 29.3-14.8-48.6C534 402.1 563 363.2 563 319.4zm-219.1-24.5c-9.7 0-19.3-9.7-19.3-19.6 0-9.7 9.7-19.3 19.3-19.3 14.8 0 24.4 9.7 24.4 19.3 0 10-9.7 19.6-24.4 19.6zm107.1 0c-9.7 0-19.3-9.7-19.3-19.6 0-9.7 9.7-19.3 19.3-19.3 14.5 0 24.4 9.7 24.4 19.3.1 10-9.9 19.6-24.4 19.6z" />
  </symbol>

  <!-- Whatsapp -->
  <symbol id="whatsapp" viewBox="0 0 448 512" fill="currentColor">
    <path
      d="M380.9 97.1C339 55.1 283.2 32 223.9 32c-122.4 0-222 99.6-222 222 0 39.1 10.2 77.3 29.6 111L0 480l117.7-30.9c32.4 17.7 68.9 27 106.1 27h.1c122.3 0 224.1-99.6 224.1-222 0-59.3-25.2-115-67.1-157zm-157 341.6c-33.2 0-65.7-8.9-94-25.7l-6.7-4-69.8 18.3L72 359.2l-4.4-7c-18.5-29.4-28.2-63.3-28.2-98.2 0-101.7 82.8-184.5 184.6-184.5 49.3 0 95.6 19.2 130.4 54.1 34.8 34.9 56.2 81.2 56.1 130.5 0 101.8-84.9 184.6-186.6 184.6zm101.2-138.2c-5.5-2.8-32.8-16.2-37.9-18-5.1-1.9-8.8-2.8-12.5 2.8-3.7 5.6-14.3 18-17.6 21.8-3.2 3.7-6.5 4.2-12 1.4-32.6-16.3-54-29.1-75.5-66-5.7-9.8 5.7-9.1 16.3-30.3 1.8-3.7.9-6.9-.5-9.7-1.4-2.8-12.5-30.1-17.1-41.2-4.5-10.8-9.1-9.3-12.5-9.5-3.2-.2-6.9-.2-10.6-.2-3.7 0-9.7 1.4-14.8 6.9-5.1 5.6-19.4 19-19.4 46.3 0 27.3 19.9 53.7 22.6 57.4 2.8 3.7 39.1 59.7 94.8 83.8 35.2 15.2 49 16.5 66.6 13.9 10.7-1.6 32.8-13.4 37.4-26.4 4.6-13 4.6-24.1 3.2-26.4-1.3-2.5-5-3.9-10.5-6.6z" />
  </symbol>
</svg>