<svg xmlns="http://www.w3.org/2000/svg" viewBox="0 0 72.22 96.4"><defs><style>.cls-1{fill:#fff;}.cls-2{fill:#0b8944;}</style></defs><title>taan</title><g id="Layer_2" data-name="Layer 2"><g id="Layer_1-2" data-name="Layer 1"><circle class="cls-1" cx="30.93" cy="47.39" r="30.93"/><path class="cls-2" d="M2.58,53.7a3,3,0,0,1-.43,0v.17a.82.82,0,0,1,.1.24,29.71,29.71,0,0,0,2.3,6.41,29.18,29.18,0,0,0,7.64,9.66,28.79,28.79,0,0,0,9.53,5.29A29.11,29.11,0,0,0,32,76.9a28.74,28.74,0,0,0,5.16-.61,29.53,29.53,0,0,0,22-20c.25-.83.44-1.66.69-2.57ZM46.37,68.31A11,11,0,0,1,38.67,73c-1.43.18-2.89.15-4.34.22a.31.31,0,0,0,0-.1,29.15,29.15,0,0,1-3.37,0c-1.82-.18-3.63-.48-5.42-.79-2.65-.46-5.29-1-7.94-1.46l-.34-.07c-.39-.1-.54-.31-.46-.67a7.92,7.92,0,0,0,0-3.9,4.51,4.51,0,0,1,.15-2.67,22.26,22.26,0,0,1,2.53-5.33c.84-1.16.66-1,1.84-.64a35.81,35.81,0,0,0,8.15,1.5,34,34,0,0,0,6.14,0c1.58-.16,3.12-.46,4.68-.72.54-.08.69,0,.86.51a9.18,9.18,0,0,0,3.15,4.65,6.05,6.05,0,0,1,2.25,4.32A.62.62,0,0,1,46.37,68.31Z"/><path class="cls-2" d="M26.07,18.36A28.69,28.69,0,0,0,7,30.31,28.49,28.49,0,0,0,2.29,40.69H59.73A29.38,29.38,0,0,0,26.07,18.36ZM41.59,34.68H40.11v4.59c-.41-.22-.75-.37-1.06-.56-.09-.05-.12-.25-.13-.36V36.44h-3c0,.3,0,.56,0,.82s-.08.36-.18.4a.56.56,0,0,1-.49-.07,8.86,8.86,0,0,1-1-1,.44.44,0,0,1,.29-.73,1.79,1.79,0,0,1,.4,0h4v-1.1H31.39v4.55c-.39-.22-.72-.37-1-.56a.57.57,0,0,1-.11-.38c0-1,0-2.1,0-3.15v-.5H28.76c-.46,0-.92,0-1.36,0-.26,0-.34.08-.34.35s0,.77,0,1.16,0,.5-.5.53c-.83,0-1.66.08-2.48.16a1.78,1.78,0,0,0-.7.32.59.59,0,0,0,.09,1.11,3.38,3.38,0,0,0,2,.28c.74-.1,1.44-.28,2.16-.42.27-.05.5.06.94.57-.66.15-1.26.36-1.87.44a5.64,5.64,0,0,1-3.09-.36,2.64,2.64,0,0,1-.81-.47,1.19,1.19,0,0,1,.42-2.11A10.7,10.7,0,0,1,25.48,36c.28,0,.38,0,.38-.31s0-.6,0-1H21.75c-.2,0-.38,0-.39-.28s.16-.29.37-.29H41.59c.23,0,.38,0,.38.31S41.79,34.68,41.59,34.68Zm8.61-2.15c-.05.48-.1.82-.13,1.22-.4,0-.74-.1-1.1-.17,0,0-.12-.16-.1-.24.11-1.58-.28-1.61-1.53-2.09a2.8,2.8,0,0,0-2.69.13,2.27,2.27,0,0,0-1.12,1.82c0,.35-.15.65-.52.73a.64.64,0,0,1-.76-.54,2.77,2.77,0,0,0-3.81-1.91,2.47,2.47,0,0,0-1.15,1c-.44.77-.66.8-1.38.24a6.29,6.29,0,0,0-6.78-.65,8.11,8.11,0,0,0-1.66,1.15c-.27-.25-.53-.53-.81-.79,1.92-2.51,6.82-3.14,9.74-.92A3.89,3.89,0,0,1,39.57,30a4,4,0,0,1,3.17,1.53,4.36,4.36,0,0,1,3.35-1.89,14,14,0,0,0-.92-1.13,5.86,5.86,0,0,0-2.92-1.45,12.52,12.52,0,0,1-3.4-1.3,5.61,5.61,0,0,0-2.65-.82,4.84,4.84,0,0,0-2.2.58c-.57.28-.83.18-1.11-.4a3.84,3.84,0,0,0-5.67-1.46,4.26,4.26,0,0,0-.76.77.89.89,0,0,1-.95.45,4,4,0,0,0-3.58,1.38,3.35,3.35,0,0,0-.48.64l2.47,1.44c-.28.38-.51.69-.76,1.05l-.85-.55a5.31,5.31,0,0,0-3.57-1,9.6,9.6,0,0,0-4.89,2c-.59.46-1.17.94-1.79,1.45-.26-.3-.51-.59-.81-.92l1.35-1.15a11.24,11.24,0,0,1,5.6-2.61,8.08,8.08,0,0,1,1.63-.05.5.5,0,0,0,.52-.27,5.32,5.32,0,0,1,4.85-2.77.72.72,0,0,0,.49-.2,5.08,5.08,0,0,1,8,.64c0,.05.05.08.07.08.74-.14,1.43-.34,2.14-.41a5.22,5.22,0,0,1,3,.73A17.51,17.51,0,0,0,43.14,26a6,6,0,0,1,4.32,3.75.65.65,0,0,0,.37.32,16.6,16.6,0,0,1,5.64,3.44c.08.08.13.16.24.28-.31.26-.59.52-.88.75Z"/><path class="cls-2" d="M52.9,8.77c-1.86,4-3.69,7.9-5.53,11.86L40.85,17.8l.85-2.56c1.07-3.18,2.13-6.36,3.21-9.53.13-.38,0-.48-.33-.56A72.31,72.31,0,0,0,35.7,3.49c-2-.24-4-.44-6-.62a99.54,99.54,0,0,0-10.65-.3c-1.13,0-2.27.11-3.43.11a10.45,10.45,0,0,1,1.29-.46c1.79-.41,3.57-.88,5.38-1.16,2.32-.35,4.67-.58,7-.79C30.79.13,32.27.07,33.74,0c1.69,0,3.38-.07,5.06,0,2.09.11,4.18.3,6.27.52A34.78,34.78,0,0,1,52.2,2.06,36.53,36.53,0,0,1,65.82,9.71c2,1.8,3.74,3.77,5.55,5.71a3.64,3.64,0,0,1,.85,2.45,6.4,6.4,0,0,1-2.39,5c-.3.28-.66.5-1,.76s-.45.19-.68-.12c-1.21-1.63-2.42-3.27-3.71-4.85a40.34,40.34,0,0,0-8.89-8.31C54.71,9.81,53.82,9.32,52.9,8.77Z"/><path class="cls-2" d="M55.85,52.34c-.67,0-1.31,0-2,0-.09,0-.2-.13-.26-.23-1.28-2-2.54-4-3.81-6a.75.75,0,0,0-.31-.3v6.48h-1.9V42.24c.64,0,1.28,0,1.91,0,.09,0,.21.17.28.28l3.81,6a1.08,1.08,0,0,0,.33.35V42.27h1.91Z"/><path class="cls-2" d="M12.9,96.36,13.17,95A93.8,93.8,0,0,1,17.76,79.9a17.24,17.24,0,0,1,1-2.22,1.79,1.79,0,0,1,2-.93A1.34,1.34,0,0,1,22,78.08a4.61,4.61,0,0,1-.24,1.7,85,85,0,0,1-7.65,15l-.81,1.28c-.08.12-.18.23-.27.35Z"/><path class="cls-2" d="M28,52.13l-4-9.66a.62.62,0,0,0-.38-.23c-.51,0-1,0-1.51,0a.56.56,0,0,0-.61.4q-1.84,4.65-3.71,9.31a3.68,3.68,0,0,0-.15.41c.66,0,1.27,0,1.88,0a.37.37,0,0,0,.42-.3c.22-.57.45-1.15.64-1.72a.43.43,0,0,1,.48-.33c1.17,0,2.33,0,3.5,0a.44.44,0,0,1,.49.33c.22.57.45,1.15.69,1.72,0,.12.17.26.26.26.68,0,1.35,0,2.06,0C28,52.24,28,52.18,28,52.13Zm-6.65-3.78c.48-1.25.92-2.46,1.38-3.66l.1,0c.47,1.2.93,2.4,1.44,3.68Z"/><path class="cls-2" d="M42.46,52.16c-1.33-3.22-2.67-6.46-4-9.67a.53.53,0,0,0-.36-.25c-.54,0-1.07,0-1.6,0a.48.48,0,0,0-.51.36c-1.14,2.91-2.31,5.8-3.48,8.69-.13.35-.26.69-.41,1.07.69,0,1.3,0,1.91,0,.23,0,.33-.1.41-.32.2-.57.43-1.13.62-1.7a.42.42,0,0,1,.45-.33h3.59a.4.4,0,0,1,.43.29c.21.6.44,1.19.69,1.78a.54.54,0,0,0,.28.26c.66,0,1.33,0,2,0A.47.47,0,0,0,42.46,52.16Zm-6.68-3.81c.47-1.27.93-2.46,1.38-3.66a.26.26,0,0,1,.11,0c.48,1.22.94,2.41,1.43,3.68Z"/><path class="cls-2" d="M14.37,43.91c-.93,0-1.79,0-2.64,0-.39,0-.48.12-.48.48,0,2.46,0,4.91,0,7.36,0,.68.05.59-.61.6H9.2V43.91H7c-.94,0-.94,0-.93-.93s-.11-.74.73-.75c2.36,0,4.73,0,7.09,0,.38,0,.5.12.47.49A11.87,11.87,0,0,0,14.37,43.91Z"/><path class="cls-2" d="M40.2,59.38,41.42,62a3.23,3.23,0,0,0-1.69,2.25,7.62,7.62,0,0,0-.2,1.5,26.58,26.58,0,0,1-.68,4.79.35.35,0,0,1-.06.09,5.33,5.33,0,0,0-6.25-1.82,3.94,3.94,0,0,0-1.68,1.63A6.1,6.1,0,0,0,26.67,67a6.21,6.21,0,0,0-5.27,1c-.25-.26-.46-.52-.7-.75a3.66,3.66,0,0,0-2.65-1.12c-.31,0-.37-.17-.37-.38A6.56,6.56,0,0,1,17.8,64a20,20,0,0,1,2.5-5.33.46.46,0,0,1,.6-.22A32.55,32.55,0,0,0,29.47,60a47.3,47.3,0,0,0,5.05.12c1.83-.11,3.64-.47,5.46-.71Z"/><path class="cls-2" d="M30.29,72.2l-8.11-1.5c-.1-.57-.2-1.09-.28-1.63,0-.08.07-.21.15-.27a4.29,4.29,0,0,1,2.5-.93,5.92,5.92,0,0,1,3,.46,5,5,0,0,1,2.65,3.23A4.4,4.4,0,0,1,30.29,72.2Z"/><path class="cls-2" d="M38.5,72.14H31.34a2.93,2.93,0,0,1,2.73-2.79,4.26,4.26,0,0,1,4.14,2.16C38.3,71.67,38.37,71.85,38.5,72.14Z"/><path class="cls-2" d="M39.61,71.81c.2-1.08.42-2.16.58-3.24s.18-2,.32-3a7.8,7.8,0,0,1,.39-1.72,4.31,4.31,0,0,1,.69-.93l.14.06a4.38,4.38,0,0,1,0,.51c.06,2.36.11,4.72.19,7.07,0,.3-.06.49-.35.6l-1.9.77Z"/><path class="cls-2" d="M42.73,63.57a5.61,5.61,0,0,1,2.76,3.84.79.79,0,0,1-.16.71,9.71,9.71,0,0,1-2.41,2.23Z"/><path class="cls-2" d="M21.09,70.52l-3.17-.6V67.23C19.35,66.94,21.33,68.83,21.09,70.52Z"/></g></g></svg>