<?xml version="1.0" encoding="UTF-8" standalone="no"?>
<!DOCTYPE svg PUBLIC "-//W3C//DTD SVG 1.1//EN" "http://www.w3.org/Graphics/SVG/1.1/DTD/svg11.dtd">
<svg width="100%" height="100%" viewBox="0 0 53 53" version="1.1" xmlns="http://www.w3.org/2000/svg" xmlns:xlink="http://www.w3.org/1999/xlink" xml:space="preserve" xmlns:serif="http://www.serif.com/" style="fill-rule:evenodd;clip-rule:evenodd;stroke-linejoin:round;stroke-miterlimit:2;">
    <g transform="matrix(1,0,0,1,-115,-312)">
        <g transform="matrix(1,0,0,1,115.016,61.564)">
            <rect id="tailor-made" x="0" y="250.677" width="52" height="52" style="fill:none;"/>
            <g id="tailor-made1" serif:id="tailor-made">
                <g transform="matrix(2.10901,0,0,2.10901,-271.405,-436.676)">
                    <path d="M136.389,342.218L137.651,339.063C137.852,338.56 138.153,338.103 138.536,337.721L145.456,330.803C145.853,330.405 146.393,330.181 146.956,330.181C148.119,330.181 149.077,331.139 149.077,332.303C149.077,332.865 148.853,333.405 148.456,333.803L141.536,340.721C141.153,341.104 140.696,341.406 140.193,341.607L137.039,342.869C136.98,342.892 136.917,342.904 136.853,342.904C136.579,342.904 136.353,342.679 136.353,342.404C136.353,342.341 136.365,342.277 136.389,342.218ZM134.456,334.051L134.456,343.551C134.456,344.241 135.016,344.801 135.706,344.801L145.206,344.801C145.896,344.801 146.456,344.241 146.456,343.551L146.456,338.301C146.456,337.889 146.794,337.551 147.206,337.551C147.617,337.551 147.956,337.889 147.956,338.301L147.956,343.551C147.956,345.059 146.714,346.301 145.206,346.301L135.706,346.301C134.197,346.301 132.956,345.059 132.956,343.551L132.956,334.051C132.956,332.542 134.197,331.301 135.706,331.301L140.956,331.301C141.367,331.301 141.706,331.639 141.706,332.051C141.706,332.462 141.367,332.801 140.956,332.801L135.706,332.801C135.016,332.801 134.456,333.361 134.456,334.051Z" style="fill:rgb(8,161,226);"/>
                </g>
            </g>
        </g>
    </g>
</svg>
