<?xml version="1.0" encoding="UTF-8" standalone="no"?>
<!DOCTYPE svg PUBLIC "-//W3C//DTD SVG 1.1//EN" "http://www.w3.org/Graphics/SVG/1.1/DTD/svg11.dtd">
<svg width="100%" height="100%" viewBox="0 0 53 53" version="1.1" xmlns="http://www.w3.org/2000/svg" xmlns:xlink="http://www.w3.org/1999/xlink" xml:space="preserve" xmlns:serif="http://www.serif.com/" style="fill-rule:evenodd;clip-rule:evenodd;stroke-linejoin:round;stroke-miterlimit:2;">
    <g transform="matrix(1,0,0,1,-168,-119)">
        <g transform="matrix(1,0,0,1,168.732,119.946)">
            <rect id="when" x="0" y="0" width="52" height="52" style="fill:none;"/>
            <g id="when1" serif:id="when">
                <g transform="matrix(1,0,0,1,-169.482,-119.946)">
                    <path d="M205.964,166.946L180.95,166.946C176.99,166.946 173.732,163.687 173.732,159.727L173.732,137.414C173.732,133.454 176.99,130.196 180.95,130.196L181.607,130.196L181.607,126.914C181.607,125.834 182.495,124.946 183.575,124.946C184.656,124.946 185.544,125.834 185.544,126.914L185.544,130.196L203.919,130.196L203.919,126.914C203.919,125.834 204.808,124.946 205.888,124.946C206.968,124.946 207.857,125.834 207.857,126.914L207.857,130.196L208.513,130.196C212.473,130.196 215.732,133.454 215.732,137.414L215.732,154.347C217.839,155.794 219.232,158.22 219.232,160.946C219.232,165.334 215.62,168.946 211.232,168.946C209.222,168.946 207.375,168.188 205.964,166.946ZM211.794,152.966L211.794,142.664C211.794,140.853 210.324,139.383 208.513,139.383L180.95,139.383C179.139,139.383 177.669,140.853 177.669,142.664L177.669,159.727C177.669,161.538 179.139,163.008 180.95,163.008L203.505,163.008C203.327,162.349 203.232,161.658 203.232,160.946C203.232,156.557 206.843,152.946 211.232,152.946C211.421,152.946 211.608,152.952 211.794,152.966ZM207.452,162.226L209.952,164.726C210.092,164.866 210.283,164.945 210.482,164.945C210.722,164.945 210.948,164.831 211.089,164.637L215.089,159.137C215.182,159.008 215.232,158.854 215.232,158.696C215.232,158.284 214.893,157.945 214.482,157.945C214.242,157.945 214.016,158.061 213.875,158.255L210.392,163.045L208.512,161.165C208.37,161.019 208.176,160.936 207.973,160.936C207.561,160.936 207.223,161.275 207.223,161.686C207.223,161.889 207.305,162.084 207.452,162.226ZM184.219,154.477L184.245,154.477C185.325,154.477 186.214,155.366 186.214,156.446L186.214,156.472C186.214,157.552 185.325,158.441 184.245,158.441L184.219,158.441C183.132,158.441 182.25,157.559 182.25,156.472L182.25,156.446C182.25,155.366 183.139,154.477 184.219,154.477ZM182.25,151.196C182.25,150.116 183.139,149.227 184.219,149.227L184.245,149.227C185.325,149.227 186.214,150.116 186.214,151.196L186.214,151.222C186.214,152.302 185.325,153.191 184.245,153.191L184.219,153.191C183.139,153.191 182.25,152.302 182.25,151.222L182.25,151.196ZM199.969,154.477L199.995,154.477C201.075,154.477 201.964,155.366 201.964,156.446L201.964,156.472C201.964,157.552 201.075,158.441 199.995,158.441L199.969,158.441C198.882,158.441 198,157.559 198,156.472L198,156.446C198,155.366 198.889,154.477 199.969,154.477ZM203.25,145.946C203.25,144.866 204.139,143.977 205.219,143.977L205.245,143.977C206.325,143.977 207.214,144.866 207.214,145.946L207.214,145.972C207.214,147.052 206.325,147.941 205.245,147.941L205.219,147.941C204.139,147.941 203.25,147.052 203.25,145.972L203.25,145.946ZM205.219,149.227L205.245,149.227C206.325,149.227 207.214,150.116 207.214,151.196L207.214,151.222C207.214,152.302 206.325,153.191 205.245,153.191L205.219,153.191C204.132,153.191 203.25,152.309 203.25,151.222L203.25,151.196C203.25,150.116 204.139,149.227 205.219,149.227ZM192.75,156.446C192.75,155.366 193.639,154.477 194.719,154.477L194.745,154.477C195.825,154.477 196.714,155.366 196.714,156.446L196.714,156.472C196.714,157.552 195.825,158.441 194.745,158.441L194.719,158.441C193.639,158.441 192.75,157.552 192.75,156.472L192.75,156.446ZM199.969,143.977L199.995,143.977C201.075,143.977 201.964,144.866 201.964,145.946L201.964,145.972C201.964,147.052 201.075,147.941 199.995,147.941L199.969,147.941C198.882,147.941 198,147.059 198,145.972L198,145.946C198,144.866 198.889,143.977 199.969,143.977ZM198,151.196C198,150.116 198.889,149.227 199.969,149.227L199.995,149.227C201.075,149.227 201.964,150.116 201.964,151.196L201.964,151.222C201.964,152.302 201.075,153.191 199.995,153.191L199.969,153.191C198.889,153.191 198,152.302 198,151.222L198,151.196ZM194.719,149.227L194.745,149.227C195.825,149.227 196.714,150.116 196.714,151.196L196.714,151.222C196.714,152.302 195.825,153.191 194.745,153.191L194.719,153.191C193.632,153.191 192.75,152.309 192.75,151.222L192.75,151.196C192.75,150.116 193.639,149.227 194.719,149.227ZM187.5,151.196C187.5,150.116 188.389,149.227 189.469,149.227L189.495,149.227C190.575,149.227 191.464,150.116 191.464,151.196L191.464,151.222C191.464,152.302 190.575,153.191 189.495,153.191L189.469,153.191C188.389,153.191 187.5,152.302 187.5,151.222L187.5,151.196ZM192.75,145.946C192.75,144.866 193.639,143.977 194.719,143.977L194.745,143.977C195.825,143.977 196.714,144.866 196.714,145.946L196.714,145.972C196.714,147.052 195.825,147.941 194.745,147.941L194.719,147.941C193.639,147.941 192.75,147.052 192.75,145.972L192.75,145.946ZM189.469,154.477L189.495,154.477C190.575,154.477 191.464,155.366 191.464,156.446L191.464,156.472C191.464,157.552 190.575,158.441 189.495,158.441L189.469,158.441C188.382,158.441 187.5,157.559 187.5,156.472L187.5,156.446C187.5,155.366 188.389,154.477 189.469,154.477Z" style="fill:rgb(8,161,226);"/>
                </g>
            </g>
        </g>
    </g>
</svg>
