<?xml version="1.0" encoding="UTF-8" standalone="no"?>
<!DOCTYPE svg PUBLIC "-//W3C//DTD SVG 1.1//EN" "http://www.w3.org/Graphics/SVG/1.1/DTD/svg11.dtd">
<svg width="100%" height="100%" viewBox="0 0 53 53" version="1.1" xmlns="http://www.w3.org/2000/svg" xmlns:xlink="http://www.w3.org/1999/xlink" xml:space="preserve" xmlns:serif="http://www.serif.com/" style="fill-rule:evenodd;clip-rule:evenodd;stroke-linejoin:round;stroke-miterlimit:2;">
    <g transform="matrix(1,0,0,1,-57,-312)">
        <g transform="matrix(1,0,0,1,57.5082,61.564)">
            <rect id="location" x="0" y="250.677" width="52" height="52" style="fill:none;"/>
            <g id="location1" serif:id="location">
                <g transform="matrix(2.01726,0,0,2.01726,5.82741,255.494)">
                    <path d="M9.69,18.933L9.693,18.934C9.89,19.02 10,19 10,19C10,19 10.11,19.02 10.308,18.934L10.316,18.93L10.334,18.922C10.429,18.878 10.523,18.831 10.615,18.782C10.801,18.686 11.061,18.542 11.372,18.349C11.992,17.965 12.817,17.383 13.646,16.584C15.302,14.988 17,12.493 17,9C17,5.16 13.84,2 10,2C6.16,2 3,5.16 3,9C3,12.492 4.698,14.988 6.355,16.584C7.049,17.25 7.811,17.842 8.628,18.349C8.945,18.546 9.27,18.727 9.604,18.893L9.666,18.922L9.684,18.93L9.69,18.933ZM10,11.25C11.234,11.25 12.25,10.234 12.25,9C12.25,7.766 11.234,6.75 10,6.75C8.766,6.75 7.75,7.766 7.75,9C7.75,10.234 8.766,11.25 10,11.25Z" style="fill:rgb(8,161,226);"/>
                </g>
            </g>
        </g>
    </g>
</svg>
