<?xml version="1.0" standalone="no"?>
<!DOCTYPE svg PUBLIC "-//W3C//DTD SVG 20010904//EN"
 "http://www.w3.org/TR/2001/REC-SVG-20010904/DTD/svg10.dtd">
<svg version="1.0" xmlns="http://www.w3.org/2000/svg"
 width="513.000000pt" height="513.000000pt" viewBox="0 0 513.000000 513.000000"
 preserveAspectRatio="xMidYMid meet">
<metadata>
Created by potrace 1.14, written by Peter Selinger 2001-2017
</metadata>
<g transform="translate(0.000000,513.000000) scale(0.100000,-0.100000)"
fill="#000000" stroke="none">
<path d="M2541 3820 c-133 -111 -225 -180 -244 -184 -16 -3 -52 -6 -79 -6 -49
0 -50 -1 -172 -114 l-123 -114 -108 93 c-60 52 -114 91 -119 87 -6 -3 -99 -75
-207 -158 -190 -147 -199 -153 -267 -167 l-70 -14 -5 61 c-3 42 0 68 9 83 18
29 18 74 -1 99 -8 10 -15 27 -15 37 0 11 -8 17 -25 17 -20 0 -25 -5 -25 -23 0
-47 -32 -61 -132 -60 -106 2 -119 9 -185 94 -46 59 -50 69 -28 69 21 0 44 50
51 112 6 49 4 57 -21 86 -22 27 -34 32 -70 32 -27 0 -51 -7 -66 -19 -21 -17
-24 -28 -24 -90 -1 -80 -9 -100 -20 -45 -10 56 -53 94 -107 94 -55 0 -82 -19
-107 -75 -11 -24 -33 -64 -50 -89 -38 -54 -40 -102 -10 -196 11 -36 24 -94 30
-130 21 -138 45 -180 105 -180 34 0 35 -2 30 -27 -14 -69 -38 -236 -45 -323
-5 -52 -15 -124 -24 -160 -8 -36 -18 -94 -22 -130 l-6 -65 -190 -54 c-104 -30
-188 -55 -186 -57 2 -2 317 53 701 121 l698 125 684 -181 c393 -104 691 -178
703 -174 10 3 227 91 481 195 l461 188 652 -84 c359 -46 668 -86 687 -89 27
-3 30 -2 15 5 -24 11 -1342 280 -1372 280 -12 0 -233 -81 -491 -180 -258 -99
-474 -180 -479 -180 -5 0 -317 83 -691 184 l-682 184 -86 -25 c-47 -14 -88
-22 -91 -19 -3 3 -14 115 -25 248 -22 295 -28 280 103 236 l89 -30 127 110
128 110 3 -59 c2 -33 6 -59 10 -59 6 0 112 135 144 184 5 7 34 -16 77 -58 l69
-69 -139 -208 c-76 -115 -139 -211 -139 -214 0 -3 95 58 211 136 162 108 214
138 220 127 5 -7 19 -39 31 -70 l23 -58 118 0 117 0 111 -55 111 -56 -57 -65
c-32 -36 -56 -66 -54 -68 2 -2 100 76 217 174 l213 178 142 7 142 8 165 94
c91 52 169 95 174 96 25 5 22 -59 -10 -209 -19 -87 -33 -162 -31 -167 1 -5 58
82 126 193 l124 202 21 -24 c12 -12 63 -66 114 -119 l92 -96 -85 -68 c-47 -38
-85 -72 -85 -77 0 -4 65 -8 144 -8 79 0 151 -3 160 -6 10 -4 16 -18 16 -39 l0
-32 132 -7 131 -7 200 -100 c109 -55 201 -98 203 -96 2 2 -102 88 -231 190
-233 185 -235 186 -303 199 l-69 13 -267 240 c-146 132 -270 241 -275 243 -4
1 -47 -19 -94 -47 -70 -40 -87 -47 -98 -36 -8 7 -63 34 -124 60 l-110 47 -230
228 -230 227 -214 -177z m119 -155 c-16 -77 -29 -151 -30 -165 0 -17 27 15 95
115 53 77 99 143 104 148 4 4 35 -24 70 -62 l62 -70 -161 -181 c-89 -100 -160
-184 -157 -186 2 -2 111 46 242 106 l238 111 139 -47 140 -46 -154 -89 c-84
-49 -162 -89 -173 -89 -11 0 -52 6 -92 14 l-72 13 -146 -168 -147 -169 -89 78
c-50 42 -104 89 -122 103 -18 15 -79 46 -137 70 -86 35 -121 56 -192 117 -49
41 -88 77 -88 81 0 3 55 45 122 93 l121 87 81 -5 81 -6 145 146 c79 80 145
144 146 143 1 -1 -11 -65 -26 -142z m-1546 -347 c4 -32 6 -64 3 -72 -3 -7 -25
-17 -49 -20 -33 -5 -59 -21 -117 -70 l-74 -64 -25 32 c-14 17 -41 48 -60 68
-33 35 -35 39 -29 93 3 32 8 59 10 61 2 2 18 -1 36 -7 25 -9 49 -8 112 5 43 9
93 16 109 16 16 0 32 5 35 11 4 5 14 9 23 7 12 -2 19 -20 26 -60z m40 -438
l22 -240 -36 -10 c-19 -5 -56 -16 -81 -23 -28 -9 -53 -11 -60 -6 -8 5 -28 9
-44 9 -62 0 -66 25 -38 263 l17 148 95 54 c52 30 97 52 99 50 2 -2 14 -112 26
-245z m-434 85 c0 -8 -75 -74 -79 -70 -2 2 3 26 10 54 l12 50 29 -15 c15 -8
28 -17 28 -19z m50 -67 c0 -13 5 -66 10 -118 15 -134 14 -241 -1 -250 -6 -5
-48 -18 -93 -29 -73 -20 -86 -20 -126 -8 -41 12 -45 16 -44 43 2 33 53 184 88
257 18 39 35 56 87 87 35 22 67 39 72 40 4 0 7 -10 7 -22z"/>
<path d="M4363 1941 c-66 -31 -91 -98 -58 -161 17 -32 42 -48 128 -80 30 -12
58 -27 61 -35 10 -28 -5 -45 -41 -45 -26 0 -36 5 -40 20 -5 17 -14 20 -64 20
-66 0 -71 -8 -44 -60 32 -61 149 -89 230 -56 69 29 98 129 53 181 -13 14 -54
38 -93 54 -74 31 -92 48 -82 75 9 23 54 20 69 -4 10 -16 24 -20 70 -20 l57 0
-9 32 c-25 86 -137 124 -237 79z"/>
<path d="M500 1910 l0 -40 55 0 55 0 0 -170 0 -170 55 0 55 0 0 170 0 170 55
0 55 0 0 40 0 40 -165 0 -165 0 0 -40z"/>
<path d="M870 1740 l0 -210 55 0 55 0 0 80 c0 44 4 80 10 80 5 0 28 -36 52
-80 l43 -80 63 0 63 0 -28 48 c-15 26 -37 64 -50 84 -22 36 -22 37 -3 43 10 3
31 20 45 36 30 37 34 105 8 150 -28 47 -67 59 -197 59 l-116 0 0 -210z m208
108 c7 -7 12 -21 12 -33 0 -32 -20 -45 -67 -45 l-43 0 0 45 0 45 43 0 c24 0
48 -5 55 -12z"/>
<path d="M1260 1740 l0 -210 130 0 130 0 0 45 0 45 -75 0 -75 0 0 40 0 39 68
3 67 3 0 40 0 40 -67 3 -68 3 0 39 0 40 75 0 75 0 0 40 0 40 -130 0 -130 0 0
-210z"/>
<path d="M1580 1740 l0 -210 55 0 54 0 3 85 3 86 65 -86 65 -85 62 0 c35 0 63
3 63 6 0 3 -32 47 -72 98 -39 50 -76 96 -81 103 -6 8 17 44 73 113 l81 100
-65 0 -65 0 -63 -82 -63 -81 -3 81 -3 82 -54 0 -55 0 0 -210z"/>
<path d="M1992 1743 l3 -208 123 -3 123 -3 -3 43 -3 43 -67 3 -68 3 0 164 0
165 -55 0 -55 0 2 -207z"/>
<path d="M2395 1933 c-4 -10 -35 -97 -70 -193 -35 -96 -66 -183 -70 -192 -6
-16 0 -18 52 -18 59 0 60 1 69 33 l10 32 76 3 76 3 12 -36 c11 -35 12 -35 70
-35 l59 0 -35 98 c-19 53 -53 148 -76 210 l-41 112 -62 0 c-51 0 -64 -3 -70
-17z m72 -241 c-21 -2 -41 -2 -43 1 -2 2 6 32 18 68 l21 64 22 -65 22 -65 -40
-3z"/>
<path d="M2720 1740 l0 -210 50 0 49 0 3 123 3 122 83 -122 82 -123 55 0 55 0
0 210 0 210 -55 0 -54 0 -3 -122 -3 -123 -78 123 -79 122 -54 0 -54 0 0 -210z"/>
<path d="M3160 1739 l0 -211 118 3 c111 4 122 6 167 34 64 39 95 97 95 175 0
68 -18 115 -57 152 -48 46 -91 58 -213 58 l-110 0 0 -211z m215 106 c39 -19
55 -51 55 -111 0 -37 -6 -51 -29 -75 -25 -24 -37 -29 -80 -29 l-51 0 0 115 0
115 36 0 c20 0 51 -7 69 -15z"/>
<path d="M3590 1740 l0 -210 135 0 135 0 0 45 0 45 -80 0 -80 0 0 40 0 40 70
0 70 0 0 45 0 45 -70 0 -70 0 0 40 0 40 80 0 80 0 0 40 0 40 -135 0 -135 0 0
-210z"/>
<path d="M3910 1740 l0 -210 55 0 55 0 0 81 c0 58 3 80 12 77 6 -2 30 -38 53
-79 l41 -74 63 -3 c34 -2 61 1 58 5 -2 4 -23 41 -46 80 l-42 73 41 38 c36 35
40 44 40 86 0 106 -47 136 -214 136 l-116 0 0 -210z m208 108 c7 -7 12 -21 12
-33 0 -32 -20 -45 -67 -45 l-43 0 0 45 0 45 43 0 c24 0 48 -5 55 -12z"/>
<path d="M4506 1391 c-42 -9 -73 -53 -60 -88 9 -26 23 -37 89 -65 19 -8 30
-21 30 -33 0 -25 -37 -32 -55 -10 -13 16 -70 21 -70 6 0 -4 9 -20 20 -34 24
-31 87 -44 122 -26 77 41 59 119 -34 148 -39 13 -53 32 -35 50 16 16 37 14 43
-4 4 -9 19 -15 40 -15 37 0 39 2 23 32 -9 16 -70 52 -81 47 -2 -1 -16 -4 -32
-8z"/>
<path d="M543 1271 c-24 -65 -43 -124 -43 -130 0 -6 11 -11 25 -11 18 0 28 7
35 25 8 22 15 25 58 25 42 0 50 -3 60 -25 8 -17 20 -25 37 -25 14 0 25 4 25 8
0 5 -20 62 -44 128 -43 118 -44 119 -77 122 l-34 3 -42 -120z m95 -8 c11 -32
10 -33 -20 -33 -23 0 -29 3 -24 16 3 9 9 27 12 41 8 28 17 21 32 -24z"/>
<path d="M972 1263 l3 -128 67 1 c78 2 120 23 143 70 21 45 19 86 -8 125 -31
46 -61 59 -140 59 l-68 0 3 -127z m148 55 c22 -23 26 -68 10 -98 -9 -16 -64
-40 -92 -40 -5 0 -8 36 -8 80 l0 80 35 0 c22 0 41 -8 55 -22z"/>
<path d="M1459 1263 l48 -128 33 0 c32 0 32 1 76 115 23 63 43 121 43 128 1 7
-11 12 -27 12 -25 0 -29 -6 -56 -85 -16 -47 -32 -88 -36 -90 -4 -2 -19 36 -35
85 -28 89 -29 90 -61 90 l-32 0 47 -127z"/>
<path d="M1892 1263 l3 -128 75 0 c70 0 75 1 78 23 3 20 0 22 -47 22 -50 0
-51 1 -51 30 0 28 2 30 40 30 36 0 40 3 40 25 0 23 -4 25 -40 25 -38 0 -40 2
-40 30 0 29 1 30 50 30 43 0 50 3 50 20 0 18 -7 20 -80 20 l-81 0 3 -127z"/>
<path d="M2290 1260 l0 -130 25 0 c25 0 25 1 25 87 l0 87 58 -85 c46 -68 62
-84 82 -84 l25 0 3 128 3 127 -30 0 -30 0 -3 -77 -3 -78 -49 78 c-43 66 -53
77 -78 77 l-28 0 0 -130z"/>
<path d="M2740 1370 c0 -16 7 -20 35 -20 l35 0 0 -111 0 -110 28 3 27 3 3 108
3 107 29 0 c23 0 30 4 30 20 0 19 -7 20 -95 20 -88 0 -95 -1 -95 -20z"/>
<path d="M3162 1295 c5 -111 22 -144 83 -160 30 -7 44 -5 74 10 45 25 60 64
60 168 l1 77 -30 0 -30 0 0 -81 c0 -96 -10 -119 -50 -119 -40 0 -50 23 -50
119 l0 81 -31 0 -31 0 4 -95z"/>
<path d="M3622 1263 l3 -128 25 0 c23 0 25 4 28 48 2 26 7 47 12 47 5 0 21
-22 36 -50 23 -42 32 -50 56 -50 35 0 35 9 2 61 l-25 41 25 23 c34 32 35 77 1
110 -21 22 -33 25 -95 25 l-71 0 3 -127z m123 47 c0 -21 -5 -26 -32 -28 -31
-3 -33 -1 -33 28 0 29 2 31 33 28 27 -2 32 -7 32 -28z"/>
<path d="M4052 1263 l3 -128 75 0 c70 0 75 1 78 23 3 20 0 22 -47 22 -50 0
-51 1 -51 29 0 28 3 30 43 33 35 2 43 7 45 26 3 20 -1 22 -42 22 -44 0 -46 1
-46 30 0 29 1 30 50 30 43 0 50 3 50 20 0 18 -7 20 -80 20 l-81 0 3 -127z"/>
</g>
</svg>
